  0
SECTION
  2
HEADER
  9
$ACADVER
  1
AC1012
  9
$DWGCODEPAGE
  3
undefined
  9
$INSBASE
 10
0.0
 20
0.0
 30
0.0
  9
$EXTMIN
 10
1.000000000000000E+20
 20
1.000000000000000E+20
 30
1.000000000000000E+20
  9
$EXTMAX
 10
-1.000000000000000E+20
 20
-1.000000000000000E+20
 30
-1.000000000000000E+20
  9
$LIMMIN
 10
0.0
 20
0.0
  9
$LIMMAX
 10
12.0
 20
9.0
  9
$ORTHOMODE
 70
     0
  9
$REGENMODE
 70
     1
  9
$FILLMODE
 70
     1
  9
$QTEXTMODE
 70
     0
  9
$MIRRTEXT
 70
     1
  9
$DRAGMODE
 70
     2
  9
$LTSCALE
 40
1.0
  9
$OSMODE
 70
    37
  9
$ATTMODE
 70
     1
  9
$TEXTSIZE
 40
0.2
  9
$TRACEWID
 40
0.05
  9
$TEXTSTYLE
  7
STANDARD
  9
$CLAYER
  8
0
  9
$CELTYPE
  6
BYLAYER
  9
$CECOLOR
 62
   256
  9
$CELTSCALE
 40
1.0
  9
$DELOBJ
 70
     1
  9
$DISPSILH
 70
     0
  9
$DIMSCALE
 40
1.0
  9
$DIMASZ
 40
0.18
  9
$DIMEXO
 40
0.0625
  9
$DIMDLI
 40
0.38
  9
$DIMRND
 40
0.0
  9
$DIMDLE
 40
0.0
  9
$DIMEXE
 40
0.18
  9
$DIMTP
 40
0.0
  9
$DIMTM
 40
0.0
  9
$DIMTXT
 40
0.18
  9
$DIMCEN
 40
0.09
  9
$DIMTSZ
 40
0.0
  9
$DIMTOL
 70
     0
  9
$DIMLIM
 70
     0
  9
$DIMTIH
 70
     1
  9
$DIMTOH
 70
     1
  9
$DIMSE1
 70
     0
  9
$DIMSE2
 70
     0
  9
$DIMTAD
 70
     0
  9
$DIMZIN
 70
     0
  9
$DIMBLK
  1

  9
$DIMASO
 70
     1
  9
$DIMSHO
 70
     1
  9
$DIMPOST
  1

  9
$DIMAPOST
  1

  9
$DIMALT
 70
     0
  9
$DIMALTD
 70
     2
  9
$DIMALTF
 40
25.4
  9
$DIMLFAC
 40
1.0
  9
$DIMTOFL
 70
     0
  9
$DIMTVP
 40
0.0
  9
$DIMTIX
 70
     0
  9
$DIMSOXD
 70
     0
  9
$DIMSAH
 70
     0
  9
$DIMBLK1
  1

  9
$DIMBLK2
  1

  9
$DIMSTYLE
  2
STANDARD
  9
$DIMCLRD
 70
     0
  9
$DIMCLRE
 70
     0
  9
$DIMCLRT
 70
     0
  9
$DIMTFAC
 40
1.0
  9
$DIMGAP
 40
0.09
  9
$DIMJUST
 70
     0
  9
$DIMSD1
 70
     0
  9
$DIMSD2
 70
     0
  9
$DIMTOLJ
 70
     1
  9
$DIMTZIN
 70
     0
  9
$DIMALTZ
 70
     0
  9
$DIMALTTZ
 70
     0
  9
$DIMFIT
 70
     3
  9
$DIMUPT
 70
     0
  9
$DIMUNIT
 70
     2
  9
$DIMDEC
 70
     4
  9
$DIMTDEC
 70
     4
  9
$DIMALTU
 70
     2
  9
$DIMALTTD
 70
     2
  9
$DIMTXSTY
  7
STANDARD
  9
$DIMAUNIT
 70
     0
  9
$LUNITS
 70
     2
  9
$LUPREC
 70
     4
  9
$SKETCHINC
 40
0.1
  9
$FILLETRAD
 40
0.5
  9
$AUNITS
 70
     0
  9
$AUPREC
 70
     0
  9
$MENU
  1
.
  9
$ELEVATION
 40
0.0
  9
$PELEVATION
 40
0.0
  9
$THICKNESS
 40
0.0
  9
$LIMCHECK
 70
     0
  9
$CHAMFERA
 40
0.5
  9
$CHAMFERB
 40
0.5
  9
$CHAMFERC
 40
1.0
  9
$CHAMFERD
 40
0.0
  9
$SKPOLY
 70
     0
  9
$TDCREATE
 40
2456897.560451377
  9
$TDUPDATE
 40
2456897.560451377
  9
$TDINDWG
 40
0.0000000116
  9
$TDUSRTIMER
 40
0.0000000116
  9
$USRTIMER
 70
     1
  9
$ANGBASE
 50
0.0
  9
$ANGDIR
 70
     0
  9
$PDMODE
 70
     0
  9
$PDSIZE
 40
0.0
  9
$PLINEWID
 40
0.0
  9
$COORDS
 70
     1
  9
$SPLFRAME
 70
     0
  9
$SPLINETYPE
 70
     6
  9
$SPLINESEGS
 70
     8
  9
$ATTDIA
 70
     0
  9
$ATTREQ
 70
     1
  9
$HANDLING
 70
     1
  9
$HANDSEED
  5
FB
  9
$SURFTAB1
 70
     6
  9
$SURFTAB2
 70
     6
  9
$SURFTYPE
 70
     6
  9
$SURFU
 70
     6
  9
$SURFV
 70
     6
  9
$UCSNAME
  2

  9
$UCSORG
 10
0.0
 20
0.0
 30
0.0
  9
$UCSXDIR
 10
1.0
 20
0.0
 30
0.0
  9
$UCSYDIR
 10
0.0
 20
1.0
 30
0.0
  9
$PUCSNAME
  2

  9
$PUCSORG
 10
0.0
 20
0.0
 30
0.0
  9
$PUCSXDIR
 10
1.0
 20
0.0
 30
0.0
  9
$PUCSYDIR
 10
0.0
 20
1.0
 30
0.0
  9
$USERI1
 70
     0
  9
$USERI2
 70
     0
  9
$USERI3
 70
     0
  9
$USERI4
 70
     0
  9
$USERI5
 70
     0
  9
$USERR1
 40
0.0
  9
$USERR2
 40
0.0
  9
$USERR3
 40
0.0
  9
$USERR4
 40
0.0
  9
$USERR5
 40
0.0
  9
$WORLDVIEW
 70
     1
  9
$SHADEDGE
 70
     3
  9
$SHADEDIF
 70
    70
  9
$TILEMODE
 70
     1
  9
$MAXACTVP
 70
    64
  9
$PINSBASE
 10
0.0
 20
0.0
 30
0.0
  9
$PLIMCHECK
 70
     0
  9
$PEXTMIN
 10
1.000000000000000E+20
 20
1.000000000000000E+20
 30
1.000000000000000E+20
  9
$PEXTMAX
 10
-1.000000000000000E+20
 20
-1.000000000000000E+20
 30
-1.000000000000000E+20
  9
$PLIMMIN
 10
0.0
 20
0.0
  9
$PLIMMAX
 10
12.0
 20
9.0
  9
$UNITMODE
 70
     0
  9
$VISRETAIN
 70
     1
  9
$PLINEGEN
 70
     0
  9
$PSLTSCALE
 70
     1
  9
$TREEDEPTH
 70
  3020
  9
$PICKSTYLE
 70
     1
  9
$CMLSTYLE
  2
STANDARD
  9
$CMLJUST
 70
     0
  9
$CMLSCALE
 40
1.0
  9
$SAVEIMAGES
 70
     1
  0
ENDSEC
  0
SECTION
  2
CLASSES
  0
CLASS
  1
ACDBDICTIONARYWDFLT
  2
AcDbDictionaryWithDefault
  3
ObjectDBX Classes
 90
    32768
280
     0
281
     0
  0
CLASS
  1
VISUALSTYLE
  2
AcDbVisualStyle
  3
ObjectDBX Classes
 90
     4095
280
     0
281
     0
  0
CLASS
  1
MATERIAL
  2
AcDbMaterial
  3
ObjectDBX Classes
 90
     1153
280
     0
281
     0
  0
CLASS
  1
SUN
  2
AcDbSun
  3
SCENEOE
 90
     1024
280
     0
281
     0
  0
CLASS
  1
DICTIONARYVAR
  2
AcDbDictionaryVar
  3
ObjectDBX Classes
 90
        0
280
     0
281
     0
  0
CLASS
  1
XRECORD
  2
AcDbXrecord
  3
AutoCAD 2000
 90
    32768
280
     0
281
     0
  0
CLASS
  1
LWPOLYLINE
  2
AcDbPolyline
  3
AutoCAD 2000
 90
    32768
280
     0
281
     1
  0
CLASS
  1
HATCH
  2
AcDbHatch
  3
AutoCAD 2000
 90
    32768
280
     0
281
     1
  0
CLASS
  1
ACDBPLACEHOLDER
  2
AcDbPlaceHolder
  3
ObjectDBX Classes
 90
        0
280
     0
281
     0
  0
CLASS
  1
LAYOUT
  2
AcDbLayout
  3
ObjectDBX Classes
 90
        0
280
     0
281
     0
  0
ENDSEC
  0
SECTION
  2
TABLES
  0
TABLE
  2
VPORT
  5
8
330
0
100
AcDbSymbolTable
 70
     1
  0
VPORT
  5
29
330
8
100
AcDbSymbolTableRecord
100
AcDbViewportTableRecord
  2
*ACTIVE
 70
     0
 10
0.0
 20
0.0
 11
1.0
 21
1.0
 12
0.0
 22
0.0
 13
0.0
 23
0.0
 14
0.5
 24
0.5
 15
0.5
 25
0.5
 16
0.0
 26
0.0
 36
1.0
 17
0.0
 27
0.0
 37
0.0
 40
399.9999999000002
 41
1.0
 42
50.0
 43
0.0
 44
0.0
 50
0.0
 51
0.0
 71
     0
 72
   100
 73
     1
 74
     3
 75
     0
 76
     0
 77
     0
 78
     0
  0
ENDTAB
  0
TABLE
  2
LTYPE
  5
5
330
0
100
AcDbSymbolTable
 70
     1
  0
LTYPE
  5
14
330
5
100
AcDbSymbolTableRecord
100
AcDbLinetypeTableRecord
  2
BYBLOCK
 70
     0
  3

 72
    65
 73
     0
 40
0.0
  0
LTYPE
  5
15
330
5
100
AcDbSymbolTableRecord
100
AcDbLinetypeTableRecord
  2
BYLAYER
 70
     0
  3

 72
    65
 73
     0
 40
0.0
  0
LTYPE
  5
16
330
5
100
AcDbSymbolTableRecord
100
AcDbLinetypeTableRecord
  2
CONTINUOUS
 70
     0
  3
Solid line
 72
    65
 73
     0
 40
0.0
  0
ENDTAB
  0
TABLE
  2
LAYER
  5
2
330
0
100
AcDbSymbolTable
 70
     2
  0
LAYER
  5
10
330
2
100
AcDbSymbolTableRecord
100
AcDbLayerTableRecord
  2
0
 70
     0
 62
     7
  6
CONTINUOUS
  0
LAYER
  5
40
330
2
100
AcDbSymbolTableRecord
100
AcDbLayerTableRecord
  2
EBENE_1
 70
     0
 62
     7
  6
CONTINUOUS
  0
ENDTAB
  0
TABLE
  2
STYLE
  5
3
330
0
100
AcDbSymbolTable
 70
     1
  0
STYLE
  5
11
330
3
100
AcDbSymbolTableRecord
100
AcDbTextStyleTableRecord
  2
STANDARD
 70
     0
 40
0.0
 41
1.0
 50
0.0
 71
     0
 42
0.2
  3
txt
  4

  0
ENDTAB
  0
TABLE
  2
VIEW
  5
6
330
0
100
AcDbSymbolTable
 70
     0
  0
ENDTAB
  0
TABLE
  2
UCS
  5
7
330
0
100
AcDbSymbolTable
 70
     0
  0
ENDTAB
  0
TABLE
  2
APPID
  5
9
330
0
100
AcDbSymbolTable
 70
     1
  0
APPID
  5
12
330
9
100
AcDbSymbolTableRecord
100
AcDbRegAppTableRecord
  2
ACAD
 70
     0
  0
ENDTAB
  0
TABLE
  2
DIMSTYLE
  5
A
330
0
100
AcDbSymbolTable
 70
     1
  0
DIMSTYLE
105
27
330
A
100
AcDbSymbolTableRecord
100
AcDbDimStyleTableRecord
  2
STANDARD
 70
     0
  3

  4

  5

  6

  7

 40
1.0
 41
0.18
 42
0.0625
 43
0.38
 44
0.18
 45
0.0
 46
0.0
 47
0.0
 48
0.0
140
0.18
141
0.09
142
0.0
143
25.4
144
1.0
145
0.0
146
1.0
147
0.09
 71
     0
 72
     0
 73
     1
 74
     1
 75
     0
 76
     0
 77
     0
 78
     0
170
     0
171
     2
172
     0
173
     0
174
     0
175
     0
176
     0
177
     0
178
     0
270
     2
271
     4
272
     4
273
     2
274
     2
340
11
275
     0
280
     0
281
     0
282
     0
283
     1
284
     0
285
     0
286
     0
287
     3
288
     0
  0
ENDTAB
  0
TABLE
  2
BLOCK_RECORD
  5
1
330
0
100
AcDbSymbolTable
 70
    13
  0
BLOCK_RECORD
  5
1F
330
1
100
AcDbSymbolTableRecord
100
AcDbBlockTableRecord
  2
*MODEL_SPACE
  0
BLOCK_RECORD
  5
1B
330
1
100
AcDbSymbolTableRecord
100
AcDbBlockTableRecord
  2
*PAPER_SPACE
  0
BLOCK_RECORD
  5
53
330
1
100
AcDbSymbolTableRecord
100
AcDbBlockTableRecord
  2
BLOCK_2
  0
BLOCK_RECORD
  5
5F
330
1
100
AcDbSymbolTableRecord
100
AcDbBlockTableRecord
  2
BLOCK_3
  0
BLOCK_RECORD
  5
6B
330
1
100
AcDbSymbolTableRecord
100
AcDbBlockTableRecord
  2
BLOCK_4
  0
BLOCK_RECORD
  5
77
330
1
100
AcDbSymbolTableRecord
100
AcDbBlockTableRecord
  2
BLOCK_5
  0
BLOCK_RECORD
  5
83
330
1
100
AcDbSymbolTableRecord
100
AcDbBlockTableRecord
  2
BLOCK_6
  0
BLOCK_RECORD
  5
8F
330
1
100
AcDbSymbolTableRecord
100
AcDbBlockTableRecord
  2
BLOCK_7
  0
BLOCK_RECORD
  5
9B
330
1
100
AcDbSymbolTableRecord
100
AcDbBlockTableRecord
  2
BLOCK_8
  0
BLOCK_RECORD
  5
A7
330
1
100
AcDbSymbolTableRecord
100
AcDbBlockTableRecord
  2
BLOCK_9
  0
BLOCK_RECORD
  5
B3
330
1
100
AcDbSymbolTableRecord
100
AcDbBlockTableRecord
  2
BLOCK_10
  0
BLOCK_RECORD
  5
BF
330
1
100
AcDbSymbolTableRecord
100
AcDbBlockTableRecord
  2
BLOCK_11
  0
BLOCK_RECORD
  5
CB
330
1
100
AcDbSymbolTableRecord
100
AcDbBlockTableRecord
  2
BLOCK_12
  0
BLOCK_RECORD
  5
D7
330
1
100
AcDbSymbolTableRecord
100
AcDbBlockTableRecord
  2
BLOCK_13
  0
ENDTAB
  0
ENDSEC
  0
SECTION
  2
BLOCKS
  0
BLOCK
  5
20
330
1F
100
AcDbEntity
  8
0
100
AcDbBlockBegin
  2
*MODEL_SPACE
 70
     0
 10
0.0
 20
0.0
 30
0.0
  3
*MODEL_SPACE
  1

  0
ENDBLK
  5
21
330
1F
100
AcDbEntity
  8
0
100
AcDbBlockEnd
  0
BLOCK
  5
1C
330
1B
100
AcDbEntity
 67
     1
  8
0
100
AcDbBlockBegin
  2
*PAPER_SPACE
 70
     0
 10
0.0
 20
0.0
 30
0.0
  3
*PAPER_SPACE
  1

  0
ENDBLK
  5
1D
330
1B
100
AcDbEntity
 67
     1
  8
0
100
AcDbBlockEnd
  0
BLOCK
  5
55
330
53
100
AcDbEntity
  8
0
100
AcDbBlockBegin
  2
BLOCK_2
 70
     0
 10
0.0
 20
0.0
 30
0.0
  3
BLOCK_2
  1

  0
POLYLINE
  5
57
330
53
100
AcDbEntity
  8
EBENE_1
 62
   250
100
AcDb2dPolyline
 66
     1
 10
0.0
 20
0.0
 30
0.0
  0
VERTEX
  5
58
330
57
100
AcDbEntity
  8
EBENE_1
 62
   250
100
AcDbVertex
100
AcDb2dVertex
 10
-59.49999311767659
 20
44.99999969734937
 30
0.0
  0
VERTEX
  5
59
330
57
100
AcDbEntity
  8
EBENE_1
 62
   250
100
AcDbVertex
100
AcDb2dVertex
 10
-54.49999311892644
 20
44.99999969734937
 30
0.0
  0
SEQEND
  5
5A
330
57
100
AcDbEntity
  8
EBENE_1
 62
   250
  0
POLYLINE
  5
5B
330
53
100
AcDbEntity
  8
EBENE_1
 62
   250
100
AcDb2dPolyline
 66
     1
 10
0.0
 20
0.0
 30
0.0
  0
VERTEX
  5
5C
330
5B
100
AcDbEntity
  8
EBENE_1
 62
   250
100
AcDbVertex
100
AcDb2dVertex
 10
-56.99999328651907
 20
47.49999969672444
 30
0.0
  0
VERTEX
  5
5D
330
5B
100
AcDbEntity
  8
EBENE_1
 62
   250
100
AcDbVertex
100
AcDb2dVertex
 10
-56.99999328651907
 20
42.4999996979743
 30
0.0
  0
SEQEND
  5
5E
330
5B
100
AcDbEntity
  8
EBENE_1
 62
   250
  0
ENDBLK
  5
56
330
53
100
AcDbEntity
  8
0
100
AcDbBlockEnd
  0
BLOCK
  5
61
330
5F
100
AcDbEntity
  8
0
100
AcDbBlockBegin
  2
BLOCK_3
 70
     0
 10
0.0
 20
0.0
 30
0.0
  3
BLOCK_3
  1

  0
POLYLINE
  5
63
330
5F
100
AcDbEntity
  8
EBENE_1
 62
   250
100
AcDb2dPolyline
 66
     1
 10
0.0
 20
0.0
 30
0.0
  0
VERTEX
  5
64
330
63
100
AcDbEntity
  8
EBENE_1
 62
   250
100
AcDbVertex
100
AcDb2dVertex
 10
-29.49999331293107
 20
44.99999978927308
 30
0.0
  0
VERTEX
  5
65
330
63
100
AcDbEntity
  8
EBENE_1
 62
   250
100
AcDbVertex
100
AcDb2dVertex
 10
-24.49999331418093
 20
44.99999978927308
 30
0.0
  0
SEQEND
  5
66
330
63
100
AcDbEntity
  8
EBENE_1
 62
   250
  0
POLYLINE
  5
67
330
5F
100
AcDbEntity
  8
EBENE_1
 62
   250
100
AcDb2dPolyline
 66
     1
 10
0.0
 20
0.0
 30
0.0
  0
VERTEX
  5
68
330
67
100
AcDbEntity
  8
EBENE_1
 62
   250
100
AcDbVertex
100
AcDb2dVertex
 10
-26.99999348177355
 20
47.49999978864815
 30
0.0
  0
VERTEX
  5
69
330
67
100
AcDbEntity
  8
EBENE_1
 62
   250
100
AcDbVertex
100
AcDb2dVertex
 10
-26.99999348177355
 20
42.49999978989801
 30
0.0
  0
SEQEND
  5
6A
330
67
100
AcDbEntity
  8
EBENE_1
 62
   250
  0
ENDBLK
  5
62
330
5F
100
AcDbEntity
  8
0
100
AcDbBlockEnd
  0
BLOCK
  5
6D
330
6B
100
AcDbEntity
  8
0
100
AcDbBlockBegin
  2
BLOCK_4
 70
     0
 10
0.0
 20
0.0
 30
0.0
  3
BLOCK_4
  1

  0
POLYLINE
  5
6F
330
6B
100
AcDbEntity
  8
EBENE_1
 62
   250
100
AcDb2dPolyline
 66
     1
 10
0.0
 20
0.0
 30
0.0
  0
VERTEX
  5
70
330
6F
100
AcDbEntity
  8
EBENE_1
 62
   250
100
AcDbVertex
100
AcDb2dVertex
 10
-65.99999304452602
 20
44.99999969734937
 30
0.0
  0
VERTEX
  5
71
330
6F
100
AcDbEntity
  8
EBENE_1
 62
   250
100
AcDbVertex
100
AcDb2dVertex
 10
-60.99999304577587
 20
44.99999969734937
 30
0.0
  0
SEQEND
  5
72
330
6F
100
AcDbEntity
  8
EBENE_1
 62
   250
  0
POLYLINE
  5
73
330
6B
100
AcDbEntity
  8
EBENE_1
 62
   250
100
AcDb2dPolyline
 66
     1
 10
0.0
 20
0.0
 30
0.0
  0
VERTEX
  5
74
330
73
100
AcDbEntity
  8
EBENE_1
 62
   250
100
AcDbVertex
100
AcDb2dVertex
 10
-63.4999932133685
 20
47.49999969672444
 30
0.0
  0
VERTEX
  5
75
330
73
100
AcDbEntity
  8
EBENE_1
 62
   250
100
AcDbVertex
100
AcDb2dVertex
 10
-63.4999932133685
 20
42.4999996979743
 30
0.0
  0
SEQEND
  5
76
330
73
100
AcDbEntity
  8
EBENE_1
 62
   250
  0
ENDBLK
  5
6E
330
6B
100
AcDbEntity
  8
0
100
AcDbBlockEnd
  0
BLOCK
  5
79
330
77
100
AcDbEntity
  8
0
100
AcDbBlockBegin
  2
BLOCK_5
 70
     0
 10
0.0
 20
0.0
 30
0.0
  3
BLOCK_5
  1

  0
POLYLINE
  5
7B
330
77
100
AcDbEntity
  8
EBENE_1
 62
   250
100
AcDb2dPolyline
 66
     1
 10
0.0
 20
0.0
 30
0.0
  0
VERTEX
  5
7C
330
7B
100
AcDbEntity
  8
EBENE_1
 62
   250
100
AcDbVertex
100
AcDb2dVertex
 10
-52.99999311930146
 20
44.99999968277928
 30
0.0
  0
VERTEX
  5
7D
330
7B
100
AcDbEntity
  8
EBENE_1
 62
   250
100
AcDbVertex
100
AcDb2dVertex
 10
-47.99999312055132
 20
44.99999968277928
 30
0.0
  0
SEQEND
  5
7E
330
7B
100
AcDbEntity
  8
EBENE_1
 62
   250
  0
POLYLINE
  5
7F
330
77
100
AcDbEntity
  8
EBENE_1
 62
   250
100
AcDb2dPolyline
 66
     1
 10
0.0
 20
0.0
 30
0.0
  0
VERTEX
  5
80
330
7F
100
AcDbEntity
  8
EBENE_1
 62
   250
100
AcDbVertex
100
AcDb2dVertex
 10
-50.49999328814426
 20
47.49999968215435
 30
0.0
  0
VERTEX
  5
81
330
7F
100
AcDbEntity
  8
EBENE_1
 62
   250
100
AcDbVertex
100
AcDb2dVertex
 10
-50.49999328814426
 20
42.4999996834042
 30
0.0
  0
SEQEND
  5
82
330
7F
100
AcDbEntity
  8
EBENE_1
 62
   250
  0
ENDBLK
  5
7A
330
77
100
AcDbEntity
  8
0
100
AcDbBlockEnd
  0
BLOCK
  5
85
330
83
100
AcDbEntity
  8
0
100
AcDbBlockBegin
  2
BLOCK_6
 70
     0
 10
0.0
 20
0.0
 30
0.0
  3
BLOCK_6
  1

  0
POLYLINE
  5
87
330
83
100
AcDbEntity
  8
EBENE_1
 62
   250
100
AcDb2dPolyline
 66
     1
 10
0.0
 20
0.0
 30
0.0
  0
VERTEX
  5
88
330
87
100
AcDbEntity
  8
EBENE_1
 62
   250
100
AcDbVertex
100
AcDb2dVertex
 10
-35.99999356330141
 20
44.99999986556692
 30
0.0
  0
VERTEX
  5
89
330
87
100
AcDbEntity
  8
EBENE_1
 62
   250
100
AcDbVertex
100
AcDb2dVertex
 10
-30.99999356455126
 20
44.99999986556692
 30
0.0
  0
SEQEND
  5
8A
330
87
100
AcDbEntity
  8
EBENE_1
 62
   250
  0
POLYLINE
  5
8B
330
83
100
AcDbEntity
  8
EBENE_1
 62
   250
100
AcDb2dPolyline
 66
     1
 10
0.0
 20
0.0
 30
0.0
  0
VERTEX
  5
8C
330
8B
100
AcDbEntity
  8
EBENE_1
 62
   250
100
AcDbVertex
100
AcDb2dVertex
 10
-33.49999373214389
 20
47.499999864942
 30
0.0
  0
VERTEX
  5
8D
330
8B
100
AcDbEntity
  8
EBENE_1
 62
   250
100
AcDbVertex
100
AcDb2dVertex
 10
-33.49999373214389
 20
42.49999986619185
 30
0.0
  0
SEQEND
  5
8E
330
8B
100
AcDbEntity
  8
EBENE_1
 62
   250
  0
ENDBLK
  5
86
330
83
100
AcDbEntity
  8
0
100
AcDbBlockEnd
  0
BLOCK
  5
91
330
8F
100
AcDbEntity
  8
0
100
AcDbBlockBegin
  2
BLOCK_7
 70
     0
 10
0.0
 20
0.0
 30
0.0
  3
BLOCK_7
  1

  0
POLYLINE
  5
93
330
8F
100
AcDbEntity
  8
EBENE_1
 62
   250
100
AcDb2dPolyline
 66
     1
 10
0.0
 20
0.0
 30
0.0
  0
VERTEX
  5
94
330
93
100
AcDbEntity
  8
EBENE_1
 62
   250
100
AcDbVertex
100
AcDb2dVertex
 10
-22.99999363807686
 20
44.99999985099682
 30
0.0
  0
VERTEX
  5
95
330
93
100
AcDbEntity
  8
EBENE_1
 62
   250
100
AcDbVertex
100
AcDb2dVertex
 10
-17.99999363932671
 20
44.99999985099682
 30
0.0
  0
SEQEND
  5
96
330
93
100
AcDbEntity
  8
EBENE_1
 62
   250
  0
POLYLINE
  5
97
330
8F
100
AcDbEntity
  8
EBENE_1
 62
   250
100
AcDb2dPolyline
 66
     1
 10
0.0
 20
0.0
 30
0.0
  0
VERTEX
  5
98
330
97
100
AcDbEntity
  8
EBENE_1
 62
   250
100
AcDbVertex
100
AcDb2dVertex
 10
-20.49999380691966
 20
47.4999998503719
 30
0.0
  0
VERTEX
  5
99
330
97
100
AcDbEntity
  8
EBENE_1
 62
   250
100
AcDbVertex
100
AcDb2dVertex
 10
-20.49999380691966
 20
42.49999985162175
 30
0.0
  0
SEQEND
  5
9A
330
97
100
AcDbEntity
  8
EBENE_1
 62
   250
  0
ENDBLK
  5
92
330
8F
100
AcDbEntity
  8
0
100
AcDbBlockEnd
  0
BLOCK
  5
9D
330
9B
100
AcDbEntity
  8
0
100
AcDbBlockBegin
  2
BLOCK_8
 70
     0
 10
0.0
 20
0.0
 30
0.0
  3
BLOCK_8
  1

  0
POLYLINE
  5
9F
330
9B
100
AcDbEntity
  8
EBENE_1
 62
   250
100
AcDb2dPolyline
 66
     1
 10
0.0
 20
0.0
 30
0.0
  0
VERTEX
  5
A0
330
9F
100
AcDbEntity
  8
EBENE_1
 62
   250
100
AcDbVertex
100
AcDb2dVertex
 10
24.49999355359306
 20
-44.99999977665696
 30
0.0
  0
VERTEX
  5
A1
330
9F
100
AcDbEntity
  8
EBENE_1
 62
   250
100
AcDbVertex
100
AcDb2dVertex
 10
29.49999355234321
 20
-44.99999977665696
 30
0.0
  0
SEQEND
  5
A2
330
9F
100
AcDbEntity
  8
EBENE_1
 62
   250
  0
POLYLINE
  5
A3
330
9B
100
AcDbEntity
  8
EBENE_1
 62
   250
100
AcDb2dPolyline
 66
     1
 10
0.0
 20
0.0
 30
0.0
  0
VERTEX
  5
A4
330
A3
100
AcDbEntity
  8
EBENE_1
 62
   250
100
AcDbVertex
100
AcDb2dVertex
 10
26.99999338475058
 20
-42.49999977728188
 30
0.0
  0
VERTEX
  5
A5
330
A3
100
AcDbEntity
  8
EBENE_1
 62
   250
100
AcDbVertex
100
AcDb2dVertex
 10
26.99999338475058
 20
-47.49999977603203
 30
0.0
  0
SEQEND
  5
A6
330
A3
100
AcDbEntity
  8
EBENE_1
 62
   250
  0
ENDBLK
  5
9E
330
9B
100
AcDbEntity
  8
0
100
AcDbBlockEnd
  0
BLOCK
  5
A9
330
A7
100
AcDbEntity
  8
0
100
AcDbBlockBegin
  2
BLOCK_9
 70
     0
 10
0.0
 20
0.0
 30
0.0
  3
BLOCK_9
  1

  0
POLYLINE
  5
AB
330
A7
100
AcDbEntity
  8
EBENE_1
 62
   250
100
AcDb2dPolyline
 66
     1
 10
0.0
 20
0.0
 30
0.0
  0
VERTEX
  5
AC
330
AB
100
AcDbEntity
  8
EBENE_1
 62
   250
100
AcDbVertex
100
AcDb2dVertex
 10
17.99999362674363
 20
-44.99999977665696
 30
0.0
  0
VERTEX
  5
AD
330
AB
100
AcDbEntity
  8
EBENE_1
 62
   250
100
AcDbVertex
100
AcDb2dVertex
 10
22.99999362549378
 20
-44.99999977665696
 30
0.0
  0
SEQEND
  5
AE
330
AB
100
AcDbEntity
  8
EBENE_1
 62
   250
  0
POLYLINE
  5
AF
330
A7
100
AcDbEntity
  8
EBENE_1
 62
   250
100
AcDb2dPolyline
 66
     1
 10
0.0
 20
0.0
 30
0.0
  0
VERTEX
  5
B0
330
AF
100
AcDbEntity
  8
EBENE_1
 62
   250
100
AcDbVertex
100
AcDb2dVertex
 10
20.49999345790116
 20
-42.49999977728188
 30
0.0
  0
VERTEX
  5
B1
330
AF
100
AcDbEntity
  8
EBENE_1
 62
   250
100
AcDbVertex
100
AcDb2dVertex
 10
20.49999345790116
 20
-47.49999977603203
 30
0.0
  0
SEQEND
  5
B2
330
AF
100
AcDbEntity
  8
EBENE_1
 62
   250
  0
ENDBLK
  5
AA
330
A7
100
AcDbEntity
  8
0
100
AcDbBlockEnd
  0
BLOCK
  5
B5
330
B3
100
AcDbEntity
  8
0
100
AcDbBlockBegin
  2
BLOCK_10
 70
     0
 10
0.0
 20
0.0
 30
0.0
  3
BLOCK_10
  1

  0
POLYLINE
  5
B7
330
B3
100
AcDbEntity
  8
EBENE_1
 62
   250
100
AcDb2dPolyline
 66
     1
 10
0.0
 20
0.0
 30
0.0
  0
VERTEX
  5
B8
330
B7
100
AcDbEntity
  8
EBENE_1
 62
   250
100
AcDbVertex
100
AcDb2dVertex
 10
30.99999355196819
 20
-44.99999979122705
 30
0.0
  0
VERTEX
  5
B9
330
B7
100
AcDbEntity
  8
EBENE_1
 62
   250
100
AcDbVertex
100
AcDb2dVertex
 10
35.99999355071834
 20
-44.99999979122705
 30
0.0
  0
SEQEND
  5
BA
330
B7
100
AcDbEntity
  8
EBENE_1
 62
   250
  0
POLYLINE
  5
BB
330
B3
100
AcDbEntity
  8
EBENE_1
 62
   250
100
AcDb2dPolyline
 66
     1
 10
0.0
 20
0.0
 30
0.0
  0
VERTEX
  5
BC
330
BB
100
AcDbEntity
  8
EBENE_1
 62
   250
100
AcDbVertex
100
AcDb2dVertex
 10
33.49999338312539
 20
-42.49999979185198
 30
0.0
  0
VERTEX
  5
BD
330
BB
100
AcDbEntity
  8
EBENE_1
 62
   250
100
AcDbVertex
100
AcDb2dVertex
 10
33.49999338312539
 20
-47.49999979060212
 30
0.0
  0
SEQEND
  5
BE
330
BB
100
AcDbEntity
  8
EBENE_1
 62
   250
  0
ENDBLK
  5
B6
330
B3
100
AcDbEntity
  8
0
100
AcDbBlockEnd
  0
BLOCK
  5
C1
330
BF
100
AcDbEntity
  8
0
100
AcDbBlockBegin
  2
BLOCK_11
 70
     0
 10
0.0
 20
0.0
 30
0.0
  3
BLOCK_11
  1

  0
POLYLINE
  5
C3
330
BF
100
AcDbEntity
  8
EBENE_1
 62
   250
100
AcDb2dPolyline
 66
     1
 10
0.0
 20
0.0
 30
0.0
  0
VERTEX
  5
C4
330
C3
100
AcDbEntity
  8
EBENE_1
 62
   250
100
AcDbVertex
100
AcDb2dVertex
 10
54.49999353947064
 20
-44.99999977665696
 30
0.0
  0
VERTEX
  5
C5
330
C3
100
AcDbEntity
  8
EBENE_1
 62
   250
100
AcDbVertex
100
AcDb2dVertex
 10
59.49999353822047
 20
-44.99999977665696
 30
0.0
  0
SEQEND
  5
C6
330
C3
100
AcDbEntity
  8
EBENE_1
 62
   250
  0
POLYLINE
  5
C7
330
BF
100
AcDbEntity
  8
EBENE_1
 62
   250
100
AcDb2dPolyline
 66
     1
 10
0.0
 20
0.0
 30
0.0
  0
VERTEX
  5
C8
330
C7
100
AcDbEntity
  8
EBENE_1
 62
   250
100
AcDbVertex
100
AcDb2dVertex
 10
56.99999337062785
 20
-42.49999977728188
 30
0.0
  0
VERTEX
  5
C9
330
C7
100
AcDbEntity
  8
EBENE_1
 62
   250
100
AcDbVertex
100
AcDb2dVertex
 10
56.99999337062785
 20
-47.49999977603203
 30
0.0
  0
SEQEND
  5
CA
330
C7
100
AcDbEntity
  8
EBENE_1
 62
   250
  0
ENDBLK
  5
C2
330
BF
100
AcDbEntity
  8
0
100
AcDbBlockEnd
  0
BLOCK
  5
CD
330
CB
100
AcDbEntity
  8
0
100
AcDbBlockBegin
  2
BLOCK_12
 70
     0
 10
0.0
 20
0.0
 30
0.0
  3
BLOCK_12
  1

  0
POLYLINE
  5
CF
330
CB
100
AcDbEntity
  8
EBENE_1
 62
   250
100
AcDb2dPolyline
 66
     1
 10
0.0
 20
0.0
 30
0.0
  0
VERTEX
  5
D0
330
CF
100
AcDbEntity
  8
EBENE_1
 62
   250
100
AcDbVertex
100
AcDb2dVertex
 10
47.99999361262058
 20
-44.99999977665696
 30
0.0
  0
VERTEX
  5
D1
330
CF
100
AcDbEntity
  8
EBENE_1
 62
   250
100
AcDbVertex
100
AcDb2dVertex
 10
52.99999361137105
 20
-44.99999977665696
 30
0.0
  0
SEQEND
  5
D2
330
CF
100
AcDbEntity
  8
EBENE_1
 62
   250
  0
POLYLINE
  5
D3
330
CB
100
AcDbEntity
  8
EBENE_1
 62
   250
100
AcDb2dPolyline
 66
     1
 10
0.0
 20
0.0
 30
0.0
  0
VERTEX
  5
D4
330
D3
100
AcDbEntity
  8
EBENE_1
 62
   250
100
AcDbVertex
100
AcDb2dVertex
 10
50.49999344377841
 20
-42.49999977728188
 30
0.0
  0
VERTEX
  5
D5
330
D3
100
AcDbEntity
  8
EBENE_1
 62
   250
100
AcDbVertex
100
AcDb2dVertex
 10
50.49999344377841
 20
-47.49999977603203
 30
0.0
  0
SEQEND
  5
D6
330
D3
100
AcDbEntity
  8
EBENE_1
 62
   250
  0
ENDBLK
  5
CE
330
CB
100
AcDbEntity
  8
0
100
AcDbBlockEnd
  0
BLOCK
  5
D9
330
D7
100
AcDbEntity
  8
0
100
AcDbBlockBegin
  2
BLOCK_13
 70
     0
 10
0.0
 20
0.0
 30
0.0
  3
BLOCK_13
  1

  0
POLYLINE
  5
DB
330
D7
100
AcDbEntity
  8
EBENE_1
 62
   250
100
AcDb2dPolyline
 66
     1
 10
0.0
 20
0.0
 30
0.0
  0
VERTEX
  5
DC
330
DB
100
AcDbEntity
  8
EBENE_1
 62
   250
100
AcDbVertex
100
AcDb2dVertex
 10
60.99999353784545
 20
-44.99999979122705
 30
0.0
  0
VERTEX
  5
DD
330
DB
100
AcDbEntity
  8
EBENE_1
 62
   250
100
AcDbVertex
100
AcDb2dVertex
 10
65.9999935365956
 20
-44.99999979122705
 30
0.0
  0
SEQEND
  5
DE
330
DB
100
AcDbEntity
  8
EBENE_1
 62
   250
  0
POLYLINE
  5
DF
330
D7
100
AcDbEntity
  8
EBENE_1
 62
   250
100
AcDb2dPolyline
 66
     1
 10
0.0
 20
0.0
 30
0.0
  0
VERTEX
  5
E0
330
DF
100
AcDbEntity
  8
EBENE_1
 62
   250
100
AcDbVertex
100
AcDb2dVertex
 10
63.49999336900265
 20
-42.49999979185198
 30
0.0
  0
VERTEX
  5
E1
330
DF
100
AcDbEntity
  8
EBENE_1
 62
   250
100
AcDbVertex
100
AcDb2dVertex
 10
63.49999336900265
 20
-47.49999979060212
 30
0.0
  0
SEQEND
  5
E2
330
DF
100
AcDbEntity
  8
EBENE_1
 62
   250
  0
ENDBLK
  5
DA
330
D7
100
AcDbEntity
  8
0
100
AcDbBlockEnd
  0
ENDSEC
  0
SECTION
  2
ENTITIES
  0
POLYLINE
  5
41
330
1F
100
AcDbEntity
  8
EBENE_1
 62
   250
100
AcDb2dPolyline
 66
     1
 10
0.0
 20
0.0
 30
0.0
  0
VERTEX
  5
42
330
41
100
AcDbEntity
  8
EBENE_1
 62
   250
100
AcDbVertex
100
AcDb2dVertex
 10
71.36577720186241
 20
-54.99999968949147
 30
0.0
  0
VERTEX
  5
43
330
41
100
AcDbEntity
  8
EBENE_1
 62
   250
100
AcDbVertex
100
AcDb2dVertex
 10
88.00000600402744
 20
51.99999971112176
 30
0.0
  0
VERTEX
  5
44
330
41
100
AcDbEntity
  8
EBENE_1
 62
   250
100
AcDbVertex
100
AcDb2dVertex
 10
87.99999341579557
 20
54.99999968123024
 30
0.0
  0
VERTEX
  5
45
330
41
100
AcDbEntity
  8
EBENE_1
 62
   250
100
AcDbVertex
100
AcDb2dVertex
 10
-4.000006025027607
 20
54.99999968949147
 30
0.0
  0
VERTEX
  5
46
330
41
100
AcDbEntity
  8
EBENE_1
 62
   250
100
AcDbVertex
100
AcDb2dVertex
 10
-3.999997376530408
 20
51.999999719383
 30
0.0
  0
VERTEX
  5
47
330
41
100
AcDbEntity
  8
EBENE_1
 62
   250
100
AcDbVertex
100
AcDb2dVertex
 10
12.63445012335248
 20
-54.999999684218
 30
0.0
  0
VERTEX
  5
48
330
41
100
AcDbEntity
  8
EBENE_1
 62
   250
100
AcDbVertex
100
AcDb2dVertex
 10
71.36577720186241
 20
-54.99999968949147
 30
0.0
  0
SEQEND
  5
49
330
41
100
AcDbEntity
  8
EBENE_1
 62
   250
  0
POLYLINE
  5
4A
330
1F
100
AcDbEntity
  8
EBENE_1
 62
   250
100
AcDb2dPolyline
 66
     1
 10
0.0
 20
0.0
 30
0.0
  0
VERTEX
  5
4B
330
4A
100
AcDbEntity
  8
EBENE_1
 62
   250
100
AcDbVertex
100
AcDb2dVertex
 10
-71.365777211605
 20
54.9999996861078
 30
0.0
  0
VERTEX
  5
4C
330
4A
100
AcDbEntity
  8
EBENE_1
 62
   250
100
AcDbVertex
100
AcDb2dVertex
 10
-88.0000060041622
 20
-51.99999971599932
 30
0.0
  0
VERTEX
  5
4D
330
4A
100
AcDbEntity
  8
EBENE_1
 62
   250
100
AcDbVertex
100
AcDb2dVertex
 10
-87.99999341566081
 20
-54.9999996861078
 30
0.0
  0
VERTEX
  5
4E
330
4A
100
AcDbEntity
  8
EBENE_1
 62
   250
100
AcDbVertex
100
AcDb2dVertex
 10
4.000006025162043
 20
-54.9999996861078
 30
0.0
  0
VERTEX
  5
4F
330
4A
100
AcDbEntity
  8
EBENE_1
 62
   250
100
AcDbVertex
100
AcDb2dVertex
 10
3.999997376395651
 20
-51.99999971599932
 30
0.0
  0
VERTEX
  5
50
330
4A
100
AcDbEntity
  8
EBENE_1
 62
   250
100
AcDbVertex
100
AcDb2dVertex
 10
-12.63445013309508
 20
54.9999996861078
 30
0.0
  0
VERTEX
  5
51
330
4A
100
AcDbEntity
  8
EBENE_1
 62
   250
100
AcDbVertex
100
AcDb2dVertex
 10
-71.365777211605
 20
54.9999996861078
 30
0.0
  0
SEQEND
  5
52
330
4A
100
AcDbEntity
  8
EBENE_1
 62
   250
  0
INSERT
  5
54
330
1F
100
AcDbEntity
  8
EBENE_1
100
AcDbBlockReference
  2
BLOCK_2
 10
0.0
 20
0.0
 30
0.0
  0
INSERT
  5
60
330
1F
100
AcDbEntity
  8
EBENE_1
100
AcDbBlockReference
  2
BLOCK_3
 10
0.0
 20
0.0
 30
0.0
  0
INSERT
  5
6C
330
1F
100
AcDbEntity
  8
EBENE_1
100
AcDbBlockReference
  2
BLOCK_4
 10
0.0
 20
0.0
 30
0.0
  0
INSERT
  5
78
330
1F
100
AcDbEntity
  8
EBENE_1
100
AcDbBlockReference
  2
BLOCK_5
 10
0.0
 20
0.0
 30
0.0
  0
INSERT
  5
84
330
1F
100
AcDbEntity
  8
EBENE_1
100
AcDbBlockReference
  2
BLOCK_6
 10
0.0
 20
0.0
 30
0.0
  0
INSERT
  5
90
330
1F
100
AcDbEntity
  8
EBENE_1
100
AcDbBlockReference
  2
BLOCK_7
 10
0.0
 20
0.0
 30
0.0
  0
INSERT
  5
9C
330
1F
100
AcDbEntity
  8
EBENE_1
100
AcDbBlockReference
  2
BLOCK_8
 10
0.0
 20
0.0
 30
0.0
  0
INSERT
  5
A8
330
1F
100
AcDbEntity
  8
EBENE_1
100
AcDbBlockReference
  2
BLOCK_9
 10
0.0
 20
0.0
 30
0.0
  0
INSERT
  5
B4
330
1F
100
AcDbEntity
  8
EBENE_1
100
AcDbBlockReference
  2
BLOCK_10
 10
0.0
 20
0.0
 30
0.0
  0
INSERT
  5
C0
330
1F
100
AcDbEntity
  8
EBENE_1
100
AcDbBlockReference
  2
BLOCK_11
 10
0.0
 20
0.0
 30
0.0
  0
INSERT
  5
CC
330
1F
100
AcDbEntity
  8
EBENE_1
100
AcDbBlockReference
  2
BLOCK_12
 10
0.0
 20
0.0
 30
0.0
  0
INSERT
  5
D8
330
1F
100
AcDbEntity
  8
EBENE_1
100
AcDbBlockReference
  2
BLOCK_13
 10
0.0
 20
0.0
 30
0.0
  0
MTEXT
  5
E3
330
1F
100
AcDbEntity
  8
EBENE_1
 62
   250
100
AcDbMText
 10
-67.10071344353777
 20
40.00002936316894
 30
0.0
 40
1.415999681738667
 41
0.0
 71
     7
 72
     1
  1
\fAndale Mono|b0|i0|c0|p34;\W1;\U+00F8 2 mm
  0
MTEXT
  5
E4
330
1F
100
AcDbEntity
  8
EBENE_1
 62
   250
100
AcDbMText
 10
-60.60071259149181
 20
48.50005827856848
 30
0.0
 40
1.415999681738667
 41
0.0
 71
     7
 72
     1
  1
\fAndale Mono|b0|i0|c0|p34;\W1;\U+00F8 5 mm
  0
MTEXT
  5
E5
330
1F
100
AcDbEntity
  8
EBENE_1
 62
   250
100
AcDbMText
 10
-54.10071098246685
 20
40.00005762371784
 30
0.0
 40
1.415999681738667
 41
0.0
 71
     7
 72
     1
  1
\fAndale Mono|b0|i0|c0|p34;\W1;\U+00F8 2 mm
  0
MTEXT
  5
E6
330
1F
100
AcDbEntity
  8
EBENE_1
 62
   250
100
AcDbMText
 10
-37.10060739649335
 20
39.99997637463975
 30
0.0
 40
1.415999681738667
 41
0.0
 71
     7
 72
     1
  1
\fAndale Mono|b0|i0|c0|p34;\W1;\U+00F8 2 mm
  0
MTEXT
  5
E7
330
1F
100
AcDbEntity
  8
EBENE_1
 62
   250
100
AcDbMText
 10
-30.60061117043009
 20
48.50000512182174
 30
0.0
 40
1.415999681738667
 41
0.0
 71
     7
 72
     1
  1
\fAndale Mono|b0|i0|c0|p34;\W1;\U+00F8 5 mm
  0
MTEXT
  5
E8
330
1F
100
AcDbEntity
  8
EBENE_1
 62
   250
100
AcDbMText
 10
-24.10060956140513
 20
40.00000463518865
 30
0.0
 40
1.415999681738667
 41
0.0
 71
     7
 72
     1
  1
\fAndale Mono|b0|i0|c0|p34;\W1;\U+00F8 2 mm
  0
MTEXT
  5
E9
330
1F
100
AcDbEntity
  8
EBENE_1
 62
   250
100
AcDbMText
 10
16.89928609637468
 20
-49.99993577342938
 30
0.0
 40
1.415999681738667
 41
0.0
 71
     7
 72
     1
  1
\fAndale Mono|b0|i0|c0|p34;\W1;\U+00F8 2 mm
  0
MTEXT
  5
EA
330
1F
100
AcDbEntity
  8
EBENE_1
 62
   250
100
AcDbMText
 10
23.39928232243794
 20
-41.49991089525111
 30
0.0
 40
1.415999681738667
 41
0.0
 71
     7
 72
     1
  1
\fAndale Mono|b0|i0|c0|p34;\W1;\U+00F8 5 mm
  0
MTEXT
  5
EB
330
1F
100
AcDbEntity
  8
EBENE_1
 62
   250
100
AcDbMText
 10
29.8992839314629
 20
-49.99991424158259
 30
0.0
 40
1.415999681738667
 41
0.0
 71
     7
 72
     1
  1
\fAndale Mono|b0|i0|c0|p34;\W1;\U+00F8 2 mm
  0
MTEXT
  5
EC
330
1F
100
AcDbEntity
  8
EBENE_1
 62
   250
100
AcDbMText
 10
46.89927985820248
 20
-49.99993577342938
 30
0.0
 40
1.415999681738667
 41
0.0
 71
     7
 72
     1
  1
\fAndale Mono|b0|i0|c0|p34;\W1;\U+00F8 2 mm
  0
MTEXT
  5
ED
330
1F
100
AcDbEntity
  8
EBENE_1
 62
   250
100
AcDbMText
 10
53.39928146722744
 20
-41.49991089525111
 30
0.0
 40
1.415999681738667
 41
0.0
 71
     7
 72
     1
  1
\fAndale Mono|b0|i0|c0|p34;\W1;\U+00F8 5 mm
  0
MTEXT
  5
EE
330
1F
100
AcDbEntity
  8
EBENE_1
 62
   250
100
AcDbMText
 10
59.8992830762524
 20
-49.99991424158259
 30
0.0
 40
1.415999681738667
 41
0.0
 71
     7
 72
     1
  1
\fAndale Mono|b0|i0|c0|p34;\W1;\U+00F8 2 mm
  0
MTEXT
  5
EF
330
1F
100
AcDbEntity
  8
EBENE_1
 62
   250
100
AcDbMText
 10
-80.00000489672092
 20
70.0000204335159
 30
0.0
 40
2.832000078065499
 41
0.0
 71
     7
 72
     1
  1
\fAndale Mono|b0|i0|c0|p34;\W1;Bohrungs-\U+00F8 beachten! Mind drillholes-\U+00F8!
  0
ENDSEC
  0
SECTION
  2
OBJECTS
  0
DICTIONARY
  5
C
330
0
100
AcDbDictionary
  3
ACAD_GROUP
350
D
  3
ACAD_LAYOUT
350
1A
  3
ACAD_MATERIAL
350
3B
  3
ACAD_MLEADERSTYLE
350
F2
  3
ACAD_MLINESTYLE
350
17
  3
ACAD_PLOTSETTINGS
350
19
  3
ACAD_VISUALSTYLE
350
2A
  3
ACDBVARIABLEDICTIONARY
350
F0
1001
ACAD
1000
TREAT_AS_HARD
1070
     0
  0
DICTIONARY
  5
D
102
{ACAD_REACTORS
330
C
102
}
330
C
100
AcDbDictionary
1001
ACAD
1000
TREAT_AS_HARD
1070
     0
  0
DICTIONARY
  5
1A
102
{ACAD_REACTORS
330
C
102
}
330
C
100
AcDbDictionary
1001
ACAD
1000
TREAT_AS_HARD
1070
     0
  0
DICTIONARY
  5
3B
102
{ACAD_REACTORS
330
C
102
}
330
C
100
AcDbDictionary
  3
BYBLOCK
350
3D
  3
BYLAYER
350
3C
  3
GLOBAL
350
3E
1001
ACAD
1000
TREAT_AS_HARD
1070
     0
  0
DICTIONARY
  5
F2
102
{ACAD_REACTORS
330
C
102
}
330
C
100
AcDbDictionary
1001
ACAD
1000
TREAT_AS_HARD
1070
     0
  0
DICTIONARY
  5
17
102
{ACAD_REACTORS
330
C
102
}
330
C
100
AcDbDictionary
  3
STANDARD
350
18
1001
ACAD
1000
TREAT_AS_HARD
1070
     0
  0
DICTIONARY
  5
19
102
{ACAD_REACTORS
330
C
102
}
330
C
100
AcDbDictionary
1001
ACAD
1000
TREAT_AS_HARD
1070
     0
  0
DICTIONARY
  5
2A
102
{ACAD_REACTORS
330
C
102
}
330
C
100
AcDbDictionary
  3
2DWIREFRAME
350
2F
  3
3DWIREFRAME
350
30
  3
3D_HIDDEN
350
31
  3
BASIC
350
32
  3
BRIGHTEN
350
36
  3
COLORCHANGE
350
3A
  3
CONCEPTUAL
350
34
  3
DIM
350
35
  3
FACEPATTERN
350
39
  3
FLAT
350
2B
  3
FLATWITHEDGES
350
2C
  3
GOURAUD
350
2D
  3
GOURAUDWITHEDGES
350
2E
  3
LINEPATTERN
350
38
  3
REALISTIC
350
33
  3
THICKEN
350
37
1001
ACAD
1000
TREAT_AS_HARD
1070
     0
  0
DICTIONARY
  5
F0
102
{ACAD_REACTORS
330
C
102
}
330
C
100
AcDbDictionary
  3
DIMASSOC
350
F3
  3
HIDETEXT
350
F4
1001
ACAD
1000
TREAT_AS_HARD
1070
     0
  0
MATERIAL
  5
3D
102
{ACAD_REACTORS
330
3B
102
}
102
{ACAD_XDICTIONARY
360
F7
102
}
330
3B
100
AcDbMaterial
  1
ByBlock
  0
MATERIAL
  5
3C
102
{ACAD_REACTORS
330
3B
102
}
102
{ACAD_XDICTIONARY
360
F5
102
}
330
3B
100
AcDbMaterial
  1
ByLayer
  0
MATERIAL
  5
3E
102
{ACAD_REACTORS
330
3B
102
}
102
{ACAD_XDICTIONARY
360
F9
102
}
330
3B
100
AcDbMaterial
  1
Global
  0
MLINESTYLE
  5
18
102
{ACAD_REACTORS
330
17
102
}
330
17
100
AcDbMlineStyle
  2
Standard
 70
     0
  3

 62
   256
 51
90.0
 52
90.0
 71
     2
 49
0.5
 62
   256
  6
BYLAYER
 49
-0.5
 62
   256
  6
BYLAYER
  0
ACAD_PROXY_OBJECT
  5
2F
102
{ACAD_REACTORS
330
2A
102
}
330
2A
100
AcDbZombieObject
 90
      499
 91
      501
 93
      436
310
42CC9915DA5C99599C985B595049028333333333333E3BF0000000000000FB0107901411070040501600405405064090741402480A0340
1001
ACAD
1000
AcDbSavedByObjectVersion
1070
     0
  0
ACAD_PROXY_OBJECT
  5
30
102
{ACAD_REACTORS
330
2A
102
}
330
2A
100
AcDbZombieObject
 90
      499
 91
      501
 93
      436
310
42CCD915DA5C99599C985B595059028333333333333E3BF0000000000000FB0107901411070040501600405405064090741402480A0340
1001
ACAD
1000
AcDbSavedByObjectVersion
1070
     0
  0
ACAD_PROXY_OBJECT
  5
31
102
{ACAD_REACTORS
330
2A
102
}
330
2A
100
AcDbZombieObject
 90
      499
 91
      501
 93
      500
310
424CD108121A5919195B90640502408333333333333E3BF0000000000000FB01079024090700405020000000000001110200405405064090740C02480A0340
1001
ACAD
1000
AcDbSavedByObjectVersion
1070
     0
  0
ACAD_PROXY_OBJECT
  5
32
102
{ACAD_REACTORS
330
2A
102
}
330
2A
100
AcDbZombieObject
 90
      499
 91
      501
 93
      388
310
4150985CDA58D07406404333333333333E3BF0000000000000FB0107A41107004050150841D405064090741402480A0350
1001
ACAD
1000
AcDbSavedByObjectVersion
1070
     0
  0
ACAD_PROXY_OBJECT
  5
36
102
{ACAD_REACTORS
330
2A
102
}
330
2A
100
AcDbZombieObject
 90
      499
 91
      501
 93
      428
310
42109C9A59DA1D195B90C409028333333333333E3BF0000000000000FB010790141107004050150841D405064090741402480A029950
1001
ACAD
1000
AcDbSavedByObjectVersion
1070
     0
  0
ACAD_PROXY_OBJECT
  5
3A
102
{ACAD_REACTORS
330
2A
102
}
330
2A
100
AcDbZombieObject
 90
      499
 91
      501
 93
      452
310
42D0DBDB1BDC90DA185B99D95104090240C333333333333E3BF0000000000000FB0108901411070040501508421405064090741402480A0350
1001
ACAD
1000
AcDbSavedByObjectVersion
1070
     0
  0
ACAD_PROXY_OBJECT
  5
34
102
{ACAD_REACTORS
330
2A
102
}
330
2A
100
AcDbZombieObject
 90
      499
 91
      501
 93
      500
310
4290DBDB98D95C1D1D585B10940D028333333333333E3BF0000000000000FB0107902409070040501000000000000111010841D405064090740C02480A0340
1001
ACAD
1000
AcDbSavedByObjectVersion
1070
     0
  0
ACAD_PROXY_OBJECT
  5
35
102
{ACAD_REACTORS
330
2A
102
}
330
2A
100
AcDbZombieObject
 90
      499
 91
      501
 93
      412
310
40D11A5B50B409028333333333333E3BF0000000000000FB010790141107004050150841D405064090741402480A02677FFFFFD0
1001
ACAD
1000
AcDbSavedByObjectVersion
1070
     0
  0
ACAD_PROXY_OBJECT
  5
39
102
{ACAD_REACTORS
330
2A
102
}
330
2A
100
AcDbZombieObject
 90
      499
 91
      501
 93
      444
310
42D19858D95C185D1D195C9B90F409028333333333333E3BF0000000000000FB010790141107004050150841D405064090741402480A0350
1001
ACAD
1000
AcDbSavedByObjectVersion
1070
     0
  0
ACAD_PROXY_OBJECT
  5
2B
102
{ACAD_REACTORS
330
2A
102
}
330
2A
100
AcDbZombieObject
 90
      499
 91
      501
 93
      388
310
41119B185D240901404333333333333E3BF0000000000000F9010740A41107004050150841D405064090741402480A1B50
1001
ACAD
1000
AcDbSavedByObjectVersion
1070
     0
  0
ACAD_PROXY_OBJECT
  5
2C
102
{ACAD_REACTORS
330
2A
102
}
330
2A
100
AcDbZombieObject
 90
      499
 91
      501
 93
      476
310
43519B185D15DA5D1A115919D95CD0140901404333333333333E3BF0000000000000F9010740901411070040501600405405064090741402480A1B50
1001
ACAD
1000
AcDbSavedByObjectVersion
1070
     0
  0
ACAD_PROXY_OBJECT
  5
2D
102
{ACAD_REACTORS
330
2A
102
}
330
2A
100
AcDbZombieObject
 90
      499
 91
      501
 93
      412
310
41D1DBDD5C985D5910240902404333333333333E3BF0000000000000F9010740A411070040501641D405064090741402480A1B50
1001
ACAD
1000
AcDbSavedByObjectVersion
1070
     0
  0
ACAD_PROXY_OBJECT
  5
2E
102
{ACAD_REACTORS
330
2A
102
}
330
2A
100
AcDbZombieObject
 90
      499
 91
      501
 93
      500
310
4411DBDD5C985D5915DA5D1A115919D95CD0340902404333333333333E3BF0000000000000F9010740901411070040501600405405064090741402480A1B50
1001
ACAD
1000
AcDbSavedByObjectVersion
1070
     0
  0
ACAD_PROXY_OBJECT
  5
38
102
{ACAD_REACTORS
330
2A
102
}
330
2A
100
AcDbZombieObject
 90
      499
 91
      501
 93
      444
310
42D31A5B995C185D1D195C9B90E409028333333333333E3BF0000000000000FB010790141107004050750841D405064090741402483A0350
1001
ACAD
1000
AcDbSavedByObjectVersion
1070
     0
  0
ACAD_PROXY_OBJECT
  5
33
102
{ACAD_REACTORS
330
2A
102
}
330
2A
100
AcDbZombieObject
 90
      499
 91
      501
 93
      420
310
425499585B1A5CDD1A58D08409028333333333333E3BF0000000000000FB01079019070040501508421405064090741402480A1B40
1001
ACAD
1000
AcDbSavedByObjectVersion
1070
     0
  0
ACAD_PROXY_OBJECT
  5
37
102
{ACAD_REACTORS
330
2A
102
}
330
2A
100
AcDbZombieObject
 90
      499
 91
      501
 93
      412
310
41D51A1A58DAD95B90D409028333333333333E3BF0000000000000FB010790141107004050150C41D405064090741402480A0350
1001
ACAD
1000
AcDbSavedByObjectVersion
1070
     0
  0
DICTIONARYVAR
  5
F3
102
{ACAD_REACTORS
330
F0
102
}
330
F0
100
DictionaryVariables
280
     0
  1
2
  0
DICTIONARYVAR
  5
F4
102
{ACAD_REACTORS
330
F0
102
}
330
F0
100
DictionaryVariables
280
     0
  1
1
  0
DICTIONARY
  5
F7
330
3D
100
AcDbDictionary
  3
ACAD_XREC_ROUNDTRIP
360
F8
1001
ACAD
1000
TREAT_AS_HARD
1070
     1
  0
DICTIONARY
  5
F5
330
3C
100
AcDbDictionary
  3
ACAD_XREC_ROUNDTRIP
360
F6
1001
ACAD
1000
TREAT_AS_HARD
1070
     1
  0
DICTIONARY
  5
F9
330
3E
100
AcDbDictionary
  3
ACAD_XREC_ROUNDTRIP
360
FA
1001
ACAD
1000
TREAT_AS_HARD
1070
     1
  0
XRECORD
  5
F8
102
{ACAD_REACTORS
330
F7
102
}
330
F7
100
AcDbXrecord
102
MATERIAL
148
0.0
149
0.0
149
0.0
 93
        0
 94
      127
282
     0
 72
     1
 77
     1
171
     1
175
     1
179
     1
273
     0
  0
XRECORD
  5
F6
102
{ACAD_REACTORS
330
F5
102
}
330
F5
100
AcDbXrecord
102
MATERIAL
148
0.0
149
0.0
149
0.0
 93
        0
 94
      127
282
     0
 72
     1
 77
     1
171
     1
175
     1
179
     1
273
     0
  0
XRECORD
  5
FA
102
{ACAD_REACTORS
330
F9
102
}
330
F9
100
AcDbXrecord
102
MATERIAL
148
0.0
149
0.0
149
0.0
 93
        0
 94
      127
282
     0
 72
     1
 77
     1
171
     1
175
     1
179
     1
273
     0
  0
ENDSEC
  0
EOF
