  0
SECTION
  2
HEADER
  9
$ACADVER
  1
AC1012
  9
$DWGCODEPAGE
  3
undefined
  9
$INSBASE
 10
0.0
 20
0.0
 30
0.0
  9
$EXTMIN
 10
1.000000000000000E+20
 20
1.000000000000000E+20
 30
1.000000000000000E+20
  9
$EXTMAX
 10
-1.000000000000000E+20
 20
-1.000000000000000E+20
 30
-1.000000000000000E+20
  9
$LIMMIN
 10
0.0
 20
0.0
  9
$LIMMAX
 10
12.0
 20
9.0
  9
$ORTHOMODE
 70
     0
  9
$REGENMODE
 70
     1
  9
$FILLMODE
 70
     1
  9
$QTEXTMODE
 70
     0
  9
$MIRRTEXT
 70
     1
  9
$DRAGMODE
 70
     2
  9
$LTSCALE
 40
1.0
  9
$OSMODE
 70
    37
  9
$ATTMODE
 70
     1
  9
$TEXTSIZE
 40
0.2
  9
$TRACEWID
 40
0.05
  9
$TEXTSTYLE
  7
STANDARD
  9
$CLAYER
  8
0
  9
$CELTYPE
  6
BYLAYER
  9
$CECOLOR
 62
   256
  9
$CELTSCALE
 40
1.0
  9
$DELOBJ
 70
     1
  9
$DISPSILH
 70
     0
  9
$DIMSCALE
 40
1.0
  9
$DIMASZ
 40
0.18
  9
$DIMEXO
 40
0.0625
  9
$DIMDLI
 40
0.38
  9
$DIMRND
 40
0.0
  9
$DIMDLE
 40
0.0
  9
$DIMEXE
 40
0.18
  9
$DIMTP
 40
0.0
  9
$DIMTM
 40
0.0
  9
$DIMTXT
 40
0.18
  9
$DIMCEN
 40
0.09
  9
$DIMTSZ
 40
0.0
  9
$DIMTOL
 70
     0
  9
$DIMLIM
 70
     0
  9
$DIMTIH
 70
     1
  9
$DIMTOH
 70
     1
  9
$DIMSE1
 70
     0
  9
$DIMSE2
 70
     0
  9
$DIMTAD
 70
     0
  9
$DIMZIN
 70
     0
  9
$DIMBLK
  1

  9
$DIMASO
 70
     1
  9
$DIMSHO
 70
     1
  9
$DIMPOST
  1

  9
$DIMAPOST
  1

  9
$DIMALT
 70
     0
  9
$DIMALTD
 70
     2
  9
$DIMALTF
 40
25.4
  9
$DIMLFAC
 40
1.0
  9
$DIMTOFL
 70
     0
  9
$DIMTVP
 40
0.0
  9
$DIMTIX
 70
     0
  9
$DIMSOXD
 70
     0
  9
$DIMSAH
 70
     0
  9
$DIMBLK1
  1

  9
$DIMBLK2
  1

  9
$DIMSTYLE
  2
STANDARD
  9
$DIMCLRD
 70
     0
  9
$DIMCLRE
 70
     0
  9
$DIMCLRT
 70
     0
  9
$DIMTFAC
 40
1.0
  9
$DIMGAP
 40
0.09
  9
$DIMJUST
 70
     0
  9
$DIMSD1
 70
     0
  9
$DIMSD2
 70
     0
  9
$DIMTOLJ
 70
     1
  9
$DIMTZIN
 70
     0
  9
$DIMALTZ
 70
     0
  9
$DIMALTTZ
 70
     0
  9
$DIMFIT
 70
     3
  9
$DIMUPT
 70
     0
  9
$DIMUNIT
 70
     2
  9
$DIMDEC
 70
     4
  9
$DIMTDEC
 70
     4
  9
$DIMALTU
 70
     2
  9
$DIMALTTD
 70
     2
  9
$DIMTXSTY
  7
STANDARD
  9
$DIMAUNIT
 70
     0
  9
$LUNITS
 70
     2
  9
$LUPREC
 70
     4
  9
$SKETCHINC
 40
0.1
  9
$FILLETRAD
 40
0.5
  9
$AUNITS
 70
     0
  9
$AUPREC
 70
     0
  9
$MENU
  1
.
  9
$ELEVATION
 40
0.0
  9
$PELEVATION
 40
0.0
  9
$THICKNESS
 40
0.0
  9
$LIMCHECK
 70
     0
  9
$CHAMFERA
 40
0.5
  9
$CHAMFERB
 40
0.5
  9
$CHAMFERC
 40
1.0
  9
$CHAMFERD
 40
0.0
  9
$SKPOLY
 70
     0
  9
$TDCREATE
 40
2456764.703854155
  9
$TDUPDATE
 40
2456764.703854155
  9
$TDINDWG
 40
0.0000000116
  9
$TDUSRTIMER
 40
0.0000000116
  9
$USRTIMER
 70
     1
  9
$ANGBASE
 50
0.0
  9
$ANGDIR
 70
     0
  9
$PDMODE
 70
     0
  9
$PDSIZE
 40
0.0
  9
$PLINEWID
 40
0.0
  9
$COORDS
 70
     1
  9
$SPLFRAME
 70
     0
  9
$SPLINETYPE
 70
     6
  9
$SPLINESEGS
 70
     8
  9
$ATTDIA
 70
     0
  9
$ATTREQ
 70
     1
  9
$HANDLING
 70
     1
  9
$HANDSEED
  5
383
  9
$SURFTAB1
 70
     6
  9
$SURFTAB2
 70
     6
  9
$SURFTYPE
 70
     6
  9
$SURFU
 70
     6
  9
$SURFV
 70
     6
  9
$UCSNAME
  2

  9
$UCSORG
 10
0.0
 20
0.0
 30
0.0
  9
$UCSXDIR
 10
1.0
 20
0.0
 30
0.0
  9
$UCSYDIR
 10
0.0
 20
1.0
 30
0.0
  9
$PUCSNAME
  2

  9
$PUCSORG
 10
0.0
 20
0.0
 30
0.0
  9
$PUCSXDIR
 10
1.0
 20
0.0
 30
0.0
  9
$PUCSYDIR
 10
0.0
 20
1.0
 30
0.0
  9
$USERI1
 70
     0
  9
$USERI2
 70
     0
  9
$USERI3
 70
     0
  9
$USERI4
 70
     0
  9
$USERI5
 70
     0
  9
$USERR1
 40
0.0
  9
$USERR2
 40
0.0
  9
$USERR3
 40
0.0
  9
$USERR4
 40
0.0
  9
$USERR5
 40
0.0
  9
$WORLDVIEW
 70
     1
  9
$SHADEDGE
 70
     3
  9
$SHADEDIF
 70
    70
  9
$TILEMODE
 70
     1
  9
$MAXACTVP
 70
    64
  9
$PINSBASE
 10
0.0
 20
0.0
 30
0.0
  9
$PLIMCHECK
 70
     0
  9
$PEXTMIN
 10
1.000000000000000E+20
 20
1.000000000000000E+20
 30
1.000000000000000E+20
  9
$PEXTMAX
 10
-1.000000000000000E+20
 20
-1.000000000000000E+20
 30
-1.000000000000000E+20
  9
$PLIMMIN
 10
0.0
 20
0.0
  9
$PLIMMAX
 10
12.0
 20
9.0
  9
$UNITMODE
 70
     0
  9
$VISRETAIN
 70
     1
  9
$PLINEGEN
 70
     0
  9
$PSLTSCALE
 70
     1
  9
$TREEDEPTH
 70
  3020
  9
$PICKSTYLE
 70
     1
  9
$CMLSTYLE
  2
STANDARD
  9
$CMLJUST
 70
     0
  9
$CMLSCALE
 40
1.0
  9
$SAVEIMAGES
 70
     1
  0
ENDSEC
  0
SECTION
  2
CLASSES
  0
CLASS
  1
ACDBDICTIONARYWDFLT
  2
AcDbDictionaryWithDefault
  3
ObjectDBX Classes
 90
    32768
280
     0
281
     0
  0
CLASS
  1
VISUALSTYLE
  2
AcDbVisualStyle
  3
ObjectDBX Classes
 90
     4095
280
     0
281
     0
  0
CLASS
  1
MATERIAL
  2
AcDbMaterial
  3
ObjectDBX Classes
 90
     1153
280
     0
281
     0
  0
CLASS
  1
SUN
  2
AcDbSun
  3
SCENEOE
 90
     1024
280
     0
281
     0
  0
CLASS
  1
DICTIONARYVAR
  2
AcDbDictionaryVar
  3
ObjectDBX Classes
 90
        0
280
     0
281
     0
  0
CLASS
  1
XRECORD
  2
AcDbXrecord
  3
AutoCAD 2000
 90
    32768
280
     0
281
     0
  0
CLASS
  1
LWPOLYLINE
  2
AcDbPolyline
  3
AutoCAD 2000
 90
    32768
280
     0
281
     1
  0
CLASS
  1
HATCH
  2
AcDbHatch
  3
AutoCAD 2000
 90
    32768
280
     0
281
     1
  0
CLASS
  1
ACDBPLACEHOLDER
  2
AcDbPlaceHolder
  3
ObjectDBX Classes
 90
        0
280
     0
281
     0
  0
CLASS
  1
LAYOUT
  2
AcDbLayout
  3
ObjectDBX Classes
 90
        0
280
     0
281
     0
  0
ENDSEC
  0
SECTION
  2
TABLES
  0
TABLE
  2
VPORT
  5
8
330
0
100
AcDbSymbolTable
 70
     1
  0
VPORT
  5
29
330
8
100
AcDbSymbolTableRecord
100
AcDbViewportTableRecord
  2
*ACTIVE
 70
     0
 10
0.0
 20
0.0
 11
1.0
 21
1.0
 12
0.0
 22
0.0
 13
0.0
 23
0.0
 14
0.5
 24
0.5
 15
0.5
 25
0.5
 16
0.0
 26
0.0
 36
1.0
 17
0.0
 27
0.0
 37
0.0
 40
399.9999999000002
 41
1.0
 42
50.0
 43
0.0
 44
0.0
 50
0.0
 51
0.0
 71
     0
 72
   100
 73
     1
 74
     3
 75
     0
 76
     0
 77
     0
 78
     0
  0
ENDTAB
  0
TABLE
  2
LTYPE
  5
5
330
0
100
AcDbSymbolTable
 70
     1
  0
LTYPE
  5
14
330
5
100
AcDbSymbolTableRecord
100
AcDbLinetypeTableRecord
  2
BYBLOCK
 70
     0
  3

 72
    65
 73
     0
 40
0.0
  0
LTYPE
  5
15
330
5
100
AcDbSymbolTableRecord
100
AcDbLinetypeTableRecord
  2
BYLAYER
 70
     0
  3

 72
    65
 73
     0
 40
0.0
  0
LTYPE
  5
16
330
5
100
AcDbSymbolTableRecord
100
AcDbLinetypeTableRecord
  2
CONTINUOUS
 70
     0
  3
Solid line
 72
    65
 73
     0
 40
0.0
  0
ENDTAB
  0
TABLE
  2
LAYER
  5
2
330
0
100
AcDbSymbolTable
 70
     2
  0
LAYER
  5
10
330
2
100
AcDbSymbolTableRecord
100
AcDbLayerTableRecord
  2
0
 70
     0
 62
     7
  6
CONTINUOUS
  0
LAYER
  5
40
330
2
100
AcDbSymbolTableRecord
100
AcDbLayerTableRecord
  2
EBENE_2
 70
     0
 62
     7
  6
CONTINUOUS
  0
ENDTAB
  0
TABLE
  2
STYLE
  5
3
330
0
100
AcDbSymbolTable
 70
     1
  0
STYLE
  5
11
330
3
100
AcDbSymbolTableRecord
100
AcDbTextStyleTableRecord
  2
STANDARD
 70
     0
 40
0.0
 41
1.0
 50
0.0
 71
     0
 42
0.2
  3
txt
  4

  0
ENDTAB
  0
TABLE
  2
VIEW
  5
6
330
0
100
AcDbSymbolTable
 70
     0
  0
ENDTAB
  0
TABLE
  2
UCS
  5
7
330
0
100
AcDbSymbolTable
 70
     0
  0
ENDTAB
  0
TABLE
  2
APPID
  5
9
330
0
100
AcDbSymbolTable
 70
     1
  0
APPID
  5
12
330
9
100
AcDbSymbolTableRecord
100
AcDbRegAppTableRecord
  2
ACAD
 70
     0
  0
ENDTAB
  0
TABLE
  2
DIMSTYLE
  5
A
330
0
100
AcDbSymbolTable
 70
     1
  0
DIMSTYLE
105
27
330
A
100
AcDbSymbolTableRecord
100
AcDbDimStyleTableRecord
  2
STANDARD
 70
     0
  3

  4

  5

  6

  7

 40
1.0
 41
0.18
 42
0.0625
 43
0.38
 44
0.18
 45
0.0
 46
0.0
 47
0.0
 48
0.0
140
0.18
141
0.09
142
0.0
143
25.4
144
1.0
145
0.0
146
1.0
147
0.09
 71
     0
 72
     0
 73
     1
 74
     1
 75
     0
 76
     0
 77
     0
 78
     0
170
     0
171
     2
172
     0
173
     0
174
     0
175
     0
176
     0
177
     0
178
     0
270
     2
271
     4
272
     4
273
     2
274
     2
340
11
275
     0
280
     0
281
     0
282
     0
283
     1
284
     0
285
     0
286
     0
287
     3
288
     0
  0
ENDTAB
  0
TABLE
  2
BLOCK_RECORD
  5
1
330
0
100
AcDbSymbolTable
 70
     1
  0
BLOCK_RECORD
  5
1F
330
1
100
AcDbSymbolTableRecord
100
AcDbBlockTableRecord
  2
*MODEL_SPACE
  0
BLOCK_RECORD
  5
1B
330
1
100
AcDbSymbolTableRecord
100
AcDbBlockTableRecord
  2
*PAPER_SPACE
  0
ENDTAB
  0
ENDSEC
  0
SECTION
  2
BLOCKS
  0
BLOCK
  5
20
330
1F
100
AcDbEntity
  8
0
100
AcDbBlockBegin
  2
*MODEL_SPACE
 70
     0
 10
0.0
 20
0.0
 30
0.0
  3
*MODEL_SPACE
  1

  0
ENDBLK
  5
21
330
1F
100
AcDbEntity
  8
0
100
AcDbBlockEnd
  0
BLOCK
  5
1C
330
1B
100
AcDbEntity
 67
     1
  8
0
100
AcDbBlockBegin
  2
*PAPER_SPACE
 70
     0
 10
0.0
 20
0.0
 30
0.0
  3
*PAPER_SPACE
  1

  0
ENDBLK
  5
1D
330
1B
100
AcDbEntity
 67
     1
  8
0
100
AcDbBlockEnd
  0
ENDSEC
  0
SECTION
  2
ENTITIES
  0
POLYLINE
  5
41
330
1F
100
AcDbEntity
  8
EBENE_2
 62
   250
100
AcDb2dPolyline
 66
     1
 10
0.0
 20
0.0
 30
0.0
  0
VERTEX
  5
42
330
41
100
AcDbEntity
  8
EBENE_2
 62
   250
100
AcDbVertex
100
AcDb2dVertex
 10
-159.9999799540319
 20
-103.0000069385356
 30
0.0
  0
VERTEX
  5
43
330
41
100
AcDbEntity
  8
EBENE_2
 62
   250
100
AcDbVertex
100
AcDb2dVertex
 10
-159.9999799540319
 20
103.0000069385356
 30
0.0
  0
VERTEX
  5
44
330
41
100
AcDbEntity
  8
EBENE_2
 62
   250
100
AcDbVertex
100
AcDb2dVertex
 10
160.0000199659682
 20
103.0000069385356
 30
0.0
  0
VERTEX
  5
45
330
41
100
AcDbEntity
  8
EBENE_2
 62
   250
100
AcDbVertex
100
AcDb2dVertex
 10
160.0000199659682
 20
-103.0000069385356
 30
0.0
  0
VERTEX
  5
46
330
41
100
AcDbEntity
  8
EBENE_2
 62
   250
100
AcDbVertex
100
AcDb2dVertex
 10
-159.9999799540319
 20
-103.0000069385356
 30
0.0
  0
SEQEND
  5
47
330
41
100
AcDbEntity
  8
EBENE_2
 62
   250
  0
POLYLINE
  5
48
330
1F
100
AcDbEntity
  8
EBENE_2
 62
   250
100
AcDb2dPolyline
 66
     1
 10
0.0
 20
0.0
 30
0.0
  0
VERTEX
  5
49
330
48
100
AcDbEntity
  8
EBENE_2
 62
   250
100
AcDbVertex
100
AcDb2dVertex
 10
-101.9999999745012
 20
19.99999999499995
 30
0.0
  0
VERTEX
  5
4A
330
48
100
AcDbEntity
  8
EBENE_2
 62
   250
100
AcDbVertex
100
AcDb2dVertex
 10
-101.9999999745025
 20
15.99999999600021
 30
0.0
  0
SEQEND
  5
4B
330
48
100
AcDbEntity
  8
EBENE_2
 62
   250
  0
POLYLINE
  5
4C
330
1F
100
AcDbEntity
  8
EBENE_2
 62
   250
100
AcDb2dPolyline
 66
     1
 10
0.0
 20
0.0
 30
0.0
  0
VERTEX
  5
4D
330
4C
100
AcDbEntity
  8
EBENE_2
 62
   250
100
AcDbVertex
100
AcDb2dVertex
 10
-73.99999998150115
 20
19.99999999499995
 30
0.0
  0
VERTEX
  5
4E
330
4C
100
AcDbEntity
  8
EBENE_2
 62
   250
100
AcDbVertex
100
AcDb2dVertex
 10
-101.9999999745012
 20
19.99999999499995
 30
0.0
  0
SEQEND
  5
4F
330
4C
100
AcDbEntity
  8
EBENE_2
 62
   250
  0
POLYLINE
  5
50
330
1F
100
AcDbEntity
  8
EBENE_2
 62
   250
100
AcDb2dPolyline
 66
     1
 10
0.0
 20
0.0
 30
0.0
  0
VERTEX
  5
51
330
50
100
AcDbEntity
  8
EBENE_2
 62
   250
100
AcDbVertex
100
AcDb2dVertex
 10
-73.99999998150115
 20
15.99999999600021
 30
0.0
  0
VERTEX
  5
52
330
50
100
AcDbEntity
  8
EBENE_2
 62
   250
100
AcDbVertex
100
AcDb2dVertex
 10
-73.99999998150115
 20
19.99999999499995
 30
0.0
  0
SEQEND
  5
53
330
50
100
AcDbEntity
  8
EBENE_2
 62
   250
  0
POLYLINE
  5
54
330
1F
100
AcDbEntity
  8
EBENE_2
 62
   250
100
AcDb2dPolyline
 66
     1
 10
0.0
 20
0.0
 30
0.0
  0
VERTEX
  5
55
330
54
100
AcDbEntity
  8
EBENE_2
 62
   250
100
AcDbVertex
100
AcDb2dVertex
 10
-69.99999998250173
 20
15.99999999600021
 30
0.0
  0
VERTEX
  5
56
330
54
100
AcDbEntity
  8
EBENE_2
 62
   250
100
AcDbVertex
100
AcDb2dVertex
 10
-73.99999998150115
 20
15.99999999600021
 30
0.0
  0
SEQEND
  5
57
330
54
100
AcDbEntity
  8
EBENE_2
 62
   250
  0
POLYLINE
  5
58
330
1F
100
AcDbEntity
  8
EBENE_2
 62
   250
100
AcDb2dPolyline
 66
     1
 10
0.0
 20
0.0
 30
0.0
  0
VERTEX
  5
59
330
58
100
AcDbEntity
  8
EBENE_2
 62
   250
100
AcDbVertex
100
AcDb2dVertex
 10
-69.99999998250173
 20
19.99999999499995
 30
0.0
  0
VERTEX
  5
5A
330
58
100
AcDbEntity
  8
EBENE_2
 62
   250
100
AcDbVertex
100
AcDb2dVertex
 10
-69.99999998250173
 20
15.99999999600021
 30
0.0
  0
SEQEND
  5
5B
330
58
100
AcDbEntity
  8
EBENE_2
 62
   250
  0
POLYLINE
  5
5C
330
1F
100
AcDbEntity
  8
EBENE_2
 62
   250
100
AcDb2dPolyline
 66
     1
 10
0.0
 20
0.0
 30
0.0
  0
VERTEX
  5
5D
330
5C
100
AcDbEntity
  8
EBENE_2
 62
   250
100
AcDbVertex
100
AcDb2dVertex
 10
-53.99999998650055
 20
19.99999999499995
 30
0.0
  0
VERTEX
  5
5E
330
5C
100
AcDbEntity
  8
EBENE_2
 62
   250
100
AcDbVertex
100
AcDb2dVertex
 10
-69.99999998250173
 20
19.99999999499995
 30
0.0
  0
SEQEND
  5
5F
330
5C
100
AcDbEntity
  8
EBENE_2
 62
   250
  0
POLYLINE
  5
60
330
1F
100
AcDbEntity
  8
EBENE_2
 62
   250
100
AcDb2dPolyline
 66
     1
 10
0.0
 20
0.0
 30
0.0
  0
VERTEX
  5
61
330
60
100
AcDbEntity
  8
EBENE_2
 62
   250
100
AcDbVertex
100
AcDb2dVertex
 10
-53.99999998650055
 20
15.99999999600021
 30
0.0
  0
VERTEX
  5
62
330
60
100
AcDbEntity
  8
EBENE_2
 62
   250
100
AcDbVertex
100
AcDb2dVertex
 10
-53.99999998650055
 20
19.99999999499995
 30
0.0
  0
SEQEND
  5
63
330
60
100
AcDbEntity
  8
EBENE_2
 62
   250
  0
POLYLINE
  5
64
330
1F
100
AcDbEntity
  8
EBENE_2
 62
   250
100
AcDb2dPolyline
 66
     1
 10
0.0
 20
0.0
 30
0.0
  0
VERTEX
  5
65
330
64
100
AcDbEntity
  8
EBENE_2
 62
   250
100
AcDbVertex
100
AcDb2dVertex
 10
-49.99999998750083
 20
15.99999999600021
 30
0.0
  0
VERTEX
  5
66
330
64
100
AcDbEntity
  8
EBENE_2
 62
   250
100
AcDbVertex
100
AcDb2dVertex
 10
-53.99999998650055
 20
15.99999999600021
 30
0.0
  0
SEQEND
  5
67
330
64
100
AcDbEntity
  8
EBENE_2
 62
   250
  0
POLYLINE
  5
68
330
1F
100
AcDbEntity
  8
EBENE_2
 62
   250
100
AcDb2dPolyline
 66
     1
 10
0.0
 20
0.0
 30
0.0
  0
VERTEX
  5
69
330
68
100
AcDbEntity
  8
EBENE_2
 62
   250
100
AcDbVertex
100
AcDb2dVertex
 10
-49.99999998750083
 20
19.99999999499995
 30
0.0
  0
VERTEX
  5
6A
330
68
100
AcDbEntity
  8
EBENE_2
 62
   250
100
AcDbVertex
100
AcDb2dVertex
 10
-49.99999998750083
 20
15.99999999600021
 30
0.0
  0
SEQEND
  5
6B
330
68
100
AcDbEntity
  8
EBENE_2
 62
   250
  0
POLYLINE
  5
6C
330
1F
100
AcDbEntity
  8
EBENE_2
 62
   250
100
AcDb2dPolyline
 66
     1
 10
0.0
 20
0.0
 30
0.0
  0
VERTEX
  5
6D
330
6C
100
AcDbEntity
  8
EBENE_2
 62
   250
100
AcDbVertex
100
AcDb2dVertex
 10
33.99999999149965
 20
19.99999999499995
 30
0.0
  0
VERTEX
  5
6E
330
6C
100
AcDbEntity
  8
EBENE_2
 62
   250
100
AcDbVertex
100
AcDb2dVertex
 10
-49.99999998750083
 20
19.99999999499995
 30
0.0
  0
SEQEND
  5
6F
330
6C
100
AcDbEntity
  8
EBENE_2
 62
   250
  0
POLYLINE
  5
70
330
1F
100
AcDbEntity
  8
EBENE_2
 62
   250
100
AcDb2dPolyline
 66
     1
 10
0.0
 20
0.0
 30
0.0
  0
VERTEX
  5
71
330
70
100
AcDbEntity
  8
EBENE_2
 62
   250
100
AcDbVertex
100
AcDb2dVertex
 10
33.99999999149965
 20
15.99999999600021
 30
0.0
  0
VERTEX
  5
72
330
70
100
AcDbEntity
  8
EBENE_2
 62
   250
100
AcDbVertex
100
AcDb2dVertex
 10
33.99999999149965
 20
19.99999999499995
 30
0.0
  0
SEQEND
  5
73
330
70
100
AcDbEntity
  8
EBENE_2
 62
   250
  0
POLYLINE
  5
74
330
1F
100
AcDbEntity
  8
EBENE_2
 62
   250
100
AcDb2dPolyline
 66
     1
 10
0.0
 20
0.0
 30
0.0
  0
VERTEX
  5
75
330
74
100
AcDbEntity
  8
EBENE_2
 62
   250
100
AcDbVertex
100
AcDb2dVertex
 10
37.99999999049938
 20
15.99999999600021
 30
0.0
  0
VERTEX
  5
76
330
74
100
AcDbEntity
  8
EBENE_2
 62
   250
100
AcDbVertex
100
AcDb2dVertex
 10
33.99999999149965
 20
15.99999999600021
 30
0.0
  0
SEQEND
  5
77
330
74
100
AcDbEntity
  8
EBENE_2
 62
   250
  0
POLYLINE
  5
78
330
1F
100
AcDbEntity
  8
EBENE_2
 62
   250
100
AcDb2dPolyline
 66
     1
 10
0.0
 20
0.0
 30
0.0
  0
VERTEX
  5
79
330
78
100
AcDbEntity
  8
EBENE_2
 62
   250
100
AcDbVertex
100
AcDb2dVertex
 10
37.99999999049938
 20
19.99999999499995
 30
0.0
  0
VERTEX
  5
7A
330
78
100
AcDbEntity
  8
EBENE_2
 62
   250
100
AcDbVertex
100
AcDb2dVertex
 10
37.99999999049938
 20
15.99999999600021
 30
0.0
  0
SEQEND
  5
7B
330
78
100
AcDbEntity
  8
EBENE_2
 62
   250
  0
POLYLINE
  5
7C
330
1F
100
AcDbEntity
  8
EBENE_2
 62
   250
100
AcDb2dPolyline
 66
     1
 10
0.0
 20
0.0
 30
0.0
  0
VERTEX
  5
7D
330
7C
100
AcDbEntity
  8
EBENE_2
 62
   250
100
AcDbVertex
100
AcDb2dVertex
 10
53.99999998650055
 20
19.99999999499995
 30
0.0
  0
VERTEX
  5
7E
330
7C
100
AcDbEntity
  8
EBENE_2
 62
   250
100
AcDbVertex
100
AcDb2dVertex
 10
37.99999999049938
 20
19.99999999499995
 30
0.0
  0
SEQEND
  5
7F
330
7C
100
AcDbEntity
  8
EBENE_2
 62
   250
  0
POLYLINE
  5
80
330
1F
100
AcDbEntity
  8
EBENE_2
 62
   250
100
AcDb2dPolyline
 66
     1
 10
0.0
 20
0.0
 30
0.0
  0
VERTEX
  5
81
330
80
100
AcDbEntity
  8
EBENE_2
 62
   250
100
AcDbVertex
100
AcDb2dVertex
 10
53.99999998650055
 20
15.99999999600021
 30
0.0
  0
VERTEX
  5
82
330
80
100
AcDbEntity
  8
EBENE_2
 62
   250
100
AcDbVertex
100
AcDb2dVertex
 10
53.99999998650055
 20
19.99999999499995
 30
0.0
  0
SEQEND
  5
83
330
80
100
AcDbEntity
  8
EBENE_2
 62
   250
  0
POLYLINE
  5
84
330
1F
100
AcDbEntity
  8
EBENE_2
 62
   250
100
AcDb2dPolyline
 66
     1
 10
0.0
 20
0.0
 30
0.0
  0
VERTEX
  5
85
330
84
100
AcDbEntity
  8
EBENE_2
 62
   250
100
AcDbVertex
100
AcDb2dVertex
 10
57.99999998549965
 20
15.99999999600021
 30
0.0
  0
VERTEX
  5
86
330
84
100
AcDbEntity
  8
EBENE_2
 62
   250
100
AcDbVertex
100
AcDb2dVertex
 10
53.99999998650055
 20
15.99999999600021
 30
0.0
  0
SEQEND
  5
87
330
84
100
AcDbEntity
  8
EBENE_2
 62
   250
  0
POLYLINE
  5
88
330
1F
100
AcDbEntity
  8
EBENE_2
 62
   250
100
AcDb2dPolyline
 66
     1
 10
0.0
 20
0.0
 30
0.0
  0
VERTEX
  5
89
330
88
100
AcDbEntity
  8
EBENE_2
 62
   250
100
AcDbVertex
100
AcDb2dVertex
 10
57.99999998550093
 20
-3.999999999000053
 30
0.0
  0
VERTEX
  5
8A
330
88
100
AcDbEntity
  8
EBENE_2
 62
   250
100
AcDbVertex
100
AcDb2dVertex
 10
57.99999998549965
 20
15.99999999600021
 30
0.0
  0
SEQEND
  5
8B
330
88
100
AcDbEntity
  8
EBENE_2
 62
   250
  0
POLYLINE
  5
8C
330
1F
100
AcDbEntity
  8
EBENE_2
 62
   250
100
AcDb2dPolyline
 66
     1
 10
0.0
 20
0.0
 30
0.0
  0
VERTEX
  5
8D
330
8C
100
AcDbEntity
  8
EBENE_2
 62
   250
100
AcDbVertex
100
AcDb2dVertex
 10
69.99999998250173
 20
-3.999999999000053
 30
0.0
  0
VERTEX
  5
8E
330
8C
100
AcDbEntity
  8
EBENE_2
 62
   250
100
AcDbVertex
100
AcDb2dVertex
 10
57.99999998550093
 20
-3.999999999000053
 30
0.0
  0
SEQEND
  5
8F
330
8C
100
AcDbEntity
  8
EBENE_2
 62
   250
  0
POLYLINE
  5
90
330
1F
100
AcDbEntity
  8
EBENE_2
 62
   250
100
AcDb2dPolyline
 66
     1
 10
0.0
 20
0.0
 30
0.0
  0
VERTEX
  5
91
330
90
100
AcDbEntity
  8
EBENE_2
 62
   250
100
AcDbVertex
100
AcDb2dVertex
 10
69.99999998250173
 20
15.99999999600021
 30
0.0
  0
VERTEX
  5
92
330
90
100
AcDbEntity
  8
EBENE_2
 62
   250
100
AcDbVertex
100
AcDb2dVertex
 10
69.99999998250173
 20
-3.999999999000053
 30
0.0
  0
SEQEND
  5
93
330
90
100
AcDbEntity
  8
EBENE_2
 62
   250
  0
POLYLINE
  5
94
330
1F
100
AcDbEntity
  8
EBENE_2
 62
   250
100
AcDb2dPolyline
 66
     1
 10
0.0
 20
0.0
 30
0.0
  0
VERTEX
  5
95
330
94
100
AcDbEntity
  8
EBENE_2
 62
   250
100
AcDbVertex
100
AcDb2dVertex
 10
73.99999998150146
 20
15.99999999600021
 30
0.0
  0
VERTEX
  5
96
330
94
100
AcDbEntity
  8
EBENE_2
 62
   250
100
AcDbVertex
100
AcDb2dVertex
 10
69.99999998250173
 20
15.99999999600021
 30
0.0
  0
SEQEND
  5
97
330
94
100
AcDbEntity
  8
EBENE_2
 62
   250
  0
POLYLINE
  5
98
330
1F
100
AcDbEntity
  8
EBENE_2
 62
   250
100
AcDb2dPolyline
 66
     1
 10
0.0
 20
0.0
 30
0.0
  0
VERTEX
  5
99
330
98
100
AcDbEntity
  8
EBENE_2
 62
   250
100
AcDbVertex
100
AcDb2dVertex
 10
73.99999998150146
 20
19.99999999499995
 30
0.0
  0
VERTEX
  5
9A
330
98
100
AcDbEntity
  8
EBENE_2
 62
   250
100
AcDbVertex
100
AcDb2dVertex
 10
73.99999998150146
 20
15.99999999600021
 30
0.0
  0
SEQEND
  5
9B
330
98
100
AcDbEntity
  8
EBENE_2
 62
   250
  0
POLYLINE
  5
9C
330
1F
100
AcDbEntity
  8
EBENE_2
 62
   250
100
AcDb2dPolyline
 66
     1
 10
0.0
 20
0.0
 30
0.0
  0
VERTEX
  5
9D
330
9C
100
AcDbEntity
  8
EBENE_2
 62
   250
100
AcDbVertex
100
AcDb2dVertex
 10
101.9999999745025
 20
19.99999999499995
 30
0.0
  0
VERTEX
  5
9E
330
9C
100
AcDbEntity
  8
EBENE_2
 62
   250
100
AcDbVertex
100
AcDb2dVertex
 10
73.99999998150146
 20
19.99999999499995
 30
0.0
  0
SEQEND
  5
9F
330
9C
100
AcDbEntity
  8
EBENE_2
 62
   250
  0
POLYLINE
  5
A0
330
1F
100
AcDbEntity
  8
EBENE_2
 62
   250
100
AcDb2dPolyline
 66
     1
 10
0.0
 20
0.0
 30
0.0
  0
VERTEX
  5
A1
330
A0
100
AcDbEntity
  8
EBENE_2
 62
   250
100
AcDbVertex
100
AcDb2dVertex
 10
101.9999999745025
 20
15.99999999600021
 30
0.0
  0
VERTEX
  5
A2
330
A0
100
AcDbEntity
  8
EBENE_2
 62
   250
100
AcDbVertex
100
AcDb2dVertex
 10
101.9999999745025
 20
19.99999999499995
 30
0.0
  0
SEQEND
  5
A3
330
A0
100
AcDbEntity
  8
EBENE_2
 62
   250
  0
POLYLINE
  5
A4
330
1F
100
AcDbEntity
  8
EBENE_2
 62
   250
100
AcDb2dPolyline
 66
     1
 10
0.0
 20
0.0
 30
0.0
  0
VERTEX
  5
A5
330
A4
100
AcDbEntity
  8
EBENE_2
 62
   250
100
AcDbVertex
100
AcDb2dVertex
 10
105.9999999735025
 20
15.99999999600021
 30
0.0
  0
VERTEX
  5
A6
330
A4
100
AcDbEntity
  8
EBENE_2
 62
   250
100
AcDbVertex
100
AcDb2dVertex
 10
101.9999999745025
 20
15.99999999600021
 30
0.0
  0
SEQEND
  5
A7
330
A4
100
AcDbEntity
  8
EBENE_2
 62
   250
  0
POLYLINE
  5
A8
330
1F
100
AcDbEntity
  8
EBENE_2
 62
   250
100
AcDb2dPolyline
 66
     1
 10
0.0
 20
0.0
 30
0.0
  0
VERTEX
  5
A9
330
A8
100
AcDbEntity
  8
EBENE_2
 62
   250
100
AcDbVertex
100
AcDb2dVertex
 10
105.9999999735025
 20
19.99999999499995
 30
0.0
  0
VERTEX
  5
AA
330
A8
100
AcDbEntity
  8
EBENE_2
 62
   250
100
AcDbVertex
100
AcDb2dVertex
 10
105.9999999735025
 20
15.99999999600021
 30
0.0
  0
SEQEND
  5
AB
330
A8
100
AcDbEntity
  8
EBENE_2
 62
   250
  0
POLYLINE
  5
AC
330
1F
100
AcDbEntity
  8
EBENE_2
 62
   250
100
AcDb2dPolyline
 66
     1
 10
0.0
 20
0.0
 30
0.0
  0
VERTEX
  5
AD
330
AC
100
AcDbEntity
  8
EBENE_2
 62
   250
100
AcDbVertex
100
AcDb2dVertex
 10
137.999999965502
 20
19.99999999499995
 30
0.0
  0
VERTEX
  5
AE
330
AC
100
AcDbEntity
  8
EBENE_2
 62
   250
100
AcDbVertex
100
AcDb2dVertex
 10
105.9999999735025
 20
19.99999999499995
 30
0.0
  0
SEQEND
  5
AF
330
AC
100
AcDbEntity
  8
EBENE_2
 62
   250
  0
POLYLINE
  5
B0
330
1F
100
AcDbEntity
  8
EBENE_2
 62
   250
100
AcDb2dPolyline
 66
     1
 10
0.0
 20
0.0
 30
0.0
  0
VERTEX
  5
B1
330
B0
100
AcDbEntity
  8
EBENE_2
 62
   250
100
AcDbVertex
100
AcDb2dVertex
 10
137.999999965502
 20
15.99999999600021
 30
0.0
  0
VERTEX
  5
B2
330
B0
100
AcDbEntity
  8
EBENE_2
 62
   250
100
AcDbVertex
100
AcDb2dVertex
 10
137.999999965502
 20
19.99999999499995
 30
0.0
  0
SEQEND
  5
B3
330
B0
100
AcDbEntity
  8
EBENE_2
 62
   250
  0
POLYLINE
  5
B4
330
1F
100
AcDbEntity
  8
EBENE_2
 62
   250
100
AcDb2dPolyline
 66
     1
 10
0.0
 20
0.0
 30
0.0
  0
VERTEX
  5
B5
330
B4
100
AcDbEntity
  8
EBENE_2
 62
   250
100
AcDbVertex
100
AcDb2dVertex
 10
141.9999999645027
 20
15.99999999600021
 30
0.0
  0
VERTEX
  5
B6
330
B4
100
AcDbEntity
  8
EBENE_2
 62
   250
100
AcDbVertex
100
AcDb2dVertex
 10
137.999999965502
 20
15.99999999600021
 30
0.0
  0
SEQEND
  5
B7
330
B4
100
AcDbEntity
  8
EBENE_2
 62
   250
  0
POLYLINE
  5
B8
330
1F
100
AcDbEntity
  8
EBENE_2
 62
   250
100
AcDb2dPolyline
 66
     1
 10
0.0
 20
0.0
 30
0.0
  0
VERTEX
  5
B9
330
B8
100
AcDbEntity
  8
EBENE_2
 62
   250
100
AcDbVertex
100
AcDb2dVertex
 10
141.9999999645027
 20
-3.999999999000053
 30
0.0
  0
VERTEX
  5
BA
330
B8
100
AcDbEntity
  8
EBENE_2
 62
   250
100
AcDbVertex
100
AcDb2dVertex
 10
141.9999999645027
 20
15.99999999600021
 30
0.0
  0
SEQEND
  5
BB
330
B8
100
AcDbEntity
  8
EBENE_2
 62
   250
  0
POLYLINE
  5
BC
330
1F
100
AcDbEntity
  8
EBENE_2
 62
   250
100
AcDb2dPolyline
 66
     1
 10
0.0
 20
0.0
 30
0.0
  0
VERTEX
  5
BD
330
BC
100
AcDbEntity
  8
EBENE_2
 62
   250
100
AcDbVertex
100
AcDb2dVertex
 10
137.999999965502
 20
-3.999999999000053
 30
0.0
  0
VERTEX
  5
BE
330
BC
100
AcDbEntity
  8
EBENE_2
 62
   250
100
AcDbVertex
100
AcDb2dVertex
 10
141.9999999645027
 20
-3.999999999000053
 30
0.0
  0
SEQEND
  5
BF
330
BC
100
AcDbEntity
  8
EBENE_2
 62
   250
  0
POLYLINE
  5
C0
330
1F
100
AcDbEntity
  8
EBENE_2
 62
   250
100
AcDb2dPolyline
 66
     1
 10
0.0
 20
0.0
 30
0.0
  0
VERTEX
  5
C1
330
C0
100
AcDbEntity
  8
EBENE_2
 62
   250
100
AcDbVertex
100
AcDb2dVertex
 10
137.999999965502
 20
-7.999999997999465
 30
0.0
  0
VERTEX
  5
C2
330
C0
100
AcDbEntity
  8
EBENE_2
 62
   250
100
AcDbVertex
100
AcDb2dVertex
 10
137.999999965502
 20
-3.999999999000053
 30
0.0
  0
SEQEND
  5
C3
330
C0
100
AcDbEntity
  8
EBENE_2
 62
   250
  0
POLYLINE
  5
C4
330
1F
100
AcDbEntity
  8
EBENE_2
 62
   250
100
AcDb2dPolyline
 66
     1
 10
0.0
 20
0.0
 30
0.0
  0
VERTEX
  5
C5
330
C4
100
AcDbEntity
  8
EBENE_2
 62
   250
100
AcDbVertex
100
AcDb2dVertex
 10
133.9999999665035
 20
-7.999999997999465
 30
0.0
  0
VERTEX
  5
C6
330
C4
100
AcDbEntity
  8
EBENE_2
 62
   250
100
AcDbVertex
100
AcDb2dVertex
 10
137.999999965502
 20
-7.999999997999465
 30
0.0
  0
SEQEND
  5
C7
330
C4
100
AcDbEntity
  8
EBENE_2
 62
   250
  0
POLYLINE
  5
C8
330
1F
100
AcDbEntity
  8
EBENE_2
 62
   250
100
AcDb2dPolyline
 66
     1
 10
0.0
 20
0.0
 30
0.0
  0
VERTEX
  5
C9
330
C8
100
AcDbEntity
  8
EBENE_2
 62
   250
100
AcDbVertex
100
AcDb2dVertex
 10
133.9999999665035
 20
-19.99999999499995
 30
0.0
  0
VERTEX
  5
CA
330
C8
100
AcDbEntity
  8
EBENE_2
 62
   250
100
AcDbVertex
100
AcDb2dVertex
 10
133.9999999665035
 20
-7.999999997999465
 30
0.0
  0
SEQEND
  5
CB
330
C8
100
AcDbEntity
  8
EBENE_2
 62
   250
  0
POLYLINE
  5
CC
330
1F
100
AcDbEntity
  8
EBENE_2
 62
   250
100
AcDb2dPolyline
 66
     1
 10
0.0
 20
0.0
 30
0.0
  0
VERTEX
  5
CD
330
CC
100
AcDbEntity
  8
EBENE_2
 62
   250
100
AcDbVertex
100
AcDb2dVertex
 10
117.9999999705024
 20
-19.99999999499995
 30
0.0
  0
VERTEX
  5
CE
330
CC
100
AcDbEntity
  8
EBENE_2
 62
   250
100
AcDbVertex
100
AcDb2dVertex
 10
133.9999999665035
 20
-19.99999999499995
 30
0.0
  0
SEQEND
  5
CF
330
CC
100
AcDbEntity
  8
EBENE_2
 62
   250
  0
POLYLINE
  5
D0
330
1F
100
AcDbEntity
  8
EBENE_2
 62
   250
100
AcDb2dPolyline
 66
     1
 10
0.0
 20
0.0
 30
0.0
  0
VERTEX
  5
D1
330
D0
100
AcDbEntity
  8
EBENE_2
 62
   250
100
AcDbVertex
100
AcDb2dVertex
 10
117.9999999705024
 20
-15.99999999600085
 30
0.0
  0
VERTEX
  5
D2
330
D0
100
AcDbEntity
  8
EBENE_2
 62
   250
100
AcDbVertex
100
AcDb2dVertex
 10
117.9999999705024
 20
-19.99999999499995
 30
0.0
  0
SEQEND
  5
D3
330
D0
100
AcDbEntity
  8
EBENE_2
 62
   250
  0
POLYLINE
  5
D4
330
1F
100
AcDbEntity
  8
EBENE_2
 62
   250
100
AcDb2dPolyline
 66
     1
 10
0.0
 20
0.0
 30
0.0
  0
VERTEX
  5
D5
330
D4
100
AcDbEntity
  8
EBENE_2
 62
   250
100
AcDbVertex
100
AcDb2dVertex
 10
113.999999971503
 20
-15.99999999600085
 30
0.0
  0
VERTEX
  5
D6
330
D4
100
AcDbEntity
  8
EBENE_2
 62
   250
100
AcDbVertex
100
AcDb2dVertex
 10
117.9999999705024
 20
-15.99999999600085
 30
0.0
  0
SEQEND
  5
D7
330
D4
100
AcDbEntity
  8
EBENE_2
 62
   250
  0
POLYLINE
  5
D8
330
1F
100
AcDbEntity
  8
EBENE_2
 62
   250
100
AcDb2dPolyline
 66
     1
 10
0.0
 20
0.0
 30
0.0
  0
VERTEX
  5
D9
330
D8
100
AcDbEntity
  8
EBENE_2
 62
   250
100
AcDbVertex
100
AcDb2dVertex
 10
113.999999971503
 20
-3.999999999000053
 30
0.0
  0
VERTEX
  5
DA
330
D8
100
AcDbEntity
  8
EBENE_2
 62
   250
100
AcDbVertex
100
AcDb2dVertex
 10
113.999999971503
 20
-15.99999999600085
 30
0.0
  0
SEQEND
  5
DB
330
D8
100
AcDbEntity
  8
EBENE_2
 62
   250
  0
POLYLINE
  5
DC
330
1F
100
AcDbEntity
  8
EBENE_2
 62
   250
100
AcDb2dPolyline
 66
     1
 10
0.0
 20
0.0
 30
0.0
  0
VERTEX
  5
DD
330
DC
100
AcDbEntity
  8
EBENE_2
 62
   250
100
AcDbVertex
100
AcDb2dVertex
 10
109.9999999725026
 20
-3.999999999000053
 30
0.0
  0
VERTEX
  5
DE
330
DC
100
AcDbEntity
  8
EBENE_2
 62
   250
100
AcDbVertex
100
AcDb2dVertex
 10
113.999999971503
 20
-3.999999999000053
 30
0.0
  0
SEQEND
  5
DF
330
DC
100
AcDbEntity
  8
EBENE_2
 62
   250
  0
POLYLINE
  5
E0
330
1F
100
AcDbEntity
  8
EBENE_2
 62
   250
100
AcDb2dPolyline
 66
     1
 10
0.0
 20
0.0
 30
0.0
  0
VERTEX
  5
E1
330
E0
100
AcDbEntity
  8
EBENE_2
 62
   250
100
AcDbVertex
100
AcDb2dVertex
 10
109.9999999725026
 20
-19.99999999499995
 30
0.0
  0
VERTEX
  5
E2
330
E0
100
AcDbEntity
  8
EBENE_2
 62
   250
100
AcDbVertex
100
AcDb2dVertex
 10
109.9999999725026
 20
-3.999999999000053
 30
0.0
  0
SEQEND
  5
E3
330
E0
100
AcDbEntity
  8
EBENE_2
 62
   250
  0
POLYLINE
  5
E4
330
1F
100
AcDbEntity
  8
EBENE_2
 62
   250
100
AcDb2dPolyline
 66
     1
 10
0.0
 20
0.0
 30
0.0
  0
VERTEX
  5
E5
330
E4
100
AcDbEntity
  8
EBENE_2
 62
   250
100
AcDbVertex
100
AcDb2dVertex
 10
93.99999997650109
 20
-19.99999999499995
 30
0.0
  0
VERTEX
  5
E6
330
E4
100
AcDbEntity
  8
EBENE_2
 62
   250
100
AcDbVertex
100
AcDb2dVertex
 10
109.9999999725026
 20
-19.99999999499995
 30
0.0
  0
SEQEND
  5
E7
330
E4
100
AcDbEntity
  8
EBENE_2
 62
   250
  0
POLYLINE
  5
E8
330
1F
100
AcDbEntity
  8
EBENE_2
 62
   250
100
AcDb2dPolyline
 66
     1
 10
0.0
 20
0.0
 30
0.0
  0
VERTEX
  5
E9
330
E8
100
AcDbEntity
  8
EBENE_2
 62
   250
100
AcDbVertex
100
AcDb2dVertex
 10
93.99999997650109
 20
-15.99999999600085
 30
0.0
  0
VERTEX
  5
EA
330
E8
100
AcDbEntity
  8
EBENE_2
 62
   250
100
AcDbVertex
100
AcDb2dVertex
 10
93.99999997650109
 20
-19.99999999499995
 30
0.0
  0
SEQEND
  5
EB
330
E8
100
AcDbEntity
  8
EBENE_2
 62
   250
  0
POLYLINE
  5
EC
330
1F
100
AcDbEntity
  8
EBENE_2
 62
   250
100
AcDb2dPolyline
 66
     1
 10
0.0
 20
0.0
 30
0.0
  0
VERTEX
  5
ED
330
EC
100
AcDbEntity
  8
EBENE_2
 62
   250
100
AcDbVertex
100
AcDb2dVertex
 10
89.99999997750103
 20
-15.99999999600085
 30
0.0
  0
VERTEX
  5
EE
330
EC
100
AcDbEntity
  8
EBENE_2
 62
   250
100
AcDbVertex
100
AcDb2dVertex
 10
93.99999997650109
 20
-15.99999999600085
 30
0.0
  0
SEQEND
  5
EF
330
EC
100
AcDbEntity
  8
EBENE_2
 62
   250
  0
POLYLINE
  5
F0
330
1F
100
AcDbEntity
  8
EBENE_2
 62
   250
100
AcDb2dPolyline
 66
     1
 10
0.0
 20
0.0
 30
0.0
  0
VERTEX
  5
F1
330
F0
100
AcDbEntity
  8
EBENE_2
 62
   250
100
AcDbVertex
100
AcDb2dVertex
 10
89.99999997750103
 20
-19.99999999499995
 30
0.0
  0
VERTEX
  5
F2
330
F0
100
AcDbEntity
  8
EBENE_2
 62
   250
100
AcDbVertex
100
AcDb2dVertex
 10
89.99999997750103
 20
-15.99999999600085
 30
0.0
  0
SEQEND
  5
F3
330
F0
100
AcDbEntity
  8
EBENE_2
 62
   250
  0
POLYLINE
  5
F4
330
1F
100
AcDbEntity
  8
EBENE_2
 62
   250
100
AcDb2dPolyline
 66
     1
 10
0.0
 20
0.0
 30
0.0
  0
VERTEX
  5
F5
330
F4
100
AcDbEntity
  8
EBENE_2
 62
   250
100
AcDbVertex
100
AcDb2dVertex
 10
25.99999999350115
 20
-19.99999999499995
 30
0.0
  0
VERTEX
  5
F6
330
F4
100
AcDbEntity
  8
EBENE_2
 62
   250
100
AcDbVertex
100
AcDb2dVertex
 10
89.99999997750103
 20
-19.99999999499995
 30
0.0
  0
SEQEND
  5
F7
330
F4
100
AcDbEntity
  8
EBENE_2
 62
   250
  0
POLYLINE
  5
F8
330
1F
100
AcDbEntity
  8
EBENE_2
 62
   250
100
AcDb2dPolyline
 66
     1
 10
0.0
 20
0.0
 30
0.0
  0
VERTEX
  5
F9
330
F8
100
AcDbEntity
  8
EBENE_2
 62
   250
100
AcDbVertex
100
AcDb2dVertex
 10
25.99999999350115
 20
-15.99999999600085
 30
0.0
  0
VERTEX
  5
FA
330
F8
100
AcDbEntity
  8
EBENE_2
 62
   250
100
AcDbVertex
100
AcDb2dVertex
 10
25.99999999350115
 20
-19.99999999499995
 30
0.0
  0
SEQEND
  5
FB
330
F8
100
AcDbEntity
  8
EBENE_2
 62
   250
  0
POLYLINE
  5
FC
330
1F
100
AcDbEntity
  8
EBENE_2
 62
   250
100
AcDb2dPolyline
 66
     1
 10
0.0
 20
0.0
 30
0.0
  0
VERTEX
  5
FD
330
FC
100
AcDbEntity
  8
EBENE_2
 62
   250
100
AcDbVertex
100
AcDb2dVertex
 10
21.9999999945011
 20
-15.99999999600085
 30
0.0
  0
VERTEX
  5
FE
330
FC
100
AcDbEntity
  8
EBENE_2
 62
   250
100
AcDbVertex
100
AcDb2dVertex
 10
25.99999999350115
 20
-15.99999999600085
 30
0.0
  0
SEQEND
  5
FF
330
FC
100
AcDbEntity
  8
EBENE_2
 62
   250
  0
POLYLINE
  5
100
330
1F
100
AcDbEntity
  8
EBENE_2
 62
   250
100
AcDb2dPolyline
 66
     1
 10
0.0
 20
0.0
 30
0.0
  0
VERTEX
  5
101
330
100
100
AcDbEntity
  8
EBENE_2
 62
   250
100
AcDbVertex
100
AcDb2dVertex
 10
21.9999999945011
 20
-19.99999999499995
 30
0.0
  0
VERTEX
  5
102
330
100
100
AcDbEntity
  8
EBENE_2
 62
   250
100
AcDbVertex
100
AcDb2dVertex
 10
21.9999999945011
 20
-15.99999999600085
 30
0.0
  0
SEQEND
  5
103
330
100
100
AcDbEntity
  8
EBENE_2
 62
   250
  0
POLYLINE
  5
104
330
1F
100
AcDbEntity
  8
EBENE_2
 62
   250
100
AcDb2dPolyline
 66
     1
 10
0.0
 20
0.0
 30
0.0
  0
VERTEX
  5
105
330
104
100
AcDbEntity
  8
EBENE_2
 62
   250
100
AcDbVertex
100
AcDb2dVertex
 10
-29.99999999249992
 20
-19.99999999499995
 30
0.0
  0
VERTEX
  5
106
330
104
100
AcDbEntity
  8
EBENE_2
 62
   250
100
AcDbVertex
100
AcDb2dVertex
 10
21.9999999945011
 20
-19.99999999499995
 30
0.0
  0
SEQEND
  5
107
330
104
100
AcDbEntity
  8
EBENE_2
 62
   250
  0
POLYLINE
  5
108
330
1F
100
AcDbEntity
  8
EBENE_2
 62
   250
100
AcDb2dPolyline
 66
     1
 10
0.0
 20
0.0
 30
0.0
  0
VERTEX
  5
109
330
108
100
AcDbEntity
  8
EBENE_2
 62
   250
100
AcDbVertex
100
AcDb2dVertex
 10
-29.99999999249992
 20
-15.99999999600085
 30
0.0
  0
VERTEX
  5
10A
330
108
100
AcDbEntity
  8
EBENE_2
 62
   250
100
AcDbVertex
100
AcDb2dVertex
 10
-29.99999999249992
 20
-19.99999999499995
 30
0.0
  0
SEQEND
  5
10B
330
108
100
AcDbEntity
  8
EBENE_2
 62
   250
  0
POLYLINE
  5
10C
330
1F
100
AcDbEntity
  8
EBENE_2
 62
   250
100
AcDb2dPolyline
 66
     1
 10
0.0
 20
0.0
 30
0.0
  0
VERTEX
  5
10D
330
10C
100
AcDbEntity
  8
EBENE_2
 62
   250
100
AcDbVertex
100
AcDb2dVertex
 10
-33.99999999149997
 20
-15.99999999600085
 30
0.0
  0
VERTEX
  5
10E
330
10C
100
AcDbEntity
  8
EBENE_2
 62
   250
100
AcDbVertex
100
AcDb2dVertex
 10
-29.99999999249992
 20
-15.99999999600085
 30
0.0
  0
SEQEND
  5
10F
330
10C
100
AcDbEntity
  8
EBENE_2
 62
   250
  0
POLYLINE
  5
110
330
1F
100
AcDbEntity
  8
EBENE_2
 62
   250
100
AcDb2dPolyline
 66
     1
 10
0.0
 20
0.0
 30
0.0
  0
VERTEX
  5
111
330
110
100
AcDbEntity
  8
EBENE_2
 62
   250
100
AcDbVertex
100
AcDb2dVertex
 10
-33.99999999149997
 20
-11.99999999699952
 30
0.0
  0
VERTEX
  5
112
330
110
100
AcDbEntity
  8
EBENE_2
 62
   250
100
AcDbVertex
100
AcDb2dVertex
 10
-33.99999999149997
 20
-15.99999999600085
 30
0.0
  0
SEQEND
  5
113
330
110
100
AcDbEntity
  8
EBENE_2
 62
   250
  0
POLYLINE
  5
114
330
1F
100
AcDbEntity
  8
EBENE_2
 62
   250
100
AcDb2dPolyline
 66
     1
 10
0.0
 20
0.0
 30
0.0
  0
VERTEX
  5
115
330
114
100
AcDbEntity
  8
EBENE_2
 62
   250
100
AcDbVertex
100
AcDb2dVertex
 10
-37.99999999049938
 20
-11.99999999699952
 30
0.0
  0
VERTEX
  5
116
330
114
100
AcDbEntity
  8
EBENE_2
 62
   250
100
AcDbVertex
100
AcDb2dVertex
 10
-33.99999999149997
 20
-11.99999999699952
 30
0.0
  0
SEQEND
  5
117
330
114
100
AcDbEntity
  8
EBENE_2
 62
   250
  0
POLYLINE
  5
118
330
1F
100
AcDbEntity
  8
EBENE_2
 62
   250
100
AcDb2dPolyline
 66
     1
 10
0.0
 20
0.0
 30
0.0
  0
VERTEX
  5
119
330
118
100
AcDbEntity
  8
EBENE_2
 62
   250
100
AcDbVertex
100
AcDb2dVertex
 10
-37.99999999049938
 20
-15.99999999600085
 30
0.0
  0
VERTEX
  5
11A
330
118
100
AcDbEntity
  8
EBENE_2
 62
   250
100
AcDbVertex
100
AcDb2dVertex
 10
-37.99999999049938
 20
-11.99999999699952
 30
0.0
  0
SEQEND
  5
11B
330
118
100
AcDbEntity
  8
EBENE_2
 62
   250
  0
POLYLINE
  5
11C
330
1F
100
AcDbEntity
  8
EBENE_2
 62
   250
100
AcDb2dPolyline
 66
     1
 10
0.0
 20
0.0
 30
0.0
  0
VERTEX
  5
11D
330
11C
100
AcDbEntity
  8
EBENE_2
 62
   250
100
AcDbVertex
100
AcDb2dVertex
 10
-41.99999998950008
 20
-15.99999999600085
 30
0.0
  0
VERTEX
  5
11E
330
11C
100
AcDbEntity
  8
EBENE_2
 62
   250
100
AcDbVertex
100
AcDb2dVertex
 10
-37.99999999049938
 20
-15.99999999600085
 30
0.0
  0
SEQEND
  5
11F
330
11C
100
AcDbEntity
  8
EBENE_2
 62
   250
  0
POLYLINE
  5
120
330
1F
100
AcDbEntity
  8
EBENE_2
 62
   250
100
AcDb2dPolyline
 66
     1
 10
0.0
 20
0.0
 30
0.0
  0
VERTEX
  5
121
330
120
100
AcDbEntity
  8
EBENE_2
 62
   250
100
AcDbVertex
100
AcDb2dVertex
 10
-41.99999998950008
 20
-19.99999999499995
 30
0.0
  0
VERTEX
  5
122
330
120
100
AcDbEntity
  8
EBENE_2
 62
   250
100
AcDbVertex
100
AcDb2dVertex
 10
-41.99999998950008
 20
-15.99999999600085
 30
0.0
  0
SEQEND
  5
123
330
120
100
AcDbEntity
  8
EBENE_2
 62
   250
  0
POLYLINE
  5
124
330
1F
100
AcDbEntity
  8
EBENE_2
 62
   250
100
AcDb2dPolyline
 66
     1
 10
0.0
 20
0.0
 30
0.0
  0
VERTEX
  5
125
330
124
100
AcDbEntity
  8
EBENE_2
 62
   250
100
AcDbVertex
100
AcDb2dVertex
 10
-53.99999998650055
 20
-19.99999999499995
 30
0.0
  0
VERTEX
  5
126
330
124
100
AcDbEntity
  8
EBENE_2
 62
   250
100
AcDbVertex
100
AcDb2dVertex
 10
-41.99999998950008
 20
-19.99999999499995
 30
0.0
  0
SEQEND
  5
127
330
124
100
AcDbEntity
  8
EBENE_2
 62
   250
  0
POLYLINE
  5
128
330
1F
100
AcDbEntity
  8
EBENE_2
 62
   250
100
AcDb2dPolyline
 66
     1
 10
0.0
 20
0.0
 30
0.0
  0
VERTEX
  5
129
330
128
100
AcDbEntity
  8
EBENE_2
 62
   250
100
AcDbVertex
100
AcDb2dVertex
 10
-53.99999998650055
 20
-15.99999999600085
 30
0.0
  0
VERTEX
  5
12A
330
128
100
AcDbEntity
  8
EBENE_2
 62
   250
100
AcDbVertex
100
AcDb2dVertex
 10
-53.99999998650055
 20
-19.99999999499995
 30
0.0
  0
SEQEND
  5
12B
330
128
100
AcDbEntity
  8
EBENE_2
 62
   250
  0
POLYLINE
  5
12C
330
1F
100
AcDbEntity
  8
EBENE_2
 62
   250
100
AcDb2dPolyline
 66
     1
 10
0.0
 20
0.0
 30
0.0
  0
VERTEX
  5
12D
330
12C
100
AcDbEntity
  8
EBENE_2
 62
   250
100
AcDbVertex
100
AcDb2dVertex
 10
-57.99999998550029
 20
-15.99999999600085
 30
0.0
  0
VERTEX
  5
12E
330
12C
100
AcDbEntity
  8
EBENE_2
 62
   250
100
AcDbVertex
100
AcDb2dVertex
 10
-53.99999998650055
 20
-15.99999999600085
 30
0.0
  0
SEQEND
  5
12F
330
12C
100
AcDbEntity
  8
EBENE_2
 62
   250
  0
POLYLINE
  5
130
330
1F
100
AcDbEntity
  8
EBENE_2
 62
   250
100
AcDb2dPolyline
 66
     1
 10
0.0
 20
0.0
 30
0.0
  0
VERTEX
  5
131
330
130
100
AcDbEntity
  8
EBENE_2
 62
   250
100
AcDbVertex
100
AcDb2dVertex
 10
-57.99999998550029
 20
-11.99999999699952
 30
0.0
  0
VERTEX
  5
132
330
130
100
AcDbEntity
  8
EBENE_2
 62
   250
100
AcDbVertex
100
AcDb2dVertex
 10
-57.99999998550029
 20
-15.99999999600085
 30
0.0
  0
SEQEND
  5
133
330
130
100
AcDbEntity
  8
EBENE_2
 62
   250
  0
POLYLINE
  5
134
330
1F
100
AcDbEntity
  8
EBENE_2
 62
   250
100
AcDb2dPolyline
 66
     1
 10
0.0
 20
0.0
 30
0.0
  0
VERTEX
  5
135
330
134
100
AcDbEntity
  8
EBENE_2
 62
   250
100
AcDbVertex
100
AcDb2dVertex
 10
-61.99999998450163
 20
-11.99999999699952
 30
0.0
  0
VERTEX
  5
136
330
134
100
AcDbEntity
  8
EBENE_2
 62
   250
100
AcDbVertex
100
AcDb2dVertex
 10
-57.99999998550029
 20
-11.99999999699952
 30
0.0
  0
SEQEND
  5
137
330
134
100
AcDbEntity
  8
EBENE_2
 62
   250
  0
POLYLINE
  5
138
330
1F
100
AcDbEntity
  8
EBENE_2
 62
   250
100
AcDb2dPolyline
 66
     1
 10
0.0
 20
0.0
 30
0.0
  0
VERTEX
  5
139
330
138
100
AcDbEntity
  8
EBENE_2
 62
   250
100
AcDbVertex
100
AcDb2dVertex
 10
-61.99999998450163
 20
-7.999999997999465
 30
0.0
  0
VERTEX
  5
13A
330
138
100
AcDbEntity
  8
EBENE_2
 62
   250
100
AcDbVertex
100
AcDb2dVertex
 10
-61.99999998450163
 20
-11.99999999699952
 30
0.0
  0
SEQEND
  5
13B
330
138
100
AcDbEntity
  8
EBENE_2
 62
   250
  0
POLYLINE
  5
13C
330
1F
100
AcDbEntity
  8
EBENE_2
 62
   250
100
AcDb2dPolyline
 66
     1
 10
0.0
 20
0.0
 30
0.0
  0
VERTEX
  5
13D
330
13C
100
AcDbEntity
  8
EBENE_2
 62
   250
100
AcDbVertex
100
AcDb2dVertex
 10
-65.99999998350168
 20
-7.999999997999465
 30
0.0
  0
VERTEX
  5
13E
330
13C
100
AcDbEntity
  8
EBENE_2
 62
   250
100
AcDbVertex
100
AcDb2dVertex
 10
-61.99999998450163
 20
-7.999999997999465
 30
0.0
  0
SEQEND
  5
13F
330
13C
100
AcDbEntity
  8
EBENE_2
 62
   250
  0
POLYLINE
  5
140
330
1F
100
AcDbEntity
  8
EBENE_2
 62
   250
100
AcDb2dPolyline
 66
     1
 10
0.0
 20
0.0
 30
0.0
  0
VERTEX
  5
141
330
140
100
AcDbEntity
  8
EBENE_2
 62
   250
100
AcDbVertex
100
AcDb2dVertex
 10
-65.99999998350168
 20
-15.99999999600085
 30
0.0
  0
VERTEX
  5
142
330
140
100
AcDbEntity
  8
EBENE_2
 62
   250
100
AcDbVertex
100
AcDb2dVertex
 10
-65.99999998350168
 20
-7.999999997999465
 30
0.0
  0
SEQEND
  5
143
330
140
100
AcDbEntity
  8
EBENE_2
 62
   250
  0
POLYLINE
  5
144
330
1F
100
AcDbEntity
  8
EBENE_2
 62
   250
100
AcDb2dPolyline
 66
     1
 10
0.0
 20
0.0
 30
0.0
  0
VERTEX
  5
145
330
144
100
AcDbEntity
  8
EBENE_2
 62
   250
100
AcDbVertex
100
AcDb2dVertex
 10
-69.99999998250173
 20
-15.99999999600085
 30
0.0
  0
VERTEX
  5
146
330
144
100
AcDbEntity
  8
EBENE_2
 62
   250
100
AcDbVertex
100
AcDb2dVertex
 10
-65.99999998350168
 20
-15.99999999600085
 30
0.0
  0
SEQEND
  5
147
330
144
100
AcDbEntity
  8
EBENE_2
 62
   250
  0
POLYLINE
  5
148
330
1F
100
AcDbEntity
  8
EBENE_2
 62
   250
100
AcDb2dPolyline
 66
     1
 10
0.0
 20
0.0
 30
0.0
  0
VERTEX
  5
149
330
148
100
AcDbEntity
  8
EBENE_2
 62
   250
100
AcDbVertex
100
AcDb2dVertex
 10
-69.99999998250173
 20
-19.99999999499995
 30
0.0
  0
VERTEX
  5
14A
330
148
100
AcDbEntity
  8
EBENE_2
 62
   250
100
AcDbVertex
100
AcDb2dVertex
 10
-69.99999998250173
 20
-15.99999999600085
 30
0.0
  0
SEQEND
  5
14B
330
148
100
AcDbEntity
  8
EBENE_2
 62
   250
  0
POLYLINE
  5
14C
330
1F
100
AcDbEntity
  8
EBENE_2
 62
   250
100
AcDb2dPolyline
 66
     1
 10
0.0
 20
0.0
 30
0.0
  0
VERTEX
  5
14D
330
14C
100
AcDbEntity
  8
EBENE_2
 62
   250
100
AcDbVertex
100
AcDb2dVertex
 10
-97.9999999755021
 20
-19.99999999499995
 30
0.0
  0
VERTEX
  5
14E
330
14C
100
AcDbEntity
  8
EBENE_2
 62
   250
100
AcDbVertex
100
AcDb2dVertex
 10
-69.99999998250173
 20
-19.99999999499995
 30
0.0
  0
SEQEND
  5
14F
330
14C
100
AcDbEntity
  8
EBENE_2
 62
   250
  0
POLYLINE
  5
150
330
1F
100
AcDbEntity
  8
EBENE_2
 62
   250
100
AcDb2dPolyline
 66
     1
 10
0.0
 20
0.0
 30
0.0
  0
VERTEX
  5
151
330
150
100
AcDbEntity
  8
EBENE_2
 62
   250
100
AcDbVertex
100
AcDb2dVertex
 10
-97.9999999755021
 20
-15.99999999600085
 30
0.0
  0
VERTEX
  5
152
330
150
100
AcDbEntity
  8
EBENE_2
 62
   250
100
AcDbVertex
100
AcDb2dVertex
 10
-97.9999999755021
 20
-19.99999999499995
 30
0.0
  0
SEQEND
  5
153
330
150
100
AcDbEntity
  8
EBENE_2
 62
   250
  0
POLYLINE
  5
154
330
1F
100
AcDbEntity
  8
EBENE_2
 62
   250
100
AcDb2dPolyline
 66
     1
 10
0.0
 20
0.0
 30
0.0
  0
VERTEX
  5
155
330
154
100
AcDbEntity
  8
EBENE_2
 62
   250
100
AcDbVertex
100
AcDb2dVertex
 10
-101.9999999745025
 20
-15.99999999600085
 30
0.0
  0
VERTEX
  5
156
330
154
100
AcDbEntity
  8
EBENE_2
 62
   250
100
AcDbVertex
100
AcDb2dVertex
 10
-97.9999999755021
 20
-15.99999999600085
 30
0.0
  0
SEQEND
  5
157
330
154
100
AcDbEntity
  8
EBENE_2
 62
   250
  0
POLYLINE
  5
158
330
1F
100
AcDbEntity
  8
EBENE_2
 62
   250
100
AcDb2dPolyline
 66
     1
 10
0.0
 20
0.0
 30
0.0
  0
VERTEX
  5
159
330
158
100
AcDbEntity
  8
EBENE_2
 62
   250
100
AcDbVertex
100
AcDb2dVertex
 10
-101.9999999745025
 20
-19.99999999499995
 30
0.0
  0
VERTEX
  5
15A
330
158
100
AcDbEntity
  8
EBENE_2
 62
   250
100
AcDbVertex
100
AcDb2dVertex
 10
-101.9999999745025
 20
-15.99999999600085
 30
0.0
  0
SEQEND
  5
15B
330
158
100
AcDbEntity
  8
EBENE_2
 62
   250
  0
POLYLINE
  5
15C
330
1F
100
AcDbEntity
  8
EBENE_2
 62
   250
100
AcDb2dPolyline
 66
     1
 10
0.0
 20
0.0
 30
0.0
  0
VERTEX
  5
15D
330
15C
100
AcDbEntity
  8
EBENE_2
 62
   250
100
AcDbVertex
100
AcDb2dVertex
 10
-117.999999970502
 20
-19.99999999499995
 30
0.0
  0
VERTEX
  5
15E
330
15C
100
AcDbEntity
  8
EBENE_2
 62
   250
100
AcDbVertex
100
AcDb2dVertex
 10
-101.9999999745025
 20
-19.99999999499995
 30
0.0
  0
SEQEND
  5
15F
330
15C
100
AcDbEntity
  8
EBENE_2
 62
   250
  0
POLYLINE
  5
160
330
1F
100
AcDbEntity
  8
EBENE_2
 62
   250
100
AcDb2dPolyline
 66
     1
 10
0.0
 20
0.0
 30
0.0
  0
VERTEX
  5
161
330
160
100
AcDbEntity
  8
EBENE_2
 62
   250
100
AcDbVertex
100
AcDb2dVertex
 10
-117.999999970502
 20
-15.99999999600085
 30
0.0
  0
VERTEX
  5
162
330
160
100
AcDbEntity
  8
EBENE_2
 62
   250
100
AcDbVertex
100
AcDb2dVertex
 10
-117.999999970502
 20
-19.99999999499995
 30
0.0
  0
SEQEND
  5
163
330
160
100
AcDbEntity
  8
EBENE_2
 62
   250
  0
POLYLINE
  5
164
330
1F
100
AcDbEntity
  8
EBENE_2
 62
   250
100
AcDb2dPolyline
 66
     1
 10
0.0
 20
0.0
 30
0.0
  0
VERTEX
  5
165
330
164
100
AcDbEntity
  8
EBENE_2
 62
   250
100
AcDbVertex
100
AcDb2dVertex
 10
-121.9999999695024
 20
-15.99999999600085
 30
0.0
  0
VERTEX
  5
166
330
164
100
AcDbEntity
  8
EBENE_2
 62
   250
100
AcDbVertex
100
AcDb2dVertex
 10
-117.999999970502
 20
-15.99999999600085
 30
0.0
  0
SEQEND
  5
167
330
164
100
AcDbEntity
  8
EBENE_2
 62
   250
  0
POLYLINE
  5
168
330
1F
100
AcDbEntity
  8
EBENE_2
 62
   250
100
AcDb2dPolyline
 66
     1
 10
0.0
 20
0.0
 30
0.0
  0
VERTEX
  5
169
330
168
100
AcDbEntity
  8
EBENE_2
 62
   250
100
AcDbVertex
100
AcDb2dVertex
 10
-121.9999999695024
 20
-19.99999999499995
 30
0.0
  0
VERTEX
  5
16A
330
168
100
AcDbEntity
  8
EBENE_2
 62
   250
100
AcDbVertex
100
AcDb2dVertex
 10
-121.9999999695024
 20
-15.99999999600085
 30
0.0
  0
SEQEND
  5
16B
330
168
100
AcDbEntity
  8
EBENE_2
 62
   250
  0
POLYLINE
  5
16C
330
1F
100
AcDbEntity
  8
EBENE_2
 62
   250
100
AcDb2dPolyline
 66
     1
 10
0.0
 20
0.0
 30
0.0
  0
VERTEX
  5
16D
330
16C
100
AcDbEntity
  8
EBENE_2
 62
   250
100
AcDbVertex
100
AcDb2dVertex
 10
-137.9999999655026
 20
-19.99999999499995
 30
0.0
  0
VERTEX
  5
16E
330
16C
100
AcDbEntity
  8
EBENE_2
 62
   250
100
AcDbVertex
100
AcDb2dVertex
 10
-121.9999999695024
 20
-19.99999999499995
 30
0.0
  0
SEQEND
  5
16F
330
16C
100
AcDbEntity
  8
EBENE_2
 62
   250
  0
POLYLINE
  5
170
330
1F
100
AcDbEntity
  8
EBENE_2
 62
   250
100
AcDb2dPolyline
 66
     1
 10
0.0
 20
0.0
 30
0.0
  0
VERTEX
  5
171
330
170
100
AcDbEntity
  8
EBENE_2
 62
   250
100
AcDbVertex
100
AcDb2dVertex
 10
-137.9999999655026
 20
-15.99999999600085
 30
0.0
  0
VERTEX
  5
172
330
170
100
AcDbEntity
  8
EBENE_2
 62
   250
100
AcDbVertex
100
AcDb2dVertex
 10
-137.9999999655026
 20
-19.99999999499995
 30
0.0
  0
SEQEND
  5
173
330
170
100
AcDbEntity
  8
EBENE_2
 62
   250
  0
POLYLINE
  5
174
330
1F
100
AcDbEntity
  8
EBENE_2
 62
   250
100
AcDb2dPolyline
 66
     1
 10
0.0
 20
0.0
 30
0.0
  0
VERTEX
  5
175
330
174
100
AcDbEntity
  8
EBENE_2
 62
   250
100
AcDbVertex
100
AcDb2dVertex
 10
-141.9999999645027
 20
-15.99999999600085
 30
0.0
  0
VERTEX
  5
176
330
174
100
AcDbEntity
  8
EBENE_2
 62
   250
100
AcDbVertex
100
AcDb2dVertex
 10
-137.9999999655026
 20
-15.99999999600085
 30
0.0
  0
SEQEND
  5
177
330
174
100
AcDbEntity
  8
EBENE_2
 62
   250
  0
POLYLINE
  5
178
330
1F
100
AcDbEntity
  8
EBENE_2
 62
   250
100
AcDb2dPolyline
 66
     1
 10
0.0
 20
0.0
 30
0.0
  0
VERTEX
  5
179
330
178
100
AcDbEntity
  8
EBENE_2
 62
   250
100
AcDbVertex
100
AcDb2dVertex
 10
-141.9999999645027
 20
19.99999999499995
 30
0.0
  0
VERTEX
  5
17A
330
178
100
AcDbEntity
  8
EBENE_2
 62
   250
100
AcDbVertex
100
AcDb2dVertex
 10
-141.9999999645027
 20
-15.99999999600085
 30
0.0
  0
SEQEND
  5
17B
330
178
100
AcDbEntity
  8
EBENE_2
 62
   250
  0
POLYLINE
  5
17C
330
1F
100
AcDbEntity
  8
EBENE_2
 62
   250
100
AcDb2dPolyline
 66
     1
 10
0.0
 20
0.0
 30
0.0
  0
VERTEX
  5
17D
330
17C
100
AcDbEntity
  8
EBENE_2
 62
   250
100
AcDbVertex
100
AcDb2dVertex
 10
-125.9999999685025
 20
19.99999999499995
 30
0.0
  0
VERTEX
  5
17E
330
17C
100
AcDbEntity
  8
EBENE_2
 62
   250
100
AcDbVertex
100
AcDb2dVertex
 10
-141.9999999645027
 20
19.99999999499995
 30
0.0
  0
SEQEND
  5
17F
330
17C
100
AcDbEntity
  8
EBENE_2
 62
   250
  0
POLYLINE
  5
180
330
1F
100
AcDbEntity
  8
EBENE_2
 62
   250
100
AcDb2dPolyline
 66
     1
 10
0.0
 20
0.0
 30
0.0
  0
VERTEX
  5
181
330
180
100
AcDbEntity
  8
EBENE_2
 62
   250
100
AcDbVertex
100
AcDb2dVertex
 10
-125.9999999685025
 20
15.99999999600021
 30
0.0
  0
VERTEX
  5
182
330
180
100
AcDbEntity
  8
EBENE_2
 62
   250
100
AcDbVertex
100
AcDb2dVertex
 10
-125.9999999685025
 20
19.99999999499995
 30
0.0
  0
SEQEND
  5
183
330
180
100
AcDbEntity
  8
EBENE_2
 62
   250
  0
POLYLINE
  5
184
330
1F
100
AcDbEntity
  8
EBENE_2
 62
   250
100
AcDb2dPolyline
 66
     1
 10
0.0
 20
0.0
 30
0.0
  0
VERTEX
  5
185
330
184
100
AcDbEntity
  8
EBENE_2
 62
   250
100
AcDbVertex
100
AcDb2dVertex
 10
-121.9999999695024
 20
15.99999999600021
 30
0.0
  0
VERTEX
  5
186
330
184
100
AcDbEntity
  8
EBENE_2
 62
   250
100
AcDbVertex
100
AcDb2dVertex
 10
-125.9999999685025
 20
15.99999999600021
 30
0.0
  0
SEQEND
  5
187
330
184
100
AcDbEntity
  8
EBENE_2
 62
   250
  0
POLYLINE
  5
188
330
1F
100
AcDbEntity
  8
EBENE_2
 62
   250
100
AcDb2dPolyline
 66
     1
 10
0.0
 20
0.0
 30
0.0
  0
VERTEX
  5
189
330
188
100
AcDbEntity
  8
EBENE_2
 62
   250
100
AcDbVertex
100
AcDb2dVertex
 10
-121.9999999695024
 20
19.99999999499995
 30
0.0
  0
VERTEX
  5
18A
330
188
100
AcDbEntity
  8
EBENE_2
 62
   250
100
AcDbVertex
100
AcDb2dVertex
 10
-121.9999999695024
 20
15.99999999600021
 30
0.0
  0
SEQEND
  5
18B
330
188
100
AcDbEntity
  8
EBENE_2
 62
   250
  0
POLYLINE
  5
18C
330
1F
100
AcDbEntity
  8
EBENE_2
 62
   250
100
AcDb2dPolyline
 66
     1
 10
0.0
 20
0.0
 30
0.0
  0
VERTEX
  5
18D
330
18C
100
AcDbEntity
  8
EBENE_2
 62
   250
100
AcDbVertex
100
AcDb2dVertex
 10
-105.9999999735025
 20
19.99999999499995
 30
0.0
  0
VERTEX
  5
18E
330
18C
100
AcDbEntity
  8
EBENE_2
 62
   250
100
AcDbVertex
100
AcDb2dVertex
 10
-121.9999999695024
 20
19.99999999499995
 30
0.0
  0
SEQEND
  5
18F
330
18C
100
AcDbEntity
  8
EBENE_2
 62
   250
  0
POLYLINE
  5
190
330
1F
100
AcDbEntity
  8
EBENE_2
 62
   250
100
AcDb2dPolyline
 66
     1
 10
0.0
 20
0.0
 30
0.0
  0
VERTEX
  5
191
330
190
100
AcDbEntity
  8
EBENE_2
 62
   250
100
AcDbVertex
100
AcDb2dVertex
 10
-105.9999999735025
 20
15.99999999600021
 30
0.0
  0
VERTEX
  5
192
330
190
100
AcDbEntity
  8
EBENE_2
 62
   250
100
AcDbVertex
100
AcDb2dVertex
 10
-105.9999999735025
 20
19.99999999499995
 30
0.0
  0
SEQEND
  5
193
330
190
100
AcDbEntity
  8
EBENE_2
 62
   250
  0
POLYLINE
  5
194
330
1F
100
AcDbEntity
  8
EBENE_2
 62
   250
100
AcDb2dPolyline
 66
     1
 10
0.0
 20
0.0
 30
0.0
  0
VERTEX
  5
195
330
194
100
AcDbEntity
  8
EBENE_2
 62
   250
100
AcDbVertex
100
AcDb2dVertex
 10
-101.9999999745025
 20
15.99999999600021
 30
0.0
  0
VERTEX
  5
196
330
194
100
AcDbEntity
  8
EBENE_2
 62
   250
100
AcDbVertex
100
AcDb2dVertex
 10
-105.9999999735025
 20
15.99999999600021
 30
0.0
  0
SEQEND
  5
197
330
194
100
AcDbEntity
  8
EBENE_2
 62
   250
  0
POLYLINE
  5
198
330
1F
100
AcDbEntity
  8
EBENE_2
 62
   250
100
AcDb2dPolyline
 66
     1
 10
0.0
 20
0.0
 30
0.0
  0
VERTEX
  5
199
330
198
100
AcDbEntity
  8
EBENE_2
 62
   250
100
AcDbVertex
100
AcDb2dVertex
 10
-117.9999999705008
 20
15.99999999600021
 30
0.0
  0
VERTEX
  5
19A
330
198
100
AcDbEntity
  8
EBENE_2
 62
   250
100
AcDbVertex
100
AcDb2dVertex
 10
-117.9999999705008
 20
3.999999999000374
 30
0.0
  0
SEQEND
  5
19B
330
198
100
AcDbEntity
  8
EBENE_2
 62
   250
  0
POLYLINE
  5
19C
330
1F
100
AcDbEntity
  8
EBENE_2
 62
   250
100
AcDb2dPolyline
 66
     1
 10
0.0
 20
0.0
 30
0.0
  0
VERTEX
  5
19D
330
19C
100
AcDbEntity
  8
EBENE_2
 62
   250
100
AcDbVertex
100
AcDb2dVertex
 10
-109.9999999725
 20
15.99999999600021
 30
0.0
  0
VERTEX
  5
19E
330
19C
100
AcDbEntity
  8
EBENE_2
 62
   250
100
AcDbVertex
100
AcDb2dVertex
 10
-117.9999999705008
 20
15.99999999600021
 30
0.0
  0
SEQEND
  5
19F
330
19C
100
AcDbEntity
  8
EBENE_2
 62
   250
  0
POLYLINE
  5
1A0
330
1F
100
AcDbEntity
  8
EBENE_2
 62
   250
100
AcDb2dPolyline
 66
     1
 10
0.0
 20
0.0
 30
0.0
  0
VERTEX
  5
1A1
330
1A0
100
AcDbEntity
  8
EBENE_2
 62
   250
100
AcDbVertex
100
AcDb2dVertex
 10
-109.9999999725
 20
-11.99999999699952
 30
0.0
  0
VERTEX
  5
1A2
330
1A0
100
AcDbEntity
  8
EBENE_2
 62
   250
100
AcDbVertex
100
AcDb2dVertex
 10
-109.9999999725
 20
15.99999999600021
 30
0.0
  0
SEQEND
  5
1A3
330
1A0
100
AcDbEntity
  8
EBENE_2
 62
   250
  0
POLYLINE
  5
1A4
330
1F
100
AcDbEntity
  8
EBENE_2
 62
   250
100
AcDb2dPolyline
 66
     1
 10
0.0
 20
0.0
 30
0.0
  0
VERTEX
  5
1A5
330
1A4
100
AcDbEntity
  8
EBENE_2
 62
   250
100
AcDbVertex
100
AcDb2dVertex
 10
-117.9999999705008
 20
-11.99999999699952
 30
0.0
  0
VERTEX
  5
1A6
330
1A4
100
AcDbEntity
  8
EBENE_2
 62
   250
100
AcDbVertex
100
AcDb2dVertex
 10
-109.9999999725
 20
-11.99999999699952
 30
0.0
  0
SEQEND
  5
1A7
330
1A4
100
AcDbEntity
  8
EBENE_2
 62
   250
  0
POLYLINE
  5
1A8
330
1F
100
AcDbEntity
  8
EBENE_2
 62
   250
100
AcDb2dPolyline
 66
     1
 10
0.0
 20
0.0
 30
0.0
  0
VERTEX
  5
1A9
330
1A8
100
AcDbEntity
  8
EBENE_2
 62
   250
100
AcDbVertex
100
AcDb2dVertex
 10
-117.9999999705008
 20
0.0
 30
0.0
  0
VERTEX
  5
1AA
330
1A8
100
AcDbEntity
  8
EBENE_2
 62
   250
100
AcDbVertex
100
AcDb2dVertex
 10
-117.9999999705008
 20
-11.99999999699952
 30
0.0
  0
SEQEND
  5
1AB
330
1A8
100
AcDbEntity
  8
EBENE_2
 62
   250
  0
POLYLINE
  5
1AC
330
1F
100
AcDbEntity
  8
EBENE_2
 62
   250
100
AcDb2dPolyline
 66
     1
 10
0.0
 20
0.0
 30
0.0
  0
VERTEX
  5
1AD
330
1AC
100
AcDbEntity
  8
EBENE_2
 62
   250
100
AcDbVertex
100
AcDb2dVertex
 10
-129.9999999675013
 20
0.0
 30
0.0
  0
VERTEX
  5
1AE
330
1AC
100
AcDbEntity
  8
EBENE_2
 62
   250
100
AcDbVertex
100
AcDb2dVertex
 10
-117.9999999705008
 20
0.0
 30
0.0
  0
SEQEND
  5
1AF
330
1AC
100
AcDbEntity
  8
EBENE_2
 62
   250
  0
POLYLINE
  5
1B0
330
1F
100
AcDbEntity
  8
EBENE_2
 62
   250
100
AcDb2dPolyline
 66
     1
 10
0.0
 20
0.0
 30
0.0
  0
VERTEX
  5
1B1
330
1B0
100
AcDbEntity
  8
EBENE_2
 62
   250
100
AcDbVertex
100
AcDb2dVertex
 10
-129.9999999675013
 20
-11.99999999699952
 30
0.0
  0
VERTEX
  5
1B2
330
1B0
100
AcDbEntity
  8
EBENE_2
 62
   250
100
AcDbVertex
100
AcDb2dVertex
 10
-129.9999999675013
 20
0.0
 30
0.0
  0
SEQEND
  5
1B3
330
1B0
100
AcDbEntity
  8
EBENE_2
 62
   250
  0
POLYLINE
  5
1B4
330
1F
100
AcDbEntity
  8
EBENE_2
 62
   250
100
AcDb2dPolyline
 66
     1
 10
0.0
 20
0.0
 30
0.0
  0
VERTEX
  5
1B5
330
1B4
100
AcDbEntity
  8
EBENE_2
 62
   250
100
AcDbVertex
100
AcDb2dVertex
 10
-137.999999965501
 20
-11.99999999699952
 30
0.0
  0
VERTEX
  5
1B6
330
1B4
100
AcDbEntity
  8
EBENE_2
 62
   250
100
AcDbVertex
100
AcDb2dVertex
 10
-129.9999999675013
 20
-11.99999999699952
 30
0.0
  0
SEQEND
  5
1B7
330
1B4
100
AcDbEntity
  8
EBENE_2
 62
   250
  0
POLYLINE
  5
1B8
330
1F
100
AcDbEntity
  8
EBENE_2
 62
   250
100
AcDb2dPolyline
 66
     1
 10
0.0
 20
0.0
 30
0.0
  0
VERTEX
  5
1B9
330
1B8
100
AcDbEntity
  8
EBENE_2
 62
   250
100
AcDbVertex
100
AcDb2dVertex
 10
-137.999999965501
 20
15.99999999600021
 30
0.0
  0
VERTEX
  5
1BA
330
1B8
100
AcDbEntity
  8
EBENE_2
 62
   250
100
AcDbVertex
100
AcDb2dVertex
 10
-137.999999965501
 20
-11.99999999699952
 30
0.0
  0
SEQEND
  5
1BB
330
1B8
100
AcDbEntity
  8
EBENE_2
 62
   250
  0
POLYLINE
  5
1BC
330
1F
100
AcDbEntity
  8
EBENE_2
 62
   250
100
AcDb2dPolyline
 66
     1
 10
0.0
 20
0.0
 30
0.0
  0
VERTEX
  5
1BD
330
1BC
100
AcDbEntity
  8
EBENE_2
 62
   250
100
AcDbVertex
100
AcDb2dVertex
 10
-129.9999999675013
 20
15.99999999600021
 30
0.0
  0
VERTEX
  5
1BE
330
1BC
100
AcDbEntity
  8
EBENE_2
 62
   250
100
AcDbVertex
100
AcDb2dVertex
 10
-137.999999965501
 20
15.99999999600021
 30
0.0
  0
SEQEND
  5
1BF
330
1BC
100
AcDbEntity
  8
EBENE_2
 62
   250
  0
POLYLINE
  5
1C0
330
1F
100
AcDbEntity
  8
EBENE_2
 62
   250
100
AcDb2dPolyline
 66
     1
 10
0.0
 20
0.0
 30
0.0
  0
VERTEX
  5
1C1
330
1C0
100
AcDbEntity
  8
EBENE_2
 62
   250
100
AcDbVertex
100
AcDb2dVertex
 10
-129.9999999675013
 20
3.999999999000374
 30
0.0
  0
VERTEX
  5
1C2
330
1C0
100
AcDbEntity
  8
EBENE_2
 62
   250
100
AcDbVertex
100
AcDb2dVertex
 10
-129.9999999675013
 20
15.99999999600021
 30
0.0
  0
SEQEND
  5
1C3
330
1C0
100
AcDbEntity
  8
EBENE_2
 62
   250
  0
POLYLINE
  5
1C4
330
1F
100
AcDbEntity
  8
EBENE_2
 62
   250
100
AcDb2dPolyline
 66
     1
 10
0.0
 20
0.0
 30
0.0
  0
VERTEX
  5
1C5
330
1C4
100
AcDbEntity
  8
EBENE_2
 62
   250
100
AcDbVertex
100
AcDb2dVertex
 10
-117.9999999705008
 20
3.999999999000374
 30
0.0
  0
VERTEX
  5
1C6
330
1C4
100
AcDbEntity
  8
EBENE_2
 62
   250
100
AcDbVertex
100
AcDb2dVertex
 10
-129.9999999675013
 20
3.999999999000374
 30
0.0
  0
SEQEND
  5
1C7
330
1C4
100
AcDbEntity
  8
EBENE_2
 62
   250
  0
POLYLINE
  5
1C8
330
1F
100
AcDbEntity
  8
EBENE_2
 62
   250
100
AcDb2dPolyline
 66
     1
 10
0.0
 20
0.0
 30
0.0
  0
VERTEX
  5
1C9
330
1C8
100
AcDbEntity
  8
EBENE_2
 62
   250
100
AcDbVertex
100
AcDb2dVertex
 10
-77.99999998050184
 20
11.99999999699952
 30
0.0
  0
VERTEX
  5
1CA
330
1C8
100
AcDbEntity
  8
EBENE_2
 62
   250
100
AcDbVertex
100
AcDb2dVertex
 10
-77.99999998050184
 20
15.99999999600021
 30
0.0
  0
SEQEND
  5
1CB
330
1C8
100
AcDbEntity
  8
EBENE_2
 62
   250
  0
POLYLINE
  5
1CC
330
1F
100
AcDbEntity
  8
EBENE_2
 62
   250
100
AcDb2dPolyline
 66
     1
 10
0.0
 20
0.0
 30
0.0
  0
VERTEX
  5
1CD
330
1CC
100
AcDbEntity
  8
EBENE_2
 62
   250
100
AcDbVertex
100
AcDb2dVertex
 10
-73.99999998150082
 20
11.99999999699952
 30
0.0
  0
VERTEX
  5
1CE
330
1CC
100
AcDbEntity
  8
EBENE_2
 62
   250
100
AcDbVertex
100
AcDb2dVertex
 10
-77.99999998050184
 20
11.99999999699952
 30
0.0
  0
SEQEND
  5
1CF
330
1CC
100
AcDbEntity
  8
EBENE_2
 62
   250
  0
POLYLINE
  5
1D0
330
1F
100
AcDbEntity
  8
EBENE_2
 62
   250
100
AcDb2dPolyline
 66
     1
 10
0.0
 20
0.0
 30
0.0
  0
VERTEX
  5
1D1
330
1D0
100
AcDbEntity
  8
EBENE_2
 62
   250
100
AcDbVertex
100
AcDb2dVertex
 10
-73.99999998150082
 20
-7.999999997999465
 30
0.0
  0
VERTEX
  5
1D2
330
1D0
100
AcDbEntity
  8
EBENE_2
 62
   250
100
AcDbVertex
100
AcDb2dVertex
 10
-73.99999998150082
 20
11.99999999699952
 30
0.0
  0
SEQEND
  5
1D3
330
1D0
100
AcDbEntity
  8
EBENE_2
 62
   250
  0
POLYLINE
  5
1D4
330
1F
100
AcDbEntity
  8
EBENE_2
 62
   250
100
AcDb2dPolyline
 66
     1
 10
0.0
 20
0.0
 30
0.0
  0
VERTEX
  5
1D5
330
1D4
100
AcDbEntity
  8
EBENE_2
 62
   250
100
AcDbVertex
100
AcDb2dVertex
 10
-77.99999998050184
 20
-7.999999997999465
 30
0.0
  0
VERTEX
  5
1D6
330
1D4
100
AcDbEntity
  8
EBENE_2
 62
   250
100
AcDbVertex
100
AcDb2dVertex
 10
-73.99999998150082
 20
-7.999999997999465
 30
0.0
  0
SEQEND
  5
1D7
330
1D4
100
AcDbEntity
  8
EBENE_2
 62
   250
  0
POLYLINE
  5
1D8
330
1F
100
AcDbEntity
  8
EBENE_2
 62
   250
100
AcDb2dPolyline
 66
     1
 10
0.0
 20
0.0
 30
0.0
  0
VERTEX
  5
1D9
330
1D8
100
AcDbEntity
  8
EBENE_2
 62
   250
100
AcDbVertex
100
AcDb2dVertex
 10
-77.99999998050184
 20
-11.99999999699952
 30
0.0
  0
VERTEX
  5
1DA
330
1D8
100
AcDbEntity
  8
EBENE_2
 62
   250
100
AcDbVertex
100
AcDb2dVertex
 10
-77.99999998050184
 20
-7.999999997999465
 30
0.0
  0
SEQEND
  5
1DB
330
1D8
100
AcDbEntity
  8
EBENE_2
 62
   250
  0
POLYLINE
  5
1DC
330
1F
100
AcDbEntity
  8
EBENE_2
 62
   250
100
AcDb2dPolyline
 66
     1
 10
0.0
 20
0.0
 30
0.0
  0
VERTEX
  5
1DD
330
1DC
100
AcDbEntity
  8
EBENE_2
 62
   250
100
AcDbVertex
100
AcDb2dVertex
 10
-97.9999999755021
 20
-11.99999999699952
 30
0.0
  0
VERTEX
  5
1DE
330
1DC
100
AcDbEntity
  8
EBENE_2
 62
   250
100
AcDbVertex
100
AcDb2dVertex
 10
-77.99999998050184
 20
-11.99999999699952
 30
0.0
  0
SEQEND
  5
1DF
330
1DC
100
AcDbEntity
  8
EBENE_2
 62
   250
  0
POLYLINE
  5
1E0
330
1F
100
AcDbEntity
  8
EBENE_2
 62
   250
100
AcDb2dPolyline
 66
     1
 10
0.0
 20
0.0
 30
0.0
  0
VERTEX
  5
1E1
330
1E0
100
AcDbEntity
  8
EBENE_2
 62
   250
100
AcDbVertex
100
AcDb2dVertex
 10
-97.9999999755021
 20
-7.999999997999465
 30
0.0
  0
VERTEX
  5
1E2
330
1E0
100
AcDbEntity
  8
EBENE_2
 62
   250
100
AcDbVertex
100
AcDb2dVertex
 10
-97.9999999755021
 20
-11.99999999699952
 30
0.0
  0
SEQEND
  5
1E3
330
1E0
100
AcDbEntity
  8
EBENE_2
 62
   250
  0
POLYLINE
  5
1E4
330
1F
100
AcDbEntity
  8
EBENE_2
 62
   250
100
AcDb2dPolyline
 66
     1
 10
0.0
 20
0.0
 30
0.0
  0
VERTEX
  5
1E5
330
1E4
100
AcDbEntity
  8
EBENE_2
 62
   250
100
AcDbVertex
100
AcDb2dVertex
 10
-101.9999999745012
 20
-7.999999997999465
 30
0.0
  0
VERTEX
  5
1E6
330
1E4
100
AcDbEntity
  8
EBENE_2
 62
   250
100
AcDbVertex
100
AcDb2dVertex
 10
-97.9999999755021
 20
-7.999999997999465
 30
0.0
  0
SEQEND
  5
1E7
330
1E4
100
AcDbEntity
  8
EBENE_2
 62
   250
  0
POLYLINE
  5
1E8
330
1F
100
AcDbEntity
  8
EBENE_2
 62
   250
100
AcDb2dPolyline
 66
     1
 10
0.0
 20
0.0
 30
0.0
  0
VERTEX
  5
1E9
330
1E8
100
AcDbEntity
  8
EBENE_2
 62
   250
100
AcDbVertex
100
AcDb2dVertex
 10
-101.9999999745012
 20
11.99999999699952
 30
0.0
  0
VERTEX
  5
1EA
330
1E8
100
AcDbEntity
  8
EBENE_2
 62
   250
100
AcDbVertex
100
AcDb2dVertex
 10
-101.9999999745012
 20
-7.999999997999465
 30
0.0
  0
SEQEND
  5
1EB
330
1E8
100
AcDbEntity
  8
EBENE_2
 62
   250
  0
POLYLINE
  5
1EC
330
1F
100
AcDbEntity
  8
EBENE_2
 62
   250
100
AcDb2dPolyline
 66
     1
 10
0.0
 20
0.0
 30
0.0
  0
VERTEX
  5
1ED
330
1EC
100
AcDbEntity
  8
EBENE_2
 62
   250
100
AcDbVertex
100
AcDb2dVertex
 10
-97.9999999755021
 20
11.99999999699952
 30
0.0
  0
VERTEX
  5
1EE
330
1EC
100
AcDbEntity
  8
EBENE_2
 62
   250
100
AcDbVertex
100
AcDb2dVertex
 10
-101.9999999745012
 20
11.99999999699952
 30
0.0
  0
SEQEND
  5
1EF
330
1EC
100
AcDbEntity
  8
EBENE_2
 62
   250
  0
POLYLINE
  5
1F0
330
1F
100
AcDbEntity
  8
EBENE_2
 62
   250
100
AcDb2dPolyline
 66
     1
 10
0.0
 20
0.0
 30
0.0
  0
VERTEX
  5
1F1
330
1F0
100
AcDbEntity
  8
EBENE_2
 62
   250
100
AcDbVertex
100
AcDb2dVertex
 10
-97.9999999755021
 20
15.99999999600021
 30
0.0
  0
VERTEX
  5
1F2
330
1F0
100
AcDbEntity
  8
EBENE_2
 62
   250
100
AcDbVertex
100
AcDb2dVertex
 10
-97.9999999755021
 20
11.99999999699952
 30
0.0
  0
SEQEND
  5
1F3
330
1F0
100
AcDbEntity
  8
EBENE_2
 62
   250
  0
POLYLINE
  5
1F4
330
1F
100
AcDbEntity
  8
EBENE_2
 62
   250
100
AcDb2dPolyline
 66
     1
 10
0.0
 20
0.0
 30
0.0
  0
VERTEX
  5
1F5
330
1F4
100
AcDbEntity
  8
EBENE_2
 62
   250
100
AcDbVertex
100
AcDb2dVertex
 10
-77.99999998050184
 20
15.99999999600021
 30
0.0
  0
VERTEX
  5
1F6
330
1F4
100
AcDbEntity
  8
EBENE_2
 62
   250
100
AcDbVertex
100
AcDb2dVertex
 10
-97.9999999755021
 20
15.99999999600021
 30
0.0
  0
SEQEND
  5
1F7
330
1F4
100
AcDbEntity
  8
EBENE_2
 62
   250
  0
POLYLINE
  5
1F8
330
1F
100
AcDbEntity
  8
EBENE_2
 62
   250
100
AcDb2dPolyline
 66
     1
 10
0.0
 20
0.0
 30
0.0
  0
VERTEX
  5
1F9
330
1F8
100
AcDbEntity
  8
EBENE_2
 62
   250
100
AcDbVertex
100
AcDb2dVertex
 10
-81.99999997950125
 20
-7.999999997999465
 30
0.0
  0
VERTEX
  5
1FA
330
1F8
100
AcDbEntity
  8
EBENE_2
 62
   250
100
AcDbVertex
100
AcDb2dVertex
 10
-81.99999997950125
 20
11.99999999699952
 30
0.0
  0
SEQEND
  5
1FB
330
1F8
100
AcDbEntity
  8
EBENE_2
 62
   250
  0
POLYLINE
  5
1FC
330
1F
100
AcDbEntity
  8
EBENE_2
 62
   250
100
AcDb2dPolyline
 66
     1
 10
0.0
 20
0.0
 30
0.0
  0
VERTEX
  5
1FD
330
1FC
100
AcDbEntity
  8
EBENE_2
 62
   250
100
AcDbVertex
100
AcDb2dVertex
 10
-93.99999997650109
 20
-7.999999997999465
 30
0.0
  0
VERTEX
  5
1FE
330
1FC
100
AcDbEntity
  8
EBENE_2
 62
   250
100
AcDbVertex
100
AcDb2dVertex
 10
-81.99999997950125
 20
-7.999999997999465
 30
0.0
  0
SEQEND
  5
1FF
330
1FC
100
AcDbEntity
  8
EBENE_2
 62
   250
  0
POLYLINE
  5
200
330
1F
100
AcDbEntity
  8
EBENE_2
 62
   250
100
AcDb2dPolyline
 66
     1
 10
0.0
 20
0.0
 30
0.0
  0
VERTEX
  5
201
330
200
100
AcDbEntity
  8
EBENE_2
 62
   250
100
AcDbVertex
100
AcDb2dVertex
 10
-93.99999997650109
 20
11.99999999699952
 30
0.0
  0
VERTEX
  5
202
330
200
100
AcDbEntity
  8
EBENE_2
 62
   250
100
AcDbVertex
100
AcDb2dVertex
 10
-93.99999997650109
 20
-7.999999997999465
 30
0.0
  0
SEQEND
  5
203
330
200
100
AcDbEntity
  8
EBENE_2
 62
   250
  0
POLYLINE
  5
204
330
1F
100
AcDbEntity
  8
EBENE_2
 62
   250
100
AcDb2dPolyline
 66
     1
 10
0.0
 20
0.0
 30
0.0
  0
VERTEX
  5
205
330
204
100
AcDbEntity
  8
EBENE_2
 62
   250
100
AcDbVertex
100
AcDb2dVertex
 10
-81.99999997950125
 20
11.99999999699952
 30
0.0
  0
VERTEX
  5
206
330
204
100
AcDbEntity
  8
EBENE_2
 62
   250
100
AcDbVertex
100
AcDb2dVertex
 10
-93.99999997650109
 20
11.99999999699952
 30
0.0
  0
SEQEND
  5
207
330
204
100
AcDbEntity
  8
EBENE_2
 62
   250
  0
POLYLINE
  5
208
330
1F
100
AcDbEntity
  8
EBENE_2
 62
   250
100
AcDb2dPolyline
 66
     1
 10
0.0
 20
0.0
 30
0.0
  0
VERTEX
  5
209
330
208
100
AcDbEntity
  8
EBENE_2
 62
   250
100
AcDbVertex
100
AcDb2dVertex
 10
-1.999999999499545
 20
11.99999999699952
 30
0.0
  0
VERTEX
  5
20A
330
208
100
AcDbEntity
  8
EBENE_2
 62
   250
100
AcDbVertex
100
AcDb2dVertex
 10
-1.999999999499545
 20
15.99999999600021
 30
0.0
  0
SEQEND
  5
20B
330
208
100
AcDbEntity
  8
EBENE_2
 62
   250
  0
POLYLINE
  5
20C
330
1F
100
AcDbEntity
  8
EBENE_2
 62
   250
100
AcDb2dPolyline
 66
     1
 10
0.0
 20
0.0
 30
0.0
  0
VERTEX
  5
20D
330
20C
100
AcDbEntity
  8
EBENE_2
 62
   250
100
AcDbVertex
100
AcDb2dVertex
 10
-21.99999999450013
 20
11.99999999699952
 30
0.0
  0
VERTEX
  5
20E
330
20C
100
AcDbEntity
  8
EBENE_2
 62
   250
100
AcDbVertex
100
AcDb2dVertex
 10
-1.999999999499545
 20
11.99999999699952
 30
0.0
  0
SEQEND
  5
20F
330
20C
100
AcDbEntity
  8
EBENE_2
 62
   250
  0
POLYLINE
  5
210
330
1F
100
AcDbEntity
  8
EBENE_2
 62
   250
100
AcDb2dPolyline
 66
     1
 10
0.0
 20
0.0
 30
0.0
  0
VERTEX
  5
211
330
210
100
AcDbEntity
  8
EBENE_2
 62
   250
100
AcDbVertex
100
AcDb2dVertex
 10
-21.99999999450013
 20
3.999999999000374
 30
0.0
  0
VERTEX
  5
212
330
210
100
AcDbEntity
  8
EBENE_2
 62
   250
100
AcDbVertex
100
AcDb2dVertex
 10
-21.99999999450013
 20
11.99999999699952
 30
0.0
  0
SEQEND
  5
213
330
210
100
AcDbEntity
  8
EBENE_2
 62
   250
  0
POLYLINE
  5
214
330
1F
100
AcDbEntity
  8
EBENE_2
 62
   250
100
AcDb2dPolyline
 66
     1
 10
0.0
 20
0.0
 30
0.0
  0
VERTEX
  5
215
330
214
100
AcDbEntity
  8
EBENE_2
 62
   250
100
AcDbVertex
100
AcDb2dVertex
 10
-5.999999998499278
 20
3.999999999000374
 30
0.0
  0
VERTEX
  5
216
330
214
100
AcDbEntity
  8
EBENE_2
 62
   250
100
AcDbVertex
100
AcDb2dVertex
 10
-21.99999999450013
 20
3.999999999000374
 30
0.0
  0
SEQEND
  5
217
330
214
100
AcDbEntity
  8
EBENE_2
 62
   250
  0
POLYLINE
  5
218
330
1F
100
AcDbEntity
  8
EBENE_2
 62
   250
100
AcDb2dPolyline
 66
     1
 10
0.0
 20
0.0
 30
0.0
  0
VERTEX
  5
219
330
218
100
AcDbEntity
  8
EBENE_2
 62
   250
100
AcDbVertex
100
AcDb2dVertex
 10
-5.999999998499278
 20
0.0
 30
0.0
  0
VERTEX
  5
21A
330
218
100
AcDbEntity
  8
EBENE_2
 62
   250
100
AcDbVertex
100
AcDb2dVertex
 10
-5.999999998499278
 20
3.999999999000374
 30
0.0
  0
SEQEND
  5
21B
330
218
100
AcDbEntity
  8
EBENE_2
 62
   250
  0
POLYLINE
  5
21C
330
1F
100
AcDbEntity
  8
EBENE_2
 62
   250
100
AcDb2dPolyline
 66
     1
 10
0.0
 20
0.0
 30
0.0
  0
VERTEX
  5
21D
330
21C
100
AcDbEntity
  8
EBENE_2
 62
   250
100
AcDbVertex
100
AcDb2dVertex
 10
-21.99999999450013
 20
0.0
 30
0.0
  0
VERTEX
  5
21E
330
21C
100
AcDbEntity
  8
EBENE_2
 62
   250
100
AcDbVertex
100
AcDb2dVertex
 10
-5.999999998499278
 20
0.0
 30
0.0
  0
SEQEND
  5
21F
330
21C
100
AcDbEntity
  8
EBENE_2
 62
   250
  0
POLYLINE
  5
220
330
1F
100
AcDbEntity
  8
EBENE_2
 62
   250
100
AcDb2dPolyline
 66
     1
 10
0.0
 20
0.0
 30
0.0
  0
VERTEX
  5
221
330
220
100
AcDbEntity
  8
EBENE_2
 62
   250
100
AcDbVertex
100
AcDb2dVertex
 10
-21.99999999450013
 20
-7.999999997999465
 30
0.0
  0
VERTEX
  5
222
330
220
100
AcDbEntity
  8
EBENE_2
 62
   250
100
AcDbVertex
100
AcDb2dVertex
 10
-21.99999999450013
 20
0.0
 30
0.0
  0
SEQEND
  5
223
330
220
100
AcDbEntity
  8
EBENE_2
 62
   250
  0
POLYLINE
  5
224
330
1F
100
AcDbEntity
  8
EBENE_2
 62
   250
100
AcDb2dPolyline
 66
     1
 10
0.0
 20
0.0
 30
0.0
  0
VERTEX
  5
225
330
224
100
AcDbEntity
  8
EBENE_2
 62
   250
100
AcDbVertex
100
AcDb2dVertex
 10
-1.999999999499545
 20
-7.999999997999465
 30
0.0
  0
VERTEX
  5
226
330
224
100
AcDbEntity
  8
EBENE_2
 62
   250
100
AcDbVertex
100
AcDb2dVertex
 10
-21.99999999450013
 20
-7.999999997999465
 30
0.0
  0
SEQEND
  5
227
330
224
100
AcDbEntity
  8
EBENE_2
 62
   250
  0
POLYLINE
  5
228
330
1F
100
AcDbEntity
  8
EBENE_2
 62
   250
100
AcDb2dPolyline
 66
     1
 10
0.0
 20
0.0
 30
0.0
  0
VERTEX
  5
229
330
228
100
AcDbEntity
  8
EBENE_2
 62
   250
100
AcDbVertex
100
AcDb2dVertex
 10
-1.999999999499545
 20
-11.99999999699952
 30
0.0
  0
VERTEX
  5
22A
330
228
100
AcDbEntity
  8
EBENE_2
 62
   250
100
AcDbVertex
100
AcDb2dVertex
 10
-1.999999999499545
 20
-7.999999997999465
 30
0.0
  0
SEQEND
  5
22B
330
228
100
AcDbEntity
  8
EBENE_2
 62
   250
  0
POLYLINE
  5
22C
330
1F
100
AcDbEntity
  8
EBENE_2
 62
   250
100
AcDb2dPolyline
 66
     1
 10
0.0
 20
0.0
 30
0.0
  0
VERTEX
  5
22D
330
22C
100
AcDbEntity
  8
EBENE_2
 62
   250
100
AcDbVertex
100
AcDb2dVertex
 10
-29.99999999250088
 20
-11.99999999699952
 30
0.0
  0
VERTEX
  5
22E
330
22C
100
AcDbEntity
  8
EBENE_2
 62
   250
100
AcDbVertex
100
AcDb2dVertex
 10
-1.999999999499545
 20
-11.99999999699952
 30
0.0
  0
SEQEND
  5
22F
330
22C
100
AcDbEntity
  8
EBENE_2
 62
   250
  0
POLYLINE
  5
230
330
1F
100
AcDbEntity
  8
EBENE_2
 62
   250
100
AcDb2dPolyline
 66
     1
 10
0.0
 20
0.0
 30
0.0
  0
VERTEX
  5
231
330
230
100
AcDbEntity
  8
EBENE_2
 62
   250
100
AcDbVertex
100
AcDb2dVertex
 10
-29.99999999250088
 20
15.99999999600021
 30
0.0
  0
VERTEX
  5
232
330
230
100
AcDbEntity
  8
EBENE_2
 62
   250
100
AcDbVertex
100
AcDb2dVertex
 10
-29.99999999250088
 20
-11.99999999699952
 30
0.0
  0
SEQEND
  5
233
330
230
100
AcDbEntity
  8
EBENE_2
 62
   250
  0
POLYLINE
  5
234
330
1F
100
AcDbEntity
  8
EBENE_2
 62
   250
100
AcDb2dPolyline
 66
     1
 10
0.0
 20
0.0
 30
0.0
  0
VERTEX
  5
235
330
234
100
AcDbEntity
  8
EBENE_2
 62
   250
100
AcDbVertex
100
AcDb2dVertex
 10
-1.999999999499545
 20
15.99999999600021
 30
0.0
  0
VERTEX
  5
236
330
234
100
AcDbEntity
  8
EBENE_2
 62
   250
100
AcDbVertex
100
AcDb2dVertex
 10
-29.99999999250088
 20
15.99999999600021
 30
0.0
  0
SEQEND
  5
237
330
234
100
AcDbEntity
  8
EBENE_2
 62
   250
  0
POLYLINE
  5
238
330
1F
100
AcDbEntity
  8
EBENE_2
 62
   250
100
AcDb2dPolyline
 66
     1
 10
0.0
 20
0.0
 30
0.0
  0
VERTEX
  5
239
330
238
100
AcDbEntity
  8
EBENE_2
 62
   250
100
AcDbVertex
100
AcDb2dVertex
 10
25.99999999349987
 20
3.999999999000374
 30
0.0
  0
VERTEX
  5
23A
330
238
100
AcDbEntity
  8
EBENE_2
 62
   250
100
AcDbVertex
100
AcDb2dVertex
 10
25.99999999349987
 20
11.99999999699952
 30
0.0
  0
SEQEND
  5
23B
330
238
100
AcDbEntity
  8
EBENE_2
 62
   250
  0
POLYLINE
  5
23C
330
1F
100
AcDbEntity
  8
EBENE_2
 62
   250
100
AcDb2dPolyline
 66
     1
 10
0.0
 20
0.0
 30
0.0
  0
VERTEX
  5
23D
330
23C
100
AcDbEntity
  8
EBENE_2
 62
   250
100
AcDbVertex
100
AcDb2dVertex
 10
13.99999999649939
 20
3.999999999000374
 30
0.0
  0
VERTEX
  5
23E
330
23C
100
AcDbEntity
  8
EBENE_2
 62
   250
100
AcDbVertex
100
AcDb2dVertex
 10
25.99999999349987
 20
3.999999999000374
 30
0.0
  0
SEQEND
  5
23F
330
23C
100
AcDbEntity
  8
EBENE_2
 62
   250
  0
POLYLINE
  5
240
330
1F
100
AcDbEntity
  8
EBENE_2
 62
   250
100
AcDb2dPolyline
 66
     1
 10
0.0
 20
0.0
 30
0.0
  0
VERTEX
  5
241
330
240
100
AcDbEntity
  8
EBENE_2
 62
   250
100
AcDbVertex
100
AcDb2dVertex
 10
13.99999999649939
 20
11.99999999699952
 30
0.0
  0
VERTEX
  5
242
330
240
100
AcDbEntity
  8
EBENE_2
 62
   250
100
AcDbVertex
100
AcDb2dVertex
 10
13.99999999649939
 20
3.999999999000374
 30
0.0
  0
SEQEND
  5
243
330
240
100
AcDbEntity
  8
EBENE_2
 62
   250
  0
POLYLINE
  5
244
330
1F
100
AcDbEntity
  8
EBENE_2
 62
   250
100
AcDb2dPolyline
 66
     1
 10
0.0
 20
0.0
 30
0.0
  0
VERTEX
  5
245
330
244
100
AcDbEntity
  8
EBENE_2
 62
   250
100
AcDbVertex
100
AcDb2dVertex
 10
25.99999999349987
 20
11.99999999699952
 30
0.0
  0
VERTEX
  5
246
330
244
100
AcDbEntity
  8
EBENE_2
 62
   250
100
AcDbVertex
100
AcDb2dVertex
 10
13.99999999649939
 20
11.99999999699952
 30
0.0
  0
SEQEND
  5
247
330
244
100
AcDbEntity
  8
EBENE_2
 62
   250
  0
POLYLINE
  5
248
330
1F
100
AcDbEntity
  8
EBENE_2
 62
   250
100
AcDb2dPolyline
 66
     1
 10
0.0
 20
0.0
 30
0.0
  0
VERTEX
  5
249
330
248
100
AcDbEntity
  8
EBENE_2
 62
   250
100
AcDbVertex
100
AcDb2dVertex
 10
49.97555515565782
 20
-7.999999625007407
 30
0.0
  0
VERTEX
  5
24A
330
248
100
AcDbEntity
  8
EBENE_2
 62
   250
100
AcDbVertex
100
AcDb2dVertex
 10
49.97555515565782
 20
16.00000022912049
 30
0.0
  0
SEQEND
  5
24B
330
248
100
AcDbEntity
  8
EBENE_2
 62
   250
  0
POLYLINE
  5
24C
330
1F
100
AcDbEntity
  8
EBENE_2
 62
   250
100
AcDb2dPolyline
 66
     1
 10
0.0
 20
0.0
 30
0.0
  0
VERTEX
  5
24D
330
24C
100
AcDbEntity
  8
EBENE_2
 62
   250
100
AcDbVertex
100
AcDb2dVertex
 10
65.97555505840953
 20
-7.999999625007407
 30
0.0
  0
VERTEX
  5
24E
330
24C
100
AcDbEntity
  8
EBENE_2
 62
   250
100
AcDbVertex
100
AcDb2dVertex
 10
49.97555515565782
 20
-7.999999625007407
 30
0.0
  0
SEQEND
  5
24F
330
24C
100
AcDbEntity
  8
EBENE_2
 62
   250
  0
POLYLINE
  5
250
330
1F
100
AcDbEntity
  8
EBENE_2
 62
   250
100
AcDb2dPolyline
 66
     1
 10
0.0
 20
0.0
 30
0.0
  0
VERTEX
  5
251
330
250
100
AcDbEntity
  8
EBENE_2
 62
   250
100
AcDbVertex
100
AcDb2dVertex
 10
65.97555505840953
 20
-11.99999960069517
 30
0.0
  0
VERTEX
  5
252
330
250
100
AcDbEntity
  8
EBENE_2
 62
   250
100
AcDbVertex
100
AcDb2dVertex
 10
65.97555505840953
 20
-7.999999625007407
 30
0.0
  0
SEQEND
  5
253
330
250
100
AcDbEntity
  8
EBENE_2
 62
   250
  0
POLYLINE
  5
254
330
1F
100
AcDbEntity
  8
EBENE_2
 62
   250
100
AcDb2dPolyline
 66
     1
 10
0.0
 20
0.0
 30
0.0
  0
VERTEX
  5
255
330
254
100
AcDbEntity
  8
EBENE_2
 62
   250
100
AcDbVertex
100
AcDb2dVertex
 10
41.97555520428228
 20
-11.99999960069517
 30
0.0
  0
VERTEX
  5
256
330
254
100
AcDbEntity
  8
EBENE_2
 62
   250
100
AcDbVertex
100
AcDb2dVertex
 10
65.97555505840953
 20
-11.99999960069517
 30
0.0
  0
SEQEND
  5
257
330
254
100
AcDbEntity
  8
EBENE_2
 62
   250
  0
POLYLINE
  5
258
330
1F
100
AcDbEntity
  8
EBENE_2
 62
   250
100
AcDb2dPolyline
 66
     1
 10
0.0
 20
0.0
 30
0.0
  0
VERTEX
  5
259
330
258
100
AcDbEntity
  8
EBENE_2
 62
   250
100
AcDbVertex
100
AcDb2dVertex
 10
41.97555520428228
 20
16.00000022912049
 30
0.0
  0
VERTEX
  5
25A
330
258
100
AcDbEntity
  8
EBENE_2
 62
   250
100
AcDbVertex
100
AcDb2dVertex
 10
41.97555520428228
 20
-11.99999960069517
 30
0.0
  0
SEQEND
  5
25B
330
258
100
AcDbEntity
  8
EBENE_2
 62
   250
  0
POLYLINE
  5
25C
330
1F
100
AcDbEntity
  8
EBENE_2
 62
   250
100
AcDb2dPolyline
 66
     1
 10
0.0
 20
0.0
 30
0.0
  0
VERTEX
  5
25D
330
25C
100
AcDbEntity
  8
EBENE_2
 62
   250
100
AcDbVertex
100
AcDb2dVertex
 10
49.97555515565782
 20
16.00000022912049
 30
0.0
  0
VERTEX
  5
25E
330
25C
100
AcDbEntity
  8
EBENE_2
 62
   250
100
AcDbVertex
100
AcDb2dVertex
 10
41.97555520428228
 20
16.00000022912049
 30
0.0
  0
SEQEND
  5
25F
330
25C
100
AcDbEntity
  8
EBENE_2
 62
   250
  0
POLYLINE
  5
260
330
1F
100
AcDbEntity
  8
EBENE_2
 62
   250
100
AcDb2dPolyline
 66
     1
 10
0.0
 20
0.0
 30
0.0
  0
VERTEX
  5
261
330
260
100
AcDbEntity
  8
EBENE_2
 62
   250
100
AcDbVertex
100
AcDb2dVertex
 10
117.9999999705024
 20
15.99999999600021
 30
0.0
  0
VERTEX
  5
262
330
260
100
AcDbEntity
  8
EBENE_2
 62
   250
100
AcDbVertex
100
AcDb2dVertex
 10
109.9999999725026
 20
15.99999999600021
 30
0.0
  0
SEQEND
  5
263
330
260
100
AcDbEntity
  8
EBENE_2
 62
   250
  0
POLYLINE
  5
264
330
1F
100
AcDbEntity
  8
EBENE_2
 62
   250
100
AcDb2dPolyline
 66
     1
 10
0.0
 20
0.0
 30
0.0
  0
VERTEX
  5
265
330
264
100
AcDbEntity
  8
EBENE_2
 62
   250
100
AcDbVertex
100
AcDb2dVertex
 10
117.9999999705024
 20
3.999999999000374
 30
0.0
  0
VERTEX
  5
266
330
264
100
AcDbEntity
  8
EBENE_2
 62
   250
100
AcDbVertex
100
AcDb2dVertex
 10
117.9999999705024
 20
15.99999999600021
 30
0.0
  0
SEQEND
  5
267
330
264
100
AcDbEntity
  8
EBENE_2
 62
   250
  0
POLYLINE
  5
268
330
1F
100
AcDbEntity
  8
EBENE_2
 62
   250
100
AcDb2dPolyline
 66
     1
 10
0.0
 20
0.0
 30
0.0
  0
VERTEX
  5
269
330
268
100
AcDbEntity
  8
EBENE_2
 62
   250
100
AcDbVertex
100
AcDb2dVertex
 10
125.9999999685025
 20
3.999999999000374
 30
0.0
  0
VERTEX
  5
26A
330
268
100
AcDbEntity
  8
EBENE_2
 62
   250
100
AcDbVertex
100
AcDb2dVertex
 10
117.9999999705024
 20
3.999999999000374
 30
0.0
  0
SEQEND
  5
26B
330
268
100
AcDbEntity
  8
EBENE_2
 62
   250
  0
POLYLINE
  5
26C
330
1F
100
AcDbEntity
  8
EBENE_2
 62
   250
100
AcDb2dPolyline
 66
     1
 10
0.0
 20
0.0
 30
0.0
  0
VERTEX
  5
26D
330
26C
100
AcDbEntity
  8
EBENE_2
 62
   250
100
AcDbVertex
100
AcDb2dVertex
 10
125.9999999685025
 20
15.99999999600021
 30
0.0
  0
VERTEX
  5
26E
330
26C
100
AcDbEntity
  8
EBENE_2
 62
   250
100
AcDbVertex
100
AcDb2dVertex
 10
125.9999999685025
 20
3.999999999000374
 30
0.0
  0
SEQEND
  5
26F
330
26C
100
AcDbEntity
  8
EBENE_2
 62
   250
  0
POLYLINE
  5
270
330
1F
100
AcDbEntity
  8
EBENE_2
 62
   250
100
AcDb2dPolyline
 66
     1
 10
0.0
 20
0.0
 30
0.0
  0
VERTEX
  5
271
330
270
100
AcDbEntity
  8
EBENE_2
 62
   250
100
AcDbVertex
100
AcDb2dVertex
 10
133.9999999665035
 20
15.99999999600021
 30
0.0
  0
VERTEX
  5
272
330
270
100
AcDbEntity
  8
EBENE_2
 62
   250
100
AcDbVertex
100
AcDb2dVertex
 10
125.9999999685025
 20
15.99999999600021
 30
0.0
  0
SEQEND
  5
273
330
270
100
AcDbEntity
  8
EBENE_2
 62
   250
  0
POLYLINE
  5
274
330
1F
100
AcDbEntity
  8
EBENE_2
 62
   250
100
AcDb2dPolyline
 66
     1
 10
0.0
 20
0.0
 30
0.0
  0
VERTEX
  5
275
330
274
100
AcDbEntity
  8
EBENE_2
 62
   250
100
AcDbVertex
100
AcDb2dVertex
 10
133.9999999665035
 20
3.999999999000374
 30
0.0
  0
VERTEX
  5
276
330
274
100
AcDbEntity
  8
EBENE_2
 62
   250
100
AcDbVertex
100
AcDb2dVertex
 10
133.9999999665035
 20
15.99999999600021
 30
0.0
  0
SEQEND
  5
277
330
274
100
AcDbEntity
  8
EBENE_2
 62
   250
  0
POLYLINE
  5
278
330
1F
100
AcDbEntity
  8
EBENE_2
 62
   250
100
AcDb2dPolyline
 66
     1
 10
0.0
 20
0.0
 30
0.0
  0
VERTEX
  5
279
330
278
100
AcDbEntity
  8
EBENE_2
 62
   250
100
AcDbVertex
100
AcDb2dVertex
 10
129.9999999675025
 20
3.999999999000374
 30
0.0
  0
VERTEX
  5
27A
330
278
100
AcDbEntity
  8
EBENE_2
 62
   250
100
AcDbVertex
100
AcDb2dVertex
 10
133.9999999665035
 20
3.999999999000374
 30
0.0
  0
SEQEND
  5
27B
330
278
100
AcDbEntity
  8
EBENE_2
 62
   250
  0
POLYLINE
  5
27C
330
1F
100
AcDbEntity
  8
EBENE_2
 62
   250
100
AcDb2dPolyline
 66
     1
 10
0.0
 20
0.0
 30
0.0
  0
VERTEX
  5
27D
330
27C
100
AcDbEntity
  8
EBENE_2
 62
   250
100
AcDbVertex
100
AcDb2dVertex
 10
129.9999999675025
 20
0.0
 30
0.0
  0
VERTEX
  5
27E
330
27C
100
AcDbEntity
  8
EBENE_2
 62
   250
100
AcDbVertex
100
AcDb2dVertex
 10
129.9999999675025
 20
3.999999999000374
 30
0.0
  0
SEQEND
  5
27F
330
27C
100
AcDbEntity
  8
EBENE_2
 62
   250
  0
POLYLINE
  5
280
330
1F
100
AcDbEntity
  8
EBENE_2
 62
   250
100
AcDb2dPolyline
 66
     1
 10
0.0
 20
0.0
 30
0.0
  0
VERTEX
  5
281
330
280
100
AcDbEntity
  8
EBENE_2
 62
   250
100
AcDbVertex
100
AcDb2dVertex
 10
125.9999999685025
 20
0.0
 30
0.0
  0
VERTEX
  5
282
330
280
100
AcDbEntity
  8
EBENE_2
 62
   250
100
AcDbVertex
100
AcDb2dVertex
 10
129.9999999675025
 20
0.0
 30
0.0
  0
SEQEND
  5
283
330
280
100
AcDbEntity
  8
EBENE_2
 62
   250
  0
POLYLINE
  5
284
330
1F
100
AcDbEntity
  8
EBENE_2
 62
   250
100
AcDb2dPolyline
 66
     1
 10
0.0
 20
0.0
 30
0.0
  0
VERTEX
  5
285
330
284
100
AcDbEntity
  8
EBENE_2
 62
   250
100
AcDbVertex
100
AcDb2dVertex
 10
125.9999999685025
 20
-11.99999999699952
 30
0.0
  0
VERTEX
  5
286
330
284
100
AcDbEntity
  8
EBENE_2
 62
   250
100
AcDbVertex
100
AcDb2dVertex
 10
125.9999999685025
 20
0.0
 30
0.0
  0
SEQEND
  5
287
330
284
100
AcDbEntity
  8
EBENE_2
 62
   250
  0
POLYLINE
  5
288
330
1F
100
AcDbEntity
  8
EBENE_2
 62
   250
100
AcDb2dPolyline
 66
     1
 10
0.0
 20
0.0
 30
0.0
  0
VERTEX
  5
289
330
288
100
AcDbEntity
  8
EBENE_2
 62
   250
100
AcDbVertex
100
AcDb2dVertex
 10
117.9999999705024
 20
-11.99999999699952
 30
0.0
  0
VERTEX
  5
28A
330
288
100
AcDbEntity
  8
EBENE_2
 62
   250
100
AcDbVertex
100
AcDb2dVertex
 10
125.9999999685025
 20
-11.99999999699952
 30
0.0
  0
SEQEND
  5
28B
330
288
100
AcDbEntity
  8
EBENE_2
 62
   250
  0
POLYLINE
  5
28C
330
1F
100
AcDbEntity
  8
EBENE_2
 62
   250
100
AcDb2dPolyline
 66
     1
 10
0.0
 20
0.0
 30
0.0
  0
VERTEX
  5
28D
330
28C
100
AcDbEntity
  8
EBENE_2
 62
   250
100
AcDbVertex
100
AcDb2dVertex
 10
117.9999999705024
 20
0.0
 30
0.0
  0
VERTEX
  5
28E
330
28C
100
AcDbEntity
  8
EBENE_2
 62
   250
100
AcDbVertex
100
AcDb2dVertex
 10
117.9999999705024
 20
-11.99999999699952
 30
0.0
  0
SEQEND
  5
28F
330
28C
100
AcDbEntity
  8
EBENE_2
 62
   250
  0
POLYLINE
  5
290
330
1F
100
AcDbEntity
  8
EBENE_2
 62
   250
100
AcDb2dPolyline
 66
     1
 10
0.0
 20
0.0
 30
0.0
  0
VERTEX
  5
291
330
290
100
AcDbEntity
  8
EBENE_2
 62
   250
100
AcDbVertex
100
AcDb2dVertex
 10
113.999999971503
 20
0.0
 30
0.0
  0
VERTEX
  5
292
330
290
100
AcDbEntity
  8
EBENE_2
 62
   250
100
AcDbVertex
100
AcDb2dVertex
 10
117.9999999705024
 20
0.0
 30
0.0
  0
SEQEND
  5
293
330
290
100
AcDbEntity
  8
EBENE_2
 62
   250
  0
POLYLINE
  5
294
330
1F
100
AcDbEntity
  8
EBENE_2
 62
   250
100
AcDb2dPolyline
 66
     1
 10
0.0
 20
0.0
 30
0.0
  0
VERTEX
  5
295
330
294
100
AcDbEntity
  8
EBENE_2
 62
   250
100
AcDbVertex
100
AcDb2dVertex
 10
113.999999971503
 20
3.999999999000374
 30
0.0
  0
VERTEX
  5
296
330
294
100
AcDbEntity
  8
EBENE_2
 62
   250
100
AcDbVertex
100
AcDb2dVertex
 10
113.999999971503
 20
0.0
 30
0.0
  0
SEQEND
  5
297
330
294
100
AcDbEntity
  8
EBENE_2
 62
   250
  0
POLYLINE
  5
298
330
1F
100
AcDbEntity
  8
EBENE_2
 62
   250
100
AcDb2dPolyline
 66
     1
 10
0.0
 20
0.0
 30
0.0
  0
VERTEX
  5
299
330
298
100
AcDbEntity
  8
EBENE_2
 62
   250
100
AcDbVertex
100
AcDb2dVertex
 10
109.9999999725026
 20
3.999999999000374
 30
0.0
  0
VERTEX
  5
29A
330
298
100
AcDbEntity
  8
EBENE_2
 62
   250
100
AcDbVertex
100
AcDb2dVertex
 10
113.999999971503
 20
3.999999999000374
 30
0.0
  0
SEQEND
  5
29B
330
298
100
AcDbEntity
  8
EBENE_2
 62
   250
  0
POLYLINE
  5
29C
330
1F
100
AcDbEntity
  8
EBENE_2
 62
   250
100
AcDb2dPolyline
 66
     1
 10
0.0
 20
0.0
 30
0.0
  0
VERTEX
  5
29D
330
29C
100
AcDbEntity
  8
EBENE_2
 62
   250
100
AcDbVertex
100
AcDb2dVertex
 10
109.9999999725026
 20
15.99999999600021
 30
0.0
  0
VERTEX
  5
29E
330
29C
100
AcDbEntity
  8
EBENE_2
 62
   250
100
AcDbVertex
100
AcDb2dVertex
 10
109.9999999725026
 20
3.999999999000374
 30
0.0
  0
SEQEND
  5
29F
330
29C
100
AcDbEntity
  8
EBENE_2
 62
   250
  0
POLYLINE
  5
2A0
330
1F
100
AcDbEntity
  8
EBENE_2
 62
   250
100
AcDb2dPolyline
 66
     1
 10
0.0
 20
0.0
 30
0.0
  0
VERTEX
  5
2A1
330
2A0
100
AcDbEntity
  8
EBENE_2
 62
   250
100
AcDbVertex
100
AcDb2dVertex
 10
93.99999997650238
 20
0.0
 30
0.0
  0
VERTEX
  5
2A2
330
2A0
100
AcDbEntity
  8
EBENE_2
 62
   250
100
AcDbVertex
100
AcDb2dVertex
 10
93.99999997650238
 20
11.99999999699952
 30
0.0
  0
SEQEND
  5
2A3
330
2A0
100
AcDbEntity
  8
EBENE_2
 62
   250
  0
POLYLINE
  5
2A4
330
1F
100
AcDbEntity
  8
EBENE_2
 62
   250
100
AcDb2dPolyline
 66
     1
 10
0.0
 20
0.0
 30
0.0
  0
VERTEX
  5
2A5
330
2A4
100
AcDbEntity
  8
EBENE_2
 62
   250
100
AcDbVertex
100
AcDb2dVertex
 10
81.99999997950222
 20
0.0
 30
0.0
  0
VERTEX
  5
2A6
330
2A4
100
AcDbEntity
  8
EBENE_2
 62
   250
100
AcDbVertex
100
AcDb2dVertex
 10
93.99999997650238
 20
0.0
 30
0.0
  0
SEQEND
  5
2A7
330
2A4
100
AcDbEntity
  8
EBENE_2
 62
   250
  0
POLYLINE
  5
2A8
330
1F
100
AcDbEntity
  8
EBENE_2
 62
   250
100
AcDb2dPolyline
 66
     1
 10
0.0
 20
0.0
 30
0.0
  0
VERTEX
  5
2A9
330
2A8
100
AcDbEntity
  8
EBENE_2
 62
   250
100
AcDbVertex
100
AcDb2dVertex
 10
81.99999997950222
 20
11.99999999699952
 30
0.0
  0
VERTEX
  5
2AA
330
2A8
100
AcDbEntity
  8
EBENE_2
 62
   250
100
AcDbVertex
100
AcDb2dVertex
 10
81.99999997950222
 20
0.0
 30
0.0
  0
SEQEND
  5
2AB
330
2A8
100
AcDbEntity
  8
EBENE_2
 62
   250
  0
POLYLINE
  5
2AC
330
1F
100
AcDbEntity
  8
EBENE_2
 62
   250
100
AcDb2dPolyline
 66
     1
 10
0.0
 20
0.0
 30
0.0
  0
VERTEX
  5
2AD
330
2AC
100
AcDbEntity
  8
EBENE_2
 62
   250
100
AcDbVertex
100
AcDb2dVertex
 10
93.99999997650238
 20
11.99999999699952
 30
0.0
  0
VERTEX
  5
2AE
330
2AC
100
AcDbEntity
  8
EBENE_2
 62
   250
100
AcDbVertex
100
AcDb2dVertex
 10
81.99999997950222
 20
11.99999999699952
 30
0.0
  0
SEQEND
  5
2AF
330
2AC
100
AcDbEntity
  8
EBENE_2
 62
   250
  0
POLYLINE
  5
2B0
330
1F
100
AcDbEntity
  8
EBENE_2
 62
   250
100
AcDb2dPolyline
 66
     1
 10
0.0
 20
0.0
 30
0.0
  0
VERTEX
  5
2B1
330
2B0
100
AcDbEntity
  8
EBENE_2
 62
   250
100
AcDbVertex
100
AcDb2dVertex
 10
-58.02444418791644
 20
0.0000003263687731
 30
0.0
  0
VERTEX
  5
2B2
330
2B0
100
AcDbEntity
  8
EBENE_2
 62
   250
100
AcDbVertex
100
AcDb2dVertex
 10
-58.02444418791644
 20
16.00000022912049
 30
0.0
  0
SEQEND
  5
2B3
330
2B0
100
AcDbEntity
  8
EBENE_2
 62
   250
  0
POLYLINE
  5
2B4
330
1F
100
AcDbEntity
  8
EBENE_2
 62
   250
100
AcDb2dPolyline
 66
     1
 10
0.0
 20
0.0
 30
0.0
  0
VERTEX
  5
2B5
330
2B4
100
AcDbEntity
  8
EBENE_2
 62
   250
100
AcDbVertex
100
AcDb2dVertex
 10
-54.02444421222867
 20
0.0000003263687731
 30
0.0
  0
VERTEX
  5
2B6
330
2B4
100
AcDbEntity
  8
EBENE_2
 62
   250
100
AcDbVertex
100
AcDb2dVertex
 10
-58.02444418791644
 20
0.0000003263687731
 30
0.0
  0
SEQEND
  5
2B7
330
2B4
100
AcDbEntity
  8
EBENE_2
 62
   250
  0
POLYLINE
  5
2B8
330
1F
100
AcDbEntity
  8
EBENE_2
 62
   250
100
AcDb2dPolyline
 66
     1
 10
0.0
 20
0.0
 30
0.0
  0
VERTEX
  5
2B9
330
2B8
100
AcDbEntity
  8
EBENE_2
 62
   250
100
AcDbVertex
100
AcDb2dVertex
 10
-54.02444421222867
 20
-3.999999649319316
 30
0.0
  0
VERTEX
  5
2BA
330
2B8
100
AcDbEntity
  8
EBENE_2
 62
   250
100
AcDbVertex
100
AcDb2dVertex
 10
-54.02444421222867
 20
0.0000003263687731
 30
0.0
  0
SEQEND
  5
2BB
330
2B8
100
AcDbEntity
  8
EBENE_2
 62
   250
  0
POLYLINE
  5
2BC
330
1F
100
AcDbEntity
  8
EBENE_2
 62
   250
100
AcDb2dPolyline
 66
     1
 10
0.0
 20
0.0
 30
0.0
  0
VERTEX
  5
2BD
330
2BC
100
AcDbEntity
  8
EBENE_2
 62
   250
100
AcDbVertex
100
AcDb2dVertex
 10
-50.02444423654089
 20
-3.999999649319316
 30
0.0
  0
VERTEX
  5
2BE
330
2BC
100
AcDbEntity
  8
EBENE_2
 62
   250
100
AcDbVertex
100
AcDb2dVertex
 10
-54.02444421222867
 20
-3.999999649319316
 30
0.0
  0
SEQEND
  5
2BF
330
2BC
100
AcDbEntity
  8
EBENE_2
 62
   250
  0
POLYLINE
  5
2C0
330
1F
100
AcDbEntity
  8
EBENE_2
 62
   250
100
AcDb2dPolyline
 66
     1
 10
0.0
 20
0.0
 30
0.0
  0
VERTEX
  5
2C1
330
2C0
100
AcDbEntity
  8
EBENE_2
 62
   250
100
AcDbVertex
100
AcDb2dVertex
 10
-50.02444423654089
 20
0.0000003263687731
 30
0.0
  0
VERTEX
  5
2C2
330
2C0
100
AcDbEntity
  8
EBENE_2
 62
   250
100
AcDbVertex
100
AcDb2dVertex
 10
-50.02444423654089
 20
-3.999999649319316
 30
0.0
  0
SEQEND
  5
2C3
330
2C0
100
AcDbEntity
  8
EBENE_2
 62
   250
  0
POLYLINE
  5
2C4
330
1F
100
AcDbEntity
  8
EBENE_2
 62
   250
100
AcDb2dPolyline
 66
     1
 10
0.0
 20
0.0
 30
0.0
  0
VERTEX
  5
2C5
330
2C4
100
AcDbEntity
  8
EBENE_2
 62
   250
100
AcDbVertex
100
AcDb2dVertex
 10
-46.02444426085281
 20
0.0000003263687731
 30
0.0
  0
VERTEX
  5
2C6
330
2C4
100
AcDbEntity
  8
EBENE_2
 62
   250
100
AcDbVertex
100
AcDb2dVertex
 10
-50.02444423654089
 20
0.0000003263687731
 30
0.0
  0
SEQEND
  5
2C7
330
2C4
100
AcDbEntity
  8
EBENE_2
 62
   250
  0
POLYLINE
  5
2C8
330
1F
100
AcDbEntity
  8
EBENE_2
 62
   250
100
AcDb2dPolyline
 66
     1
 10
0.0
 20
0.0
 30
0.0
  0
VERTEX
  5
2C9
330
2C8
100
AcDbEntity
  8
EBENE_2
 62
   250
100
AcDbVertex
100
AcDb2dVertex
 10
-46.02444426085281
 20
16.00000022912049
 30
0.0
  0
VERTEX
  5
2CA
330
2C8
100
AcDbEntity
  8
EBENE_2
 62
   250
100
AcDbVertex
100
AcDb2dVertex
 10
-46.02444426085281
 20
0.0000003263687731
 30
0.0
  0
SEQEND
  5
2CB
330
2C8
100
AcDbEntity
  8
EBENE_2
 62
   250
  0
POLYLINE
  5
2CC
330
1F
100
AcDbEntity
  8
EBENE_2
 62
   250
100
AcDb2dPolyline
 66
     1
 10
0.0
 20
0.0
 30
0.0
  0
VERTEX
  5
2CD
330
2CC
100
AcDbEntity
  8
EBENE_2
 62
   250
100
AcDbVertex
100
AcDb2dVertex
 10
-38.02444430947695
 20
16.00000022912049
 30
0.0
  0
VERTEX
  5
2CE
330
2CC
100
AcDbEntity
  8
EBENE_2
 62
   250
100
AcDbVertex
100
AcDb2dVertex
 10
-46.02444426085281
 20
16.00000022912049
 30
0.0
  0
SEQEND
  5
2CF
330
2CC
100
AcDbEntity
  8
EBENE_2
 62
   250
  0
POLYLINE
  5
2D0
330
1F
100
AcDbEntity
  8
EBENE_2
 62
   250
100
AcDb2dPolyline
 66
     1
 10
0.0
 20
0.0
 30
0.0
  0
VERTEX
  5
2D1
330
2D0
100
AcDbEntity
  8
EBENE_2
 62
   250
100
AcDbVertex
100
AcDb2dVertex
 10
-38.02444430947695
 20
0.0000003263687731
 30
0.0
  0
VERTEX
  5
2D2
330
2D0
100
AcDbEntity
  8
EBENE_2
 62
   250
100
AcDbVertex
100
AcDb2dVertex
 10
-38.02444430947695
 20
16.00000022912049
 30
0.0
  0
SEQEND
  5
2D3
330
2D0
100
AcDbEntity
  8
EBENE_2
 62
   250
  0
POLYLINE
  5
2D4
330
1F
100
AcDbEntity
  8
EBENE_2
 62
   250
100
AcDb2dPolyline
 66
     1
 10
0.0
 20
0.0
 30
0.0
  0
VERTEX
  5
2D5
330
2D4
100
AcDbEntity
  8
EBENE_2
 62
   250
100
AcDbVertex
100
AcDb2dVertex
 10
-42.02444428516472
 20
0.0000003263687731
 30
0.0
  0
VERTEX
  5
2D6
330
2D4
100
AcDbEntity
  8
EBENE_2
 62
   250
100
AcDbVertex
100
AcDb2dVertex
 10
-38.02444430947695
 20
0.0000003263687731
 30
0.0
  0
SEQEND
  5
2D7
330
2D4
100
AcDbEntity
  8
EBENE_2
 62
   250
  0
POLYLINE
  5
2D8
330
1F
100
AcDbEntity
  8
EBENE_2
 62
   250
100
AcDb2dPolyline
 66
     1
 10
0.0
 20
0.0
 30
0.0
  0
VERTEX
  5
2D9
330
2D8
100
AcDbEntity
  8
EBENE_2
 62
   250
100
AcDbVertex
100
AcDb2dVertex
 10
-42.02444428516472
 20
-3.999999649319316
 30
0.0
  0
VERTEX
  5
2DA
330
2D8
100
AcDbEntity
  8
EBENE_2
 62
   250
100
AcDbVertex
100
AcDb2dVertex
 10
-42.02444428516472
 20
0.0000003263687731
 30
0.0
  0
SEQEND
  5
2DB
330
2D8
100
AcDbEntity
  8
EBENE_2
 62
   250
  0
POLYLINE
  5
2DC
330
1F
100
AcDbEntity
  8
EBENE_2
 62
   250
100
AcDb2dPolyline
 66
     1
 10
0.0
 20
0.0
 30
0.0
  0
VERTEX
  5
2DD
330
2DC
100
AcDbEntity
  8
EBENE_2
 62
   250
100
AcDbVertex
100
AcDb2dVertex
 10
-46.02444426085281
 20
-3.999999649319316
 30
0.0
  0
VERTEX
  5
2DE
330
2DC
100
AcDbEntity
  8
EBENE_2
 62
   250
100
AcDbVertex
100
AcDb2dVertex
 10
-42.02444428516472
 20
-3.999999649319316
 30
0.0
  0
SEQEND
  5
2DF
330
2DC
100
AcDbEntity
  8
EBENE_2
 62
   250
  0
POLYLINE
  5
2E0
330
1F
100
AcDbEntity
  8
EBENE_2
 62
   250
100
AcDb2dPolyline
 66
     1
 10
0.0
 20
0.0
 30
0.0
  0
VERTEX
  5
2E1
330
2E0
100
AcDbEntity
  8
EBENE_2
 62
   250
100
AcDbVertex
100
AcDb2dVertex
 10
-46.02444426085281
 20
-7.999999625007407
 30
0.0
  0
VERTEX
  5
2E2
330
2E0
100
AcDbEntity
  8
EBENE_2
 62
   250
100
AcDbVertex
100
AcDb2dVertex
 10
-46.02444426085281
 20
-3.999999649319316
 30
0.0
  0
SEQEND
  5
2E3
330
2E0
100
AcDbEntity
  8
EBENE_2
 62
   250
  0
POLYLINE
  5
2E4
330
1F
100
AcDbEntity
  8
EBENE_2
 62
   250
100
AcDb2dPolyline
 66
     1
 10
0.0
 20
0.0
 30
0.0
  0
VERTEX
  5
2E5
330
2E4
100
AcDbEntity
  8
EBENE_2
 62
   250
100
AcDbVertex
100
AcDb2dVertex
 10
-50.02444423654089
 20
-7.999999625007407
 30
0.0
  0
VERTEX
  5
2E6
330
2E4
100
AcDbEntity
  8
EBENE_2
 62
   250
100
AcDbVertex
100
AcDb2dVertex
 10
-46.02444426085281
 20
-7.999999625007407
 30
0.0
  0
SEQEND
  5
2E7
330
2E4
100
AcDbEntity
  8
EBENE_2
 62
   250
  0
POLYLINE
  5
2E8
330
1F
100
AcDbEntity
  8
EBENE_2
 62
   250
100
AcDb2dPolyline
 66
     1
 10
0.0
 20
0.0
 30
0.0
  0
VERTEX
  5
2E9
330
2E8
100
AcDbEntity
  8
EBENE_2
 62
   250
100
AcDbVertex
100
AcDb2dVertex
 10
-50.02444423654089
 20
-11.99999960069517
 30
0.0
  0
VERTEX
  5
2EA
330
2E8
100
AcDbEntity
  8
EBENE_2
 62
   250
100
AcDbVertex
100
AcDb2dVertex
 10
-50.02444423654089
 20
-7.999999625007407
 30
0.0
  0
SEQEND
  5
2EB
330
2E8
100
AcDbEntity
  8
EBENE_2
 62
   250
  0
POLYLINE
  5
2EC
330
1F
100
AcDbEntity
  8
EBENE_2
 62
   250
100
AcDb2dPolyline
 66
     1
 10
0.0
 20
0.0
 30
0.0
  0
VERTEX
  5
2ED
330
2EC
100
AcDbEntity
  8
EBENE_2
 62
   250
100
AcDbVertex
100
AcDb2dVertex
 10
-54.02444421222867
 20
-11.99999960069517
 30
0.0
  0
VERTEX
  5
2EE
330
2EC
100
AcDbEntity
  8
EBENE_2
 62
   250
100
AcDbVertex
100
AcDb2dVertex
 10
-50.02444423654089
 20
-11.99999960069517
 30
0.0
  0
SEQEND
  5
2EF
330
2EC
100
AcDbEntity
  8
EBENE_2
 62
   250
  0
POLYLINE
  5
2F0
330
1F
100
AcDbEntity
  8
EBENE_2
 62
   250
100
AcDb2dPolyline
 66
     1
 10
0.0
 20
0.0
 30
0.0
  0
VERTEX
  5
2F1
330
2F0
100
AcDbEntity
  8
EBENE_2
 62
   250
100
AcDbVertex
100
AcDb2dVertex
 10
-54.02444421222867
 20
-7.999999625007407
 30
0.0
  0
VERTEX
  5
2F2
330
2F0
100
AcDbEntity
  8
EBENE_2
 62
   250
100
AcDbVertex
100
AcDb2dVertex
 10
-54.02444421222867
 20
-11.99999960069517
 30
0.0
  0
SEQEND
  5
2F3
330
2F0
100
AcDbEntity
  8
EBENE_2
 62
   250
  0
POLYLINE
  5
2F4
330
1F
100
AcDbEntity
  8
EBENE_2
 62
   250
100
AcDb2dPolyline
 66
     1
 10
0.0
 20
0.0
 30
0.0
  0
VERTEX
  5
2F5
330
2F4
100
AcDbEntity
  8
EBENE_2
 62
   250
100
AcDbVertex
100
AcDb2dVertex
 10
-58.02444418791644
 20
-7.999999625007407
 30
0.0
  0
VERTEX
  5
2F6
330
2F4
100
AcDbEntity
  8
EBENE_2
 62
   250
100
AcDbVertex
100
AcDb2dVertex
 10
-54.02444421222867
 20
-7.999999625007407
 30
0.0
  0
SEQEND
  5
2F7
330
2F4
100
AcDbEntity
  8
EBENE_2
 62
   250
  0
POLYLINE
  5
2F8
330
1F
100
AcDbEntity
  8
EBENE_2
 62
   250
100
AcDb2dPolyline
 66
     1
 10
0.0
 20
0.0
 30
0.0
  0
VERTEX
  5
2F9
330
2F8
100
AcDbEntity
  8
EBENE_2
 62
   250
100
AcDbVertex
100
AcDb2dVertex
 10
-58.02444418791644
 20
-3.999999649319316
 30
0.0
  0
VERTEX
  5
2FA
330
2F8
100
AcDbEntity
  8
EBENE_2
 62
   250
100
AcDbVertex
100
AcDb2dVertex
 10
-58.02444418791644
 20
-7.999999625007407
 30
0.0
  0
SEQEND
  5
2FB
330
2F8
100
AcDbEntity
  8
EBENE_2
 62
   250
  0
POLYLINE
  5
2FC
330
1F
100
AcDbEntity
  8
EBENE_2
 62
   250
100
AcDb2dPolyline
 66
     1
 10
0.0
 20
0.0
 30
0.0
  0
VERTEX
  5
2FD
330
2FC
100
AcDbEntity
  8
EBENE_2
 62
   250
100
AcDbVertex
100
AcDb2dVertex
 10
-62.02444416360453
 20
-3.999999649319316
 30
0.0
  0
VERTEX
  5
2FE
330
2FC
100
AcDbEntity
  8
EBENE_2
 62
   250
100
AcDbVertex
100
AcDb2dVertex
 10
-58.02444418791644
 20
-3.999999649319316
 30
0.0
  0
SEQEND
  5
2FF
330
2FC
100
AcDbEntity
  8
EBENE_2
 62
   250
  0
POLYLINE
  5
300
330
1F
100
AcDbEntity
  8
EBENE_2
 62
   250
100
AcDb2dPolyline
 66
     1
 10
0.0
 20
0.0
 30
0.0
  0
VERTEX
  5
301
330
300
100
AcDbEntity
  8
EBENE_2
 62
   250
100
AcDbVertex
100
AcDb2dVertex
 10
-62.02444416360453
 20
0.0000003263687731
 30
0.0
  0
VERTEX
  5
302
330
300
100
AcDbEntity
  8
EBENE_2
 62
   250
100
AcDbVertex
100
AcDb2dVertex
 10
-62.02444416360453
 20
-3.999999649319316
 30
0.0
  0
SEQEND
  5
303
330
300
100
AcDbEntity
  8
EBENE_2
 62
   250
  0
POLYLINE
  5
304
330
1F
100
AcDbEntity
  8
EBENE_2
 62
   250
100
AcDb2dPolyline
 66
     1
 10
0.0
 20
0.0
 30
0.0
  0
VERTEX
  5
305
330
304
100
AcDbEntity
  8
EBENE_2
 62
   250
100
AcDbVertex
100
AcDb2dVertex
 10
-66.02444413929261
 20
0.0000003263687731
 30
0.0
  0
VERTEX
  5
306
330
304
100
AcDbEntity
  8
EBENE_2
 62
   250
100
AcDbVertex
100
AcDb2dVertex
 10
-62.02444416360453
 20
0.0000003263687731
 30
0.0
  0
SEQEND
  5
307
330
304
100
AcDbEntity
  8
EBENE_2
 62
   250
  0
POLYLINE
  5
308
330
1F
100
AcDbEntity
  8
EBENE_2
 62
   250
100
AcDb2dPolyline
 66
     1
 10
0.0
 20
0.0
 30
0.0
  0
VERTEX
  5
309
330
308
100
AcDbEntity
  8
EBENE_2
 62
   250
100
AcDbVertex
100
AcDb2dVertex
 10
-66.02444413929261
 20
16.00000022912049
 30
0.0
  0
VERTEX
  5
30A
330
308
100
AcDbEntity
  8
EBENE_2
 62
   250
100
AcDbVertex
100
AcDb2dVertex
 10
-66.02444413929261
 20
0.0000003263687731
 30
0.0
  0
SEQEND
  5
30B
330
308
100
AcDbEntity
  8
EBENE_2
 62
   250
  0
POLYLINE
  5
30C
330
1F
100
AcDbEntity
  8
EBENE_2
 62
   250
100
AcDb2dPolyline
 66
     1
 10
0.0
 20
0.0
 30
0.0
  0
VERTEX
  5
30D
330
30C
100
AcDbEntity
  8
EBENE_2
 62
   250
100
AcDbVertex
100
AcDb2dVertex
 10
-58.02444418791644
 20
16.00000022912049
 30
0.0
  0
VERTEX
  5
30E
330
30C
100
AcDbEntity
  8
EBENE_2
 62
   250
100
AcDbVertex
100
AcDb2dVertex
 10
-66.02444413929261
 20
16.00000022912049
 30
0.0
  0
SEQEND
  5
30F
330
30C
100
AcDbEntity
  8
EBENE_2
 62
   250
  0
POLYLINE
  5
310
330
1F
100
AcDbEntity
  8
EBENE_2
 62
   250
100
AcDb2dPolyline
 66
     1
 10
0.0
 20
0.0
 30
0.0
  0
VERTEX
  5
311
330
310
100
AcDbEntity
  8
EBENE_2
 62
   250
100
AcDbVertex
100
AcDb2dVertex
 10
5.975555423090433
 20
-11.99999960069517
 30
0.0
  0
VERTEX
  5
312
330
310
100
AcDbEntity
  8
EBENE_2
 62
   250
100
AcDbVertex
100
AcDb2dVertex
 10
5.975555423090433
 20
16.00000022912049
 30
0.0
  0
SEQEND
  5
313
330
310
100
AcDbEntity
  8
EBENE_2
 62
   250
  0
POLYLINE
  5
314
330
1F
100
AcDbEntity
  8
EBENE_2
 62
   250
100
AcDb2dPolyline
 66
     1
 10
0.0
 20
0.0
 30
0.0
  0
VERTEX
  5
315
330
314
100
AcDbEntity
  8
EBENE_2
 62
   250
100
AcDbVertex
100
AcDb2dVertex
 10
13.97555537446629
 20
-11.99999960069517
 30
0.0
  0
VERTEX
  5
316
330
314
100
AcDbEntity
  8
EBENE_2
 62
   250
100
AcDbVertex
100
AcDb2dVertex
 10
5.975555423090433
 20
-11.99999960069517
 30
0.0
  0
SEQEND
  5
317
330
314
100
AcDbEntity
  8
EBENE_2
 62
   250
  0
POLYLINE
  5
318
330
1F
100
AcDbEntity
  8
EBENE_2
 62
   250
100
AcDb2dPolyline
 66
     1
 10
0.0
 20
0.0
 30
0.0
  0
VERTEX
  5
319
330
318
100
AcDbEntity
  8
EBENE_2
 62
   250
100
AcDbVertex
100
AcDb2dVertex
 10
13.97555537446629
 20
0.0000003263687731
 30
0.0
  0
VERTEX
  5
31A
330
318
100
AcDbEntity
  8
EBENE_2
 62
   250
100
AcDbVertex
100
AcDb2dVertex
 10
13.97555537446629
 20
-11.99999960069517
 30
0.0
  0
SEQEND
  5
31B
330
318
100
AcDbEntity
  8
EBENE_2
 62
   250
  0
POLYLINE
  5
31C
330
1F
100
AcDbEntity
  8
EBENE_2
 62
   250
100
AcDb2dPolyline
 66
     1
 10
0.0
 20
0.0
 30
0.0
  0
VERTEX
  5
31D
330
31C
100
AcDbEntity
  8
EBENE_2
 62
   250
100
AcDbVertex
100
AcDb2dVertex
 10
25.97555530153024
 20
0.0000003263687731
 30
0.0
  0
VERTEX
  5
31E
330
31C
100
AcDbEntity
  8
EBENE_2
 62
   250
100
AcDbVertex
100
AcDb2dVertex
 10
13.97555537446629
 20
0.0000003263687731
 30
0.0
  0
SEQEND
  5
31F
330
31C
100
AcDbEntity
  8
EBENE_2
 62
   250
  0
POLYLINE
  5
320
330
1F
100
AcDbEntity
  8
EBENE_2
 62
   250
100
AcDb2dPolyline
 66
     1
 10
0.0
 20
0.0
 30
0.0
  0
VERTEX
  5
321
330
320
100
AcDbEntity
  8
EBENE_2
 62
   250
100
AcDbVertex
100
AcDb2dVertex
 10
25.97555530153024
 20
-11.99999960069517
 30
0.0
  0
VERTEX
  5
322
330
320
100
AcDbEntity
  8
EBENE_2
 62
   250
100
AcDbVertex
100
AcDb2dVertex
 10
25.97555530153024
 20
0.0000003263687731
 30
0.0
  0
SEQEND
  5
323
330
320
100
AcDbEntity
  8
EBENE_2
 62
   250
  0
POLYLINE
  5
324
330
1F
100
AcDbEntity
  8
EBENE_2
 62
   250
100
AcDb2dPolyline
 66
     1
 10
0.0
 20
0.0
 30
0.0
  0
VERTEX
  5
325
330
324
100
AcDbEntity
  8
EBENE_2
 62
   250
100
AcDbVertex
100
AcDb2dVertex
 10
33.9755552529061
 20
-11.99999960069517
 30
0.0
  0
VERTEX
  5
326
330
324
100
AcDbEntity
  8
EBENE_2
 62
   250
100
AcDbVertex
100
AcDb2dVertex
 10
25.97555530153024
 20
-11.99999960069517
 30
0.0
  0
SEQEND
  5
327
330
324
100
AcDbEntity
  8
EBENE_2
 62
   250
  0
POLYLINE
  5
328
330
1F
100
AcDbEntity
  8
EBENE_2
 62
   250
100
AcDb2dPolyline
 66
     1
 10
0.0
 20
0.0
 30
0.0
  0
VERTEX
  5
329
330
328
100
AcDbEntity
  8
EBENE_2
 62
   250
100
AcDbVertex
100
AcDb2dVertex
 10
33.9755552529061
 20
0.0000003263687731
 30
0.0
  0
VERTEX
  5
32A
330
328
100
AcDbEntity
  8
EBENE_2
 62
   250
100
AcDbVertex
100
AcDb2dVertex
 10
33.9755552529061
 20
-11.99999960069517
 30
0.0
  0
SEQEND
  5
32B
330
328
100
AcDbEntity
  8
EBENE_2
 62
   250
  0
POLYLINE
  5
32C
330
1F
100
AcDbEntity
  8
EBENE_2
 62
   250
100
AcDb2dPolyline
 66
     1
 10
0.0
 20
0.0
 30
0.0
  0
VERTEX
  5
32D
330
32C
100
AcDbEntity
  8
EBENE_2
 62
   250
100
AcDbVertex
100
AcDb2dVertex
 10
29.97555527721801
 20
0.0000003263687731
 30
0.0
  0
VERTEX
  5
32E
330
32C
100
AcDbEntity
  8
EBENE_2
 62
   250
100
AcDbVertex
100
AcDb2dVertex
 10
33.9755552529061
 20
0.0000003263687731
 30
0.0
  0
SEQEND
  5
32F
330
32C
100
AcDbEntity
  8
EBENE_2
 62
   250
  0
POLYLINE
  5
330
330
1F
100
AcDbEntity
  8
EBENE_2
 62
   250
100
AcDb2dPolyline
 66
     1
 10
0.0
 20
0.0
 30
0.0
  0
VERTEX
  5
331
330
330
100
AcDbEntity
  8
EBENE_2
 62
   250
100
AcDbVertex
100
AcDb2dVertex
 10
29.97555527721801
 20
4.000000302056863
 30
0.0
  0
VERTEX
  5
332
330
330
100
AcDbEntity
  8
EBENE_2
 62
   250
100
AcDbVertex
100
AcDb2dVertex
 10
29.97555527721801
 20
0.0000003263687731
 30
0.0
  0
SEQEND
  5
333
330
330
100
AcDbEntity
  8
EBENE_2
 62
   250
  0
POLYLINE
  5
334
330
1F
100
AcDbEntity
  8
EBENE_2
 62
   250
100
AcDb2dPolyline
 66
     1
 10
0.0
 20
0.0
 30
0.0
  0
VERTEX
  5
335
330
334
100
AcDbEntity
  8
EBENE_2
 62
   250
100
AcDbVertex
100
AcDb2dVertex
 10
33.9755552529061
 20
4.000000302056863
 30
0.0
  0
VERTEX
  5
336
330
334
100
AcDbEntity
  8
EBENE_2
 62
   250
100
AcDbVertex
100
AcDb2dVertex
 10
29.97555527721801
 20
4.000000302056863
 30
0.0
  0
SEQEND
  5
337
330
334
100
AcDbEntity
  8
EBENE_2
 62
   250
  0
POLYLINE
  5
338
330
1F
100
AcDbEntity
  8
EBENE_2
 62
   250
100
AcDb2dPolyline
 66
     1
 10
0.0
 20
0.0
 30
0.0
  0
VERTEX
  5
339
330
338
100
AcDbEntity
  8
EBENE_2
 62
   250
100
AcDbVertex
100
AcDb2dVertex
 10
33.9755552529061
 20
12.0000002534324
 30
0.0
  0
VERTEX
  5
33A
330
338
100
AcDbEntity
  8
EBENE_2
 62
   250
100
AcDbVertex
100
AcDb2dVertex
 10
33.9755552529061
 20
4.000000302056863
 30
0.0
  0
SEQEND
  5
33B
330
338
100
AcDbEntity
  8
EBENE_2
 62
   250
  0
POLYLINE
  5
33C
330
1F
100
AcDbEntity
  8
EBENE_2
 62
   250
100
AcDb2dPolyline
 66
     1
 10
0.0
 20
0.0
 30
0.0
  0
VERTEX
  5
33D
330
33C
100
AcDbEntity
  8
EBENE_2
 62
   250
100
AcDbVertex
100
AcDb2dVertex
 10
29.97555527721801
 20
12.0000002534324
 30
0.0
  0
VERTEX
  5
33E
330
33C
100
AcDbEntity
  8
EBENE_2
 62
   250
100
AcDbVertex
100
AcDb2dVertex
 10
33.9755552529061
 20
12.0000002534324
 30
0.0
  0
SEQEND
  5
33F
330
33C
100
AcDbEntity
  8
EBENE_2
 62
   250
  0
POLYLINE
  5
340
330
1F
100
AcDbEntity
  8
EBENE_2
 62
   250
100
AcDb2dPolyline
 66
     1
 10
0.0
 20
0.0
 30
0.0
  0
VERTEX
  5
341
330
340
100
AcDbEntity
  8
EBENE_2
 62
   250
100
AcDbVertex
100
AcDb2dVertex
 10
29.97555527721801
 20
16.00000022912049
 30
0.0
  0
VERTEX
  5
342
330
340
100
AcDbEntity
  8
EBENE_2
 62
   250
100
AcDbVertex
100
AcDb2dVertex
 10
29.97555527721801
 20
12.0000002534324
 30
0.0
  0
SEQEND
  5
343
330
340
100
AcDbEntity
  8
EBENE_2
 62
   250
  0
POLYLINE
  5
344
330
1F
100
AcDbEntity
  8
EBENE_2
 62
   250
100
AcDb2dPolyline
 66
     1
 10
0.0
 20
0.0
 30
0.0
  0
VERTEX
  5
345
330
344
100
AcDbEntity
  8
EBENE_2
 62
   250
100
AcDbVertex
100
AcDb2dVertex
 10
5.975555423090433
 20
16.00000022912049
 30
0.0
  0
VERTEX
  5
346
330
344
100
AcDbEntity
  8
EBENE_2
 62
   250
100
AcDbVertex
100
AcDb2dVertex
 10
29.97555527721801
 20
16.00000022912049
 30
0.0
  0
SEQEND
  5
347
330
344
100
AcDbEntity
  8
EBENE_2
 62
   250
  0
POLYLINE
  5
348
330
1F
100
AcDbEntity
  8
EBENE_2
 62
   250
100
AcDb2dPolyline
 66
     1
 10
0.0
 20
0.0
 30
0.0
  0
VERTEX
  5
349
330
348
100
AcDbEntity
  8
EBENE_2
 62
   250
100
AcDbVertex
100
AcDb2dVertex
 10
97.97555486391329
 20
16.00000022912049
 30
0.0
  0
VERTEX
  5
34A
330
348
100
AcDbEntity
  8
EBENE_2
 62
   250
100
AcDbVertex
100
AcDb2dVertex
 10
77.97555498547348
 20
16.00000022912049
 30
0.0
  0
SEQEND
  5
34B
330
348
100
AcDbEntity
  8
EBENE_2
 62
   250
  0
POLYLINE
  5
34C
330
1F
100
AcDbEntity
  8
EBENE_2
 62
   250
100
AcDb2dPolyline
 66
     1
 10
0.0
 20
0.0
 30
0.0
  0
VERTEX
  5
34D
330
34C
100
AcDbEntity
  8
EBENE_2
 62
   250
100
AcDbVertex
100
AcDb2dVertex
 10
97.97555486391329
 20
12.0000002534324
 30
0.0
  0
VERTEX
  5
34E
330
34C
100
AcDbEntity
  8
EBENE_2
 62
   250
100
AcDbVertex
100
AcDb2dVertex
 10
97.97555486391329
 20
16.00000022912049
 30
0.0
  0
SEQEND
  5
34F
330
34C
100
AcDbEntity
  8
EBENE_2
 62
   250
  0
POLYLINE
  5
350
330
1F
100
AcDbEntity
  8
EBENE_2
 62
   250
100
AcDb2dPolyline
 66
     1
 10
0.0
 20
0.0
 30
0.0
  0
VERTEX
  5
351
330
350
100
AcDbEntity
  8
EBENE_2
 62
   250
100
AcDbVertex
100
AcDb2dVertex
 10
101.9755548396011
 20
12.0000002534324
 30
0.0
  0
VERTEX
  5
352
330
350
100
AcDbEntity
  8
EBENE_2
 62
   250
100
AcDbVertex
100
AcDb2dVertex
 10
97.97555486391329
 20
12.0000002534324
 30
0.0
  0
SEQEND
  5
353
330
350
100
AcDbEntity
  8
EBENE_2
 62
   250
  0
POLYLINE
  5
354
330
1F
100
AcDbEntity
  8
EBENE_2
 62
   250
100
AcDb2dPolyline
 66
     1
 10
0.0
 20
0.0
 30
0.0
  0
VERTEX
  5
355
330
354
100
AcDbEntity
  8
EBENE_2
 62
   250
100
AcDbVertex
100
AcDb2dVertex
 10
101.9755548396011
 20
-11.99999960069517
 30
0.0
  0
VERTEX
  5
356
330
354
100
AcDbEntity
  8
EBENE_2
 62
   250
100
AcDbVertex
100
AcDb2dVertex
 10
101.9755548396011
 20
12.0000002534324
 30
0.0
  0
SEQEND
  5
357
330
354
100
AcDbEntity
  8
EBENE_2
 62
   250
  0
POLYLINE
  5
358
330
1F
100
AcDbEntity
  8
EBENE_2
 62
   250
100
AcDb2dPolyline
 66
     1
 10
0.0
 20
0.0
 30
0.0
  0
VERTEX
  5
359
330
358
100
AcDbEntity
  8
EBENE_2
 62
   250
100
AcDbVertex
100
AcDb2dVertex
 10
93.9755548882252
 20
-11.99999960069517
 30
0.0
  0
VERTEX
  5
35A
330
358
100
AcDbEntity
  8
EBENE_2
 62
   250
100
AcDbVertex
100
AcDb2dVertex
 10
101.9755548396011
 20
-11.99999960069517
 30
0.0
  0
SEQEND
  5
35B
330
358
100
AcDbEntity
  8
EBENE_2
 62
   250
  0
POLYLINE
  5
35C
330
1F
100
AcDbEntity
  8
EBENE_2
 62
   250
100
AcDb2dPolyline
 66
     1
 10
0.0
 20
0.0
 30
0.0
  0
VERTEX
  5
35D
330
35C
100
AcDbEntity
  8
EBENE_2
 62
   250
100
AcDbVertex
100
AcDb2dVertex
 10
93.9755548882252
 20
-3.999999649319316
 30
0.0
  0
VERTEX
  5
35E
330
35C
100
AcDbEntity
  8
EBENE_2
 62
   250
100
AcDbVertex
100
AcDb2dVertex
 10
93.9755548882252
 20
-11.99999960069517
 30
0.0
  0
SEQEND
  5
35F
330
35C
100
AcDbEntity
  8
EBENE_2
 62
   250
  0
POLYLINE
  5
360
330
1F
100
AcDbEntity
  8
EBENE_2
 62
   250
100
AcDb2dPolyline
 66
     1
 10
0.0
 20
0.0
 30
0.0
  0
VERTEX
  5
361
330
360
100
AcDbEntity
  8
EBENE_2
 62
   250
100
AcDbVertex
100
AcDb2dVertex
 10
81.97555496116156
 20
-3.999999649319316
 30
0.0
  0
VERTEX
  5
362
330
360
100
AcDbEntity
  8
EBENE_2
 62
   250
100
AcDbVertex
100
AcDb2dVertex
 10
93.9755548882252
 20
-3.999999649319316
 30
0.0
  0
SEQEND
  5
363
330
360
100
AcDbEntity
  8
EBENE_2
 62
   250
  0
POLYLINE
  5
364
330
1F
100
AcDbEntity
  8
EBENE_2
 62
   250
100
AcDb2dPolyline
 66
     1
 10
0.0
 20
0.0
 30
0.0
  0
VERTEX
  5
365
330
364
100
AcDbEntity
  8
EBENE_2
 62
   250
100
AcDbVertex
100
AcDb2dVertex
 10
81.97555496116156
 20
-11.99999960069517
 30
0.0
  0
VERTEX
  5
366
330
364
100
AcDbEntity
  8
EBENE_2
 62
   250
100
AcDbVertex
100
AcDb2dVertex
 10
81.97555496116156
 20
-3.999999649319316
 30
0.0
  0
SEQEND
  5
367
330
364
100
AcDbEntity
  8
EBENE_2
 62
   250
  0
POLYLINE
  5
368
330
1F
100
AcDbEntity
  8
EBENE_2
 62
   250
100
AcDb2dPolyline
 66
     1
 10
0.0
 20
0.0
 30
0.0
  0
VERTEX
  5
369
330
368
100
AcDbEntity
  8
EBENE_2
 62
   250
100
AcDbVertex
100
AcDb2dVertex
 10
73.9755550097854
 20
-11.99999960069517
 30
0.0
  0
VERTEX
  5
36A
330
368
100
AcDbEntity
  8
EBENE_2
 62
   250
100
AcDbVertex
100
AcDb2dVertex
 10
81.97555496116156
 20
-11.99999960069517
 30
0.0
  0
SEQEND
  5
36B
330
368
100
AcDbEntity
  8
EBENE_2
 62
   250
  0
POLYLINE
  5
36C
330
1F
100
AcDbEntity
  8
EBENE_2
 62
   250
100
AcDb2dPolyline
 66
     1
 10
0.0
 20
0.0
 30
0.0
  0
VERTEX
  5
36D
330
36C
100
AcDbEntity
  8
EBENE_2
 62
   250
100
AcDbVertex
100
AcDb2dVertex
 10
73.9755550097854
 20
12.0000002534324
 30
0.0
  0
VERTEX
  5
36E
330
36C
100
AcDbEntity
  8
EBENE_2
 62
   250
100
AcDbVertex
100
AcDb2dVertex
 10
73.9755550097854
 20
-11.99999960069517
 30
0.0
  0
SEQEND
  5
36F
330
36C
100
AcDbEntity
  8
EBENE_2
 62
   250
  0
POLYLINE
  5
370
330
1F
100
AcDbEntity
  8
EBENE_2
 62
   250
100
AcDb2dPolyline
 66
     1
 10
0.0
 20
0.0
 30
0.0
  0
VERTEX
  5
371
330
370
100
AcDbEntity
  8
EBENE_2
 62
   250
100
AcDbVertex
100
AcDb2dVertex
 10
77.97555498547348
 20
12.0000002534324
 30
0.0
  0
VERTEX
  5
372
330
370
100
AcDbEntity
  8
EBENE_2
 62
   250
100
AcDbVertex
100
AcDb2dVertex
 10
73.9755550097854
 20
12.0000002534324
 30
0.0
  0
SEQEND
  5
373
330
370
100
AcDbEntity
  8
EBENE_2
 62
   250
  0
POLYLINE
  5
374
330
1F
100
AcDbEntity
  8
EBENE_2
 62
   250
100
AcDb2dPolyline
 66
     1
 10
0.0
 20
0.0
 30
0.0
  0
VERTEX
  5
375
330
374
100
AcDbEntity
  8
EBENE_2
 62
   250
100
AcDbVertex
100
AcDb2dVertex
 10
77.97555498547348
 20
16.00000022912049
 30
0.0
  0
VERTEX
  5
376
330
374
100
AcDbEntity
  8
EBENE_2
 62
   250
100
AcDbVertex
100
AcDb2dVertex
 10
77.97555498547348
 20
12.0000002534324
 30
0.0
  0
SEQEND
  5
377
330
374
100
AcDbEntity
  8
EBENE_2
 62
   250
  0
ENDSEC
  0
SECTION
  2
OBJECTS
  0
DICTIONARY
  5
C
330
0
100
AcDbDictionary
  3
ACAD_GROUP
350
D
  3
ACAD_LAYOUT
350
1A
  3
ACAD_MATERIAL
350
3B
  3
ACAD_MLEADERSTYLE
350
37A
  3
ACAD_MLINESTYLE
350
17
  3
ACAD_PLOTSETTINGS
350
19
  3
ACAD_VISUALSTYLE
350
2A
  3
ACDBVARIABLEDICTIONARY
350
378
1001
ACAD
1000
TREAT_AS_HARD
1070
     0
  0
DICTIONARY
  5
D
102
{ACAD_REACTORS
330
C
102
}
330
C
100
AcDbDictionary
1001
ACAD
1000
TREAT_AS_HARD
1070
     0
  0
DICTIONARY
  5
1A
102
{ACAD_REACTORS
330
C
102
}
330
C
100
AcDbDictionary
1001
ACAD
1000
TREAT_AS_HARD
1070
     0
  0
DICTIONARY
  5
3B
102
{ACAD_REACTORS
330
C
102
}
330
C
100
AcDbDictionary
  3
BYBLOCK
350
3D
  3
BYLAYER
350
3C
  3
GLOBAL
350
3E
1001
ACAD
1000
TREAT_AS_HARD
1070
     0
  0
DICTIONARY
  5
37A
102
{ACAD_REACTORS
330
C
102
}
330
C
100
AcDbDictionary
1001
ACAD
1000
TREAT_AS_HARD
1070
     0
  0
DICTIONARY
  5
17
102
{ACAD_REACTORS
330
C
102
}
330
C
100
AcDbDictionary
  3
STANDARD
350
18
1001
ACAD
1000
TREAT_AS_HARD
1070
     0
  0
DICTIONARY
  5
19
102
{ACAD_REACTORS
330
C
102
}
330
C
100
AcDbDictionary
1001
ACAD
1000
TREAT_AS_HARD
1070
     0
  0
DICTIONARY
  5
2A
102
{ACAD_REACTORS
330
C
102
}
330
C
100
AcDbDictionary
  3
2DWIREFRAME
350
2F
  3
3DWIREFRAME
350
30
  3
3D_HIDDEN
350
31
  3
BASIC
350
32
  3
BRIGHTEN
350
36
  3
COLORCHANGE
350
3A
  3
CONCEPTUAL
350
34
  3
DIM
350
35
  3
FACEPATTERN
350
39
  3
FLAT
350
2B
  3
FLATWITHEDGES
350
2C
  3
GOURAUD
350
2D
  3
GOURAUDWITHEDGES
350
2E
  3
LINEPATTERN
350
38
  3
REALISTIC
350
33
  3
THICKEN
350
37
1001
ACAD
1000
TREAT_AS_HARD
1070
     0
  0
DICTIONARY
  5
378
102
{ACAD_REACTORS
330
C
102
}
330
C
100
AcDbDictionary
  3
DIMASSOC
350
37B
  3
HIDETEXT
350
37C
1001
ACAD
1000
TREAT_AS_HARD
1070
     0
  0
MATERIAL
  5
3D
102
{ACAD_REACTORS
330
3B
102
}
102
{ACAD_XDICTIONARY
360
37F
102
}
330
3B
100
AcDbMaterial
  1
ByBlock
  0
MATERIAL
  5
3C
102
{ACAD_REACTORS
330
3B
102
}
102
{ACAD_XDICTIONARY
360
37D
102
}
330
3B
100
AcDbMaterial
  1
ByLayer
  0
MATERIAL
  5
3E
102
{ACAD_REACTORS
330
3B
102
}
102
{ACAD_XDICTIONARY
360
381
102
}
330
3B
100
AcDbMaterial
  1
Global
  0
MLINESTYLE
  5
18
102
{ACAD_REACTORS
330
17
102
}
330
17
100
AcDbMlineStyle
  2
Standard
 70
     0
  3

 62
   256
 51
90.0
 52
90.0
 71
     2
 49
0.5
 62
   256
  6
BYLAYER
 49
-0.5
 62
   256
  6
BYLAYER
  0
ACAD_PROXY_OBJECT
  5
2F
102
{ACAD_REACTORS
330
2A
102
}
330
2A
100
AcDbZombieObject
 90
      499
 91
      501
 93
      436
310
42CC9915DA5C99599C985B595049028333333333333E3BF0000000000000FB0107901411070040501600405405064090741402480A0340
1001
ACAD
1000
AcDbSavedByObjectVersion
1070
     0
  0
ACAD_PROXY_OBJECT
  5
30
102
{ACAD_REACTORS
330
2A
102
}
330
2A
100
AcDbZombieObject
 90
      499
 91
      501
 93
      436
310
42CCD915DA5C99599C985B595059028333333333333E3BF0000000000000FB0107901411070040501600405405064090741402480A0340
1001
ACAD
1000
AcDbSavedByObjectVersion
1070
     0
  0
ACAD_PROXY_OBJECT
  5
31
102
{ACAD_REACTORS
330
2A
102
}
330
2A
100
AcDbZombieObject
 90
      499
 91
      501
 93
      500
310
424CD108121A5919195B90640502408333333333333E3BF0000000000000FB01079024090700405020000000000001110200405405064090740C02480A0340
1001
ACAD
1000
AcDbSavedByObjectVersion
1070
     0
  0
ACAD_PROXY_OBJECT
  5
32
102
{ACAD_REACTORS
330
2A
102
}
330
2A
100
AcDbZombieObject
 90
      499
 91
      501
 93
      388
310
4150985CDA58D07406404333333333333E3BF0000000000000FB0107A41107004050150841D405064090741402480A0350
1001
ACAD
1000
AcDbSavedByObjectVersion
1070
     0
  0
ACAD_PROXY_OBJECT
  5
36
102
{ACAD_REACTORS
330
2A
102
}
330
2A
100
AcDbZombieObject
 90
      499
 91
      501
 93
      428
310
42109C9A59DA1D195B90C409028333333333333E3BF0000000000000FB010790141107004050150841D405064090741402480A029950
1001
ACAD
1000
AcDbSavedByObjectVersion
1070
     0
  0
ACAD_PROXY_OBJECT
  5
3A
102
{ACAD_REACTORS
330
2A
102
}
330
2A
100
AcDbZombieObject
 90
      499
 91
      501
 93
      452
310
42D0DBDB1BDC90DA185B99D95104090240C333333333333E3BF0000000000000FB0108901411070040501508421405064090741402480A0350
1001
ACAD
1000
AcDbSavedByObjectVersion
1070
     0
  0
ACAD_PROXY_OBJECT
  5
34
102
{ACAD_REACTORS
330
2A
102
}
330
2A
100
AcDbZombieObject
 90
      499
 91
      501
 93
      500
310
4290DBDB98D95C1D1D585B10940D028333333333333E3BF0000000000000FB0107902409070040501000000000000111010841D405064090740C02480A0340
1001
ACAD
1000
AcDbSavedByObjectVersion
1070
     0
  0
ACAD_PROXY_OBJECT
  5
35
102
{ACAD_REACTORS
330
2A
102
}
330
2A
100
AcDbZombieObject
 90
      499
 91
      501
 93
      412
310
40D11A5B50B409028333333333333E3BF0000000000000FB010790141107004050150841D405064090741402480A02677FFFFFD0
1001
ACAD
1000
AcDbSavedByObjectVersion
1070
     0
  0
ACAD_PROXY_OBJECT
  5
39
102
{ACAD_REACTORS
330
2A
102
}
330
2A
100
AcDbZombieObject
 90
      499
 91
      501
 93
      444
310
42D19858D95C185D1D195C9B90F409028333333333333E3BF0000000000000FB010790141107004050150841D405064090741402480A0350
1001
ACAD
1000
AcDbSavedByObjectVersion
1070
     0
  0
ACAD_PROXY_OBJECT
  5
2B
102
{ACAD_REACTORS
330
2A
102
}
330
2A
100
AcDbZombieObject
 90
      499
 91
      501
 93
      388
310
41119B185D240901404333333333333E3BF0000000000000F9010740A41107004050150841D405064090741402480A1B50
1001
ACAD
1000
AcDbSavedByObjectVersion
1070
     0
  0
ACAD_PROXY_OBJECT
  5
2C
102
{ACAD_REACTORS
330
2A
102
}
330
2A
100
AcDbZombieObject
 90
      499
 91
      501
 93
      476
310
43519B185D15DA5D1A115919D95CD0140901404333333333333E3BF0000000000000F9010740901411070040501600405405064090741402480A1B50
1001
ACAD
1000
AcDbSavedByObjectVersion
1070
     0
  0
ACAD_PROXY_OBJECT
  5
2D
102
{ACAD_REACTORS
330
2A
102
}
330
2A
100
AcDbZombieObject
 90
      499
 91
      501
 93
      412
310
41D1DBDD5C985D5910240902404333333333333E3BF0000000000000F9010740A411070040501641D405064090741402480A1B50
1001
ACAD
1000
AcDbSavedByObjectVersion
1070
     0
  0
ACAD_PROXY_OBJECT
  5
2E
102
{ACAD_REACTORS
330
2A
102
}
330
2A
100
AcDbZombieObject
 90
      499
 91
      501
 93
      500
310
4411DBDD5C985D5915DA5D1A115919D95CD0340902404333333333333E3BF0000000000000F9010740901411070040501600405405064090741402480A1B50
1001
ACAD
1000
AcDbSavedByObjectVersion
1070
     0
  0
ACAD_PROXY_OBJECT
  5
38
102
{ACAD_REACTORS
330
2A
102
}
330
2A
100
AcDbZombieObject
 90
      499
 91
      501
 93
      444
310
42D31A5B995C185D1D195C9B90E409028333333333333E3BF0000000000000FB010790141107004050750841D405064090741402483A0350
1001
ACAD
1000
AcDbSavedByObjectVersion
1070
     0
  0
ACAD_PROXY_OBJECT
  5
33
102
{ACAD_REACTORS
330
2A
102
}
330
2A
100
AcDbZombieObject
 90
      499
 91
      501
 93
      420
310
425499585B1A5CDD1A58D08409028333333333333E3BF0000000000000FB01079019070040501508421405064090741402480A1B40
1001
ACAD
1000
AcDbSavedByObjectVersion
1070
     0
  0
ACAD_PROXY_OBJECT
  5
37
102
{ACAD_REACTORS
330
2A
102
}
330
2A
100
AcDbZombieObject
 90
      499
 91
      501
 93
      412
310
41D51A1A58DAD95B90D409028333333333333E3BF0000000000000FB010790141107004050150C41D405064090741402480A0350
1001
ACAD
1000
AcDbSavedByObjectVersion
1070
     0
  0
DICTIONARYVAR
  5
37B
102
{ACAD_REACTORS
330
378
102
}
330
378
100
DictionaryVariables
280
     0
  1
2
  0
DICTIONARYVAR
  5
37C
102
{ACAD_REACTORS
330
378
102
}
330
378
100
DictionaryVariables
280
     0
  1
1
  0
DICTIONARY
  5
37F
330
3D
100
AcDbDictionary
  3
ACAD_XREC_ROUNDTRIP
360
380
1001
ACAD
1000
TREAT_AS_HARD
1070
     1
  0
DICTIONARY
  5
37D
330
3C
100
AcDbDictionary
  3
ACAD_XREC_ROUNDTRIP
360
37E
1001
ACAD
1000
TREAT_AS_HARD
1070
     1
  0
DICTIONARY
  5
381
330
3E
100
AcDbDictionary
  3
ACAD_XREC_ROUNDTRIP
360
382
1001
ACAD
1000
TREAT_AS_HARD
1070
     1
  0
XRECORD
  5
380
102
{ACAD_REACTORS
330
37F
102
}
330
37F
100
AcDbXrecord
102
MATERIAL
148
0.0
149
0.0
149
0.0
 93
        0
 94
      127
282
     0
 72
     1
 77
     1
171
     1
175
     1
179
     1
273
     0
  0
XRECORD
  5
37E
102
{ACAD_REACTORS
330
37D
102
}
330
37D
100
AcDbXrecord
102
MATERIAL
148
0.0
149
0.0
149
0.0
 93
        0
 94
      127
282
     0
 72
     1
 77
     1
171
     1
175
     1
179
     1
273
     0
  0
XRECORD
  5
382
102
{ACAD_REACTORS
330
381
102
}
330
381
100
AcDbXrecord
102
MATERIAL
148
0.0
149
0.0
149
0.0
 93
        0
 94
      127
282
     0
 72
     1
 77
     1
171
     1
175
     1
179
     1
273
     0
  0
ENDSEC
  0
EOF
